<?xml version="1.0" encoding="UTF-8"?>
<svg id="_レイヤー_2" data-name="レイヤー 2" xmlns="http://www.w3.org/2000/svg" xmlns:xlink="http://www.w3.org/1999/xlink" viewBox="0 0 687.95 677.49">
  <defs>
    <style>
      .cls-1 {
        fill: #1858a0;
      }

      .cls-2 {
        fill: #f6e174;
      }

      .cls-3 {
        fill: #a77bb4;
      }

      .cls-4 {
        fill: #712600;
      }

      .cls-5 {
        fill: #c177af;
      }

      .cls-6 {
        fill: #e8732a;
      }

      .cls-7 {
        fill: #5a6130;
      }

      .cls-8 {
        fill: #7d4798;
      }

      .cls-9 {
        fill: #9c6b12;
      }

      .cls-10 {
        fill: #c68a21;
      }

      .cls-11 {
        fill: #15579f;
      }

      .cls-12 {
        opacity: .3;
      }

      .cls-12, .cls-13 {
        fill: #fff;
      }

      .cls-14 {
        fill: #996cac;
      }

      .cls-15 {
        fill: url(#_新規グラデーションスウォッチ_1);
      }

      .cls-16 {
        fill: #2a68b2;
      }

      .cls-17 {
        fill: url(#_名称未設定グラデーション_147-3);
      }

      .cls-18 {
        fill: url(#_名称未設定グラデーション_147-2);
      }

      .cls-19 {
        fill: url(#_名称未設定グラデーション_103-3);
      }

      .cls-20 {
        fill: url(#_名称未設定グラデーション_103-2);
      }

      .cls-21 {
        fill: #231815;
        font-family: Helvetica, Helvetica;
        font-size: 30px;
      }

      .cls-13 {
        stroke: #231815;
        stroke-miterlimit: 10;
      }

      .cls-22 {
        fill: #b0b0b0;
      }

      .cls-23 {
        fill: #3e3a39;
      }

      .cls-24 {
        fill: #7d7d7d;
      }

      .cls-25 {
        fill: #d081b4;
      }

      .cls-26 {
        fill: #2967b2;
      }

      .cls-27 {
        fill: url(#_名称未設定グラデーション_147);
      }

      .cls-28 {
        fill: url(#_名称未設定グラデーション_103);
      }

      .cls-29 {
        fill: url(#_名称未設定グラデーション_131);
      }

      .cls-30 {
        fill: #c69753;
      }

      .cls-31 {
        fill: #040000;
      }

      .cls-32 {
        fill: #4a4a4a;
      }

      .cls-33 {
        fill: #f6cd41;
      }

      .cls-34 {
        fill: #4984b3;
      }

      .cls-35 {
        fill: #7f4f21;
      }

      .cls-36 {
        fill: #a1930e;
      }

      .cls-37 {
        fill: #f5cd42;
      }

      .cls-38 {
        fill: #ae5da1;
      }

      .cls-39 {
        fill: #8c5aa2;
      }

      .cls-40 {
        fill: #ccbf77;
      }

      .cls-41 {
        fill: #2f6591;
      }

      .cls-42 {
        fill: #97811d;
      }
    </style>
    <linearGradient id="_名称未設定グラデーション_147" data-name="名称未設定グラデーション 147" x1="208.69" y1="591.9" x2="212.37" y2="581.8" gradientUnits="userSpaceOnUse">
      <stop offset="0" stop-color="#1858a0"/>
      <stop offset="1" stop-color="#2a68b2"/>
    </linearGradient>
    <linearGradient id="_名称未設定グラデーション_131" data-name="名称未設定グラデーション 131" x1="206.34" y1="598.46" x2="208" y2="593.9" gradientUnits="userSpaceOnUse">
      <stop offset="0" stop-color="#1858a0"/>
      <stop offset="1" stop-color="#2a68b2"/>
    </linearGradient>
    <linearGradient id="_名称未設定グラデーション_147-2" data-name="名称未設定グラデーション 147" x1="207.68" y1="594.67" x2="208.33" y2="592.88" xlink:href="#_名称未設定グラデーション_147"/>
    <linearGradient id="_名称未設定グラデーション_147-3" data-name="名称未設定グラデーション 147" x1="208.19" y1="593.27" x2="209" y2="591.07" xlink:href="#_名称未設定グラデーション_147"/>
    <linearGradient id="_名称未設定グラデーション_103" data-name="名称未設定グラデーション 103" x1="-541.54" y1="414.34" x2="-537.49" y2="403.22" gradientTransform="translate(182.38 -65.12) rotate(-50)" gradientUnits="userSpaceOnUse">
      <stop offset="0" stop-color="#316591"/>
      <stop offset="1" stop-color="#3d73a1"/>
    </linearGradient>
    <linearGradient id="_名称未設定グラデーション_103-2" data-name="名称未設定グラデーション 103" x1="-544.13" y1="421.55" x2="-542.3" y2="416.53" xlink:href="#_名称未設定グラデーション_103"/>
    <linearGradient id="_名称未設定グラデーション_103-3" data-name="名称未設定グラデーション 103" x1="-542.65" y1="417.38" x2="-541.93" y2="415.41" xlink:href="#_名称未設定グラデーション_103"/>
    <linearGradient id="_新規グラデーションスウォッチ_1" data-name="新規グラデーションスウォッチ 1" x1="-542.09" y1="415.84" x2="-541.2" y2="413.41" gradientTransform="translate(182.38 -65.12) rotate(-50)" gradientUnits="userSpaceOnUse">
      <stop offset="0" stop-color="#316591"/>
      <stop offset="1" stop-color="#3d73a1"/>
    </linearGradient>
  </defs>
  <g id="_レイヤー_1-2" data-name="レイヤー 1">
    <g>
      <path class="cls-7" d="M333.08,20.05c-.2.63-19.1-8.67-42.45-8.01-19.76.55-34.94,7.87-47.35,14.69-56.4,31-88.99,48.92-121.63,90.02-7.26,9.14-67.37,86.83-61.95,177.67.77,12.89,1.44,24.08,6.14,38.56,15.36,47.29,52.81,56.57,52.84,88.9.02,15.18-8.12,33.64-19.38,36.01-22.47,4.73-58.66-54.3-71.01-107.62-10.1-43.63-3.74-81.29,1.88-103.31h0c17.46-54.33,31.14-75.19,49.59-98.26h0c25.01-34.75,51.03-54.64,79.25-76.22,30.78-23.53,52.87-34.64,74.4-45.31,31.2-15.46,48.25-19.8,66.48-17.81,18.71,2.04,33.37,10.12,33.19,10.68Z"/>
      <path class="cls-42" d="M108,435.64c-12.79-7.78-28.99-19.78-44.02-37.83-32.36-38.88-39.15-81.66-40.9-101.43-.51,16.21.72,34.45,5.21,53.88,12.35,53.33,48.54,112.35,71.01,107.62,3.8-.8,7.23-3.43,10.13-7.14-2.25-3.17-4.51-6.35-6.76-9.52,1.94-1.71,3.73-3.58,5.33-5.58Z"/>
      <path class="cls-9" d="M381.25,348.6c4.69-1.24,13.54-3.57,19.1.74,3.69,2.86,1.36,5.11,5.06,10.49,5.68,8.26,13.28,6.04,15.74,14.32.56,1.88,1.4,4.73-.14,7.81-3.45,6.88-15.68,8.67-19.07,9.17-5.32.78-15.78,2.32-19.11-4.05-2.56-4.9,2-8.97.64-16.47-2.06-11.41-14.54-12.59-12.65-17.07,1.04-2.47,5.47-3.64,10.42-4.94Z"/>
      <path class="cls-9" d="M253.11,348.18c-4.84-4.47-13.62-3.1-18.32.89-4.03,3.42-1.97,6.15-6.61,11.77-4.56,5.53-8.04,4.69-11.97,10.47-1.21,1.78-4.64,6.82-2.87,10.24,1.56,3.01,6.31,3.17,13.27,3.4,8.77.3,14.73.5,18.72-3.43,2.58-2.55,1.06-3.59,4.99-11.01,3.55-6.7,5.55-7.28,6.13-11.26.07-.51.93-7.12-3.35-11.06Z"/>
      <g>
        <path class="cls-7" d="M317,7.61c.38,1.07,1.76,1.35,3.79,1.92,1.02.29,8.2,2.37,12.29,5.25,3.12,2.2,6.33,6.18,5.46,7.66-1.87,3.17-21.56-6.02-22.12-4.73-.38.87,7.27,5.59,16.66,9.46,11.82,4.87,15.79,3.52,20.9,6.23,9.61,5.09,13.33,29.86,14.85,38.26,6.33,35.14,45.53,61.79,69.72,71.08,32.65,12.54,51.11-1.52,88.11,19.01,4.31,2.39,11.62,6.5,19.88,13.71,32.99,28.78,38.02,69.41,39.46,80.43,1.68,12.85,6.56,46.83-12.07,77.1-26.39,42.87-76.93,40.51-81.31,68.4-3.68,23.42,26.95,56.91,56.19,57.87,51.07,1.68,113.3-91.2,106.81-173.98-4.14-52.87-32.84-91.56-61.16-128.71-16.25-21.32-46.29-59.93-97-87.72-21.43-11.74-74.32-36.77-101.43-43.77-7.63-1.97-26.09-5.83-36.55-14.37-1.25-1.02-5.25-4.44-11.49-6.98-4.92-2-8.95-2.53-12.87-3.03-6.69-.87-10.3-1.28-13.78.82-2.45,1.48-4.98,4.3-4.35,6.08Z"/>
        <ellipse class="cls-31" cx="327.93" cy="6.1" rx="1.11" ry=".6"/>
        <circle class="cls-36" cx="344.9" cy="10.68" r="3.38"/>
        <circle class="cls-31" cx="344.9" cy="10.68" r="1.42"/>
      </g>
      <path class="cls-42" d="M542,458.45c54.17-31.63,86.5-90.11,83.4-151.28-4.24-83.71-72.58-127.82-78.86-131.72,32.99,28.78,38.02,69.41,39.46,80.43,1.68,12.85,6.56,46.83-12.07,77.1-26.39,42.87-76.93,40.51-81.31,68.4-1.23,12.95,7.29,31.64,49.38,57.06,0,0,0,0,0,0Z"/>
      <path class="cls-7" d="M523.11,439.95c-60.76,4.08-129.56,6.85-205.06,6.85s-144.3-2.78-205.06-6.85c-8.17-22-7.98-42.77,13.38-54.2,32.33-17.3,82.51,3.16,191.69,3.18,109.24.01,159.49-20.46,191.8-3.15,21.24,11.39,21.52,32.04,13.27,54.17Z"/>
      <path class="cls-42" d="M112.97,439.95c60.76,4.08,129.56,6.85,205.06,6.85s144.3-2.78,205.06-6.85c3.25-8.7,5.16-17.18,5.01-24.95-65.72,4.65-136.06,7.43-210.54,7.42-74.12-.01-144.14-2.79-209.57-7.42.04,3.45.34,7.57,4.97,24.95Z"/>
      <path class="cls-7" d="M551,474.15c-66.43,5.57-144.66,9.69-232.35,9.69-67.21,0-145.67-2.42-232.35-9.69-7.34-20.65-8.08-42.49,14.83-54.39,36.96-19.21,96.88,7.51,217.52,7.34,118.64-.16,176.8-26.16,214.52-7.15,24.94,12.57,23.37,35.96,17.83,54.21Z"/>
      <path class="cls-42" d="M86.28,474.15c86.68,7.27,165.15,9.69,232.35,9.69,87.7,0,165.93-4.12,232.35-9.69,2-6.58,3.47-13.83,3.38-21-64.3,12.6-144.3,22.94-236.32,22.94-92,0-171.99-10.34-236.28-22.94.2,3.07.62,6.59,4.52,21Z"/>
      <path class="cls-7" d="M574.83,545.67c-69.27,11.6-156.18,21.26-256.53,21.26-100.34,0-187.25-9.65-256.53-21.24-7.73-26.48-12.15-60.1,9.89-78.78,38.18-32.36,111.92,17.27,246.63,17.14,134.03-.14,207.06-49.42,245.59-17.14,22.57,18.91,18.1,53.09,10.94,78.75Z"/>
      <path class="cls-42" d="M55.86,516.62c.93,9.94,3.2,19.93,5.87,29.07,69.27,11.59,156.19,21.24,256.53,21.24,100.34,0,187.25-9.67,256.53-21.26,2.51-8.98,4.68-19,5.48-29.05-68.34,15.1-155.48,28.18-256.83,28.63-106.17.47-197.11-13.05-267.57-28.63Z"/>
      <path class="cls-10" d="M433.95,334.95c-12.74-5.75-24.99-3.77-32.39-2.47-3.32.58-6.2,1.09-8.7,1.72-11.74-12.9-48.31-25.47-78.96-16.57-18.45,5.35-36.27,18.91-55.75,23.44.16-.32.26-.65.26-.97-.03-5.1-18.47-11.9-27.35-5.68-3.66,2.56-3.11,5.51-7.85,9.26-7.35,5.82-15.92,4.44-15.92,5.43,0,1.19,12.48,4.01,27.33,1.25,1.21-.22,2.53-.5,3.91-.82,14.68,10.7,44.57,26.95,77.67,27.59,26.72.51,54.59-9.18,69.51-20.05,3.59-1.68,8.89-5.61,16.07-6.34,7.06-.73,7.47,2.51,15.52,2.68,12.3.25,25.14-7.04,24.78-12.2-.18-2.67-3.89-4.35-8.13-6.26Z"/>
      <path class="cls-10" d="M273.67,353.08c-4.84-4.47-13.62-3.1-18.32.89-4.03,3.42-1.97,6.15-6.61,11.77-4.56,5.53-8.04,4.69-11.97,10.47-1.21,1.78-4.64,6.82-2.87,10.24,1.56,3.01,6.31,3.17,13.27,3.4,8.77.3,14.73.5,18.72-3.43,2.58-2.55,1.06-3.59,4.99-11.01,3.55-6.7,5.55-7.28,6.13-11.26.07-.51.93-7.12-3.35-11.06Z"/>
      <path class="cls-10" d="M369.08,351.06c3.99-.41,11.54-1.18,17.05,3.19,3.66,2.9,1.9,4.48,5.9,9.49,6.15,7.7,12.6,6.86,15.89,14.14.75,1.65,1.88,4.16.92,6.54-2.14,5.31-12.74,5.18-15.69,5.14-4.61-.06-13.69-.18-17.49-5.97-2.93-4.46.57-7.27-1.64-13.74-3.36-9.86-14.59-12.53-13.51-16.04.59-1.93,4.36-2.32,8.58-2.75Z"/>
      <path class="cls-6" d="M226.69,334.29c2.49,19.16,58.52,27.58,93.98,27.15,31.62-.38,86.28-8.27,88.76-27.15,2.42-18.46-45.12-47.01-91.37-46.99-46.15.02-93.77,28.47-91.37,46.99Z"/>
      <path class="cls-13" d="M431.09,283.3c-2.5,2.71-4.17,3.66-5.95,4.01-2.12.41-3.86-.13-4.68-.4-4.45-1.44-6.73-5.37-8.09-7.72-1.93-3.33-3.7-6.38-2.83-9.96.93-3.8,4.27-5.83,6.35-7.09,6.2-3.76,12.57-2.44,15.27-1.88,3.82.79,5.1,2.07,5.62,2.66,1.67,1.95,1.75,4.36,1.78,5.84.11,6.31-4.1,10.88-7.46,14.52Z"/>
      <path class="cls-13" d="M340.56,261.77c0,.14,4.1-.83,9.77.65,6.37,1.66,9.72,5.09,12.01,3.53.79-.54,1.48-1.7,1.22-2.61-1.22-4.31-23.01-1.89-23-1.57Z"/>
      <path class="cls-13" d="M335.53,260.35s.97.59,2.55.74c1.78.17,2.95-.4,3.39.21.15.21.22.57.07.78-.71.99-6.04-1.65-6.01-1.73Z"/>
      <path class="cls-13" d="M211.64,283.3c2.5,2.71,4.17,3.66,5.95,4.01,2.12.41,3.86-.13,4.68-.4,4.45-1.44,6.73-5.37,8.09-7.72,1.93-3.33,3.7-6.38,2.83-9.96-.93-3.8-4.27-5.83-6.35-7.09-6.2-3.76-12.57-2.44-15.27-1.88-3.82.79-5.1,2.07-5.62,2.66-1.67,1.95-1.75,4.36-1.78,5.84-.11,6.31,4.1,10.88,7.46,14.52Z"/>
      <path class="cls-13" d="M302.16,261.77c0,.14-4.1-.83-9.77.65-6.37,1.66-9.72,5.09-12.01,3.53-.79-.54-1.48-1.7-1.22-2.61,1.22-4.31,23.01-1.89,23-1.57Z"/>
      <path class="cls-13" d="M307.2,260.35s-.97.59-2.55.74c-1.78.17-2.95-.4-3.39.21-.15.21-.22.57-.07.78.71.99,6.04-1.65,6.01-1.73Z"/>
      <g>
        <path class="cls-11" d="M408.99,282.48c3.23.96,4.17,7.83,3.08,12.97-1.02,4.81-3.21,5.17-5.24,10.49-3.37,8.85.36,13.98-2.56,16.42-3.69,3.09-14.11-1.52-14.53-7.06-.27-3.58,3.89-4.45,6.62-11.42,2.48-6.32.21-8.56,2.97-13.78,2.16-4.1,6.63-8.53,9.66-7.63Z"/>
        <path class="cls-11" d="M364.31,260.16c-2.82-1.86-8.68,1.84-11.91,5.98-3.03,3.88-1.9,5.78-4.67,10.76-4.61,8.27-10.94,8.72-10.94,12.52,0,4.81,10.24,9.83,14.74,6.59,2.91-2.1.91-5.84,4.49-12.41,3.25-5.96,6.42-5.66,8.65-11.13,1.75-4.29,2.27-10.56-.36-12.3Z"/>
        <path class="cls-26" d="M366.1,272.13c-2.82-1.86-8.68,1.84-11.91,5.98-3.03,3.88-1.9,5.78-4.67,10.76-4.61,8.27-10.94,8.72-10.94,12.52,0,4.81,10.24,9.83,14.74,6.59,2.91-2.1.91-5.84,4.49-12.41,3.25-5.96,6.42-5.66,8.65-11.13,1.75-4.29,2.27-10.56-.36-12.3Z"/>
        <path class="cls-26" d="M397.9,286.61c3.23.96,4.17,7.83,3.08,12.97-1.02,4.81-3.21,5.17-5.24,10.49-3.37,8.85.36,13.98-2.56,16.42-3.69,3.09-14.11-1.52-14.53-7.06-.27-3.58,3.89-4.45,6.62-11.42,2.48-6.32.21-8.56,2.97-13.78,2.16-4.1,6.63-8.53,9.66-7.63Z"/>
        <path class="cls-26" d="M474.04,272.64c-.02-.62-.1-3.89-2.24-6.7-1.5-1.97-3.52-3.06-4.7-5.81-.25-.58-.53-1.39-.36-2.35.21-1.23,1.02-2.01,1.44-2.42.52-.5,1.45-1.4,2.68-1.43,1.68-.05,3.01,1.52,3.2,1.31.16-.18-.97-1.12-.7-1.89.2-.54.98-.64.94-.86-.04-.19-.63-.19-1.51-.3-.98-.12-1.37-.27-1.78-.33-1.67-.25-3.4.95-3.99,1.36-.54.37-2.66,1.85-3.25,4.56-.46,2.16.3,3.95.81,5.08,1.59,3.56,3.76,3.49,4.57,6.09.81,2.6-.48,5.56-2.01,7.28-3.16,3.55-8.24,2.86-9.8,2.65-4.03-.53-6.77-2.77-8.29-4.05-3.48-2.93-3.28-4.78-7.04-8.32-1.18-1.11-3.29-3.1-6.18-4.37-3.08-1.36-6.5-1.67-9.82-1.21-.36,0-.8.08-1.32.22-1.29.26-2.56.63-3.78,1.1,0,0,0,0,0,0-1.31.32-9.52,2.26-17.06-.47-1.06-.38-3.48-1.62-8.33-4.08-2.54-1.29-4.07-2.16-4.56-2.36-2.18-.91-17.49-7-29.48.71-1.51.97-7.83,5.04-9.57,12.76-1.93,8.56,3.14,15.56,4.66,17.65,4.5,6.2,10.45,8.56,15.28,10.48,4.1,1.62,14.11,5.65,25.6,3.02,10.26-2.34,12.36-7.83,22.42-7.78,2.22.01,3.92.29,5.3.51,2.51.78,5.72,1.37,9.45,1,1.59-.16,6.64-.72,11.32-3.97,1.64-1.14,2.13-1.84,3.9-2.65,3.31-1.51,5.9-1.01,8.72-1.14,2.86-.14,7.51-.64,11.05-3.71.34-.29,4.57-4.08,4.43-9.59Z"/>
        <path class="cls-11" d="M422.72,286.18c-1.99,3.11-3.47,4.33-5.16,4.98-2.01.77-3.82.54-4.68.42-4.64-.64-7.56-4.12-9.31-6.19-2.48-2.95-4.75-5.64-4.51-9.32.25-3.91,3.19-6.48,5.02-8.08,5.45-4.78,11.96-4.58,14.71-4.5,3.9.12,5.38,1.15,5.99,1.65,1.99,1.63,2.48,3.99,2.76,5.44,1.21,6.2-2.15,11.42-4.83,15.6Z"/>
        <path class="cls-41" d="M227.13,282.48c-3.23.96-4.17,7.83-3.08,12.97,1.02,4.81,3.21,5.17,5.24,10.49,3.37,8.85-.36,13.98,2.56,16.42,3.69,3.09,14.11-1.52,14.53-7.06.27-3.58-3.89-4.45-6.62-11.42-2.48-6.32-.21-8.56-2.97-13.78-2.16-4.1-6.63-8.53-9.66-7.63Z"/>
        <path class="cls-41" d="M271.81,260.16c2.82-1.86,8.68,1.84,11.91,5.98,3.03,3.88,1.9,5.78,4.67,10.76,4.61,8.27,10.94,8.72,10.94,12.52,0,4.81-10.24,9.83-14.74,6.59-2.91-2.1-.91-5.84-4.49-12.41-3.25-5.96-6.42-5.66-8.65-11.13-1.75-4.29-2.27-10.56.36-12.3Z"/>
        <path class="cls-34" d="M270.02,272.13c2.82-1.86,8.68,1.84,11.91,5.98,3.03,3.88,1.9,5.78,4.67,10.76,4.61,8.27,10.94,8.72,10.94,12.52,0,4.81-10.24,9.83-14.74,6.59-2.91-2.1-.91-5.84-4.49-12.41-3.25-5.96-6.42-5.66-8.65-11.13-1.75-4.29-2.27-10.56.36-12.3Z"/>
        <path class="cls-34" d="M238.22,286.61c-3.23.96-4.17,7.83-3.08,12.97,1.02,4.81,3.21,5.17,5.24,10.49,3.37,8.85-.36,13.98,2.56,16.42,3.69,3.09,14.11-1.52,14.53-7.06.27-3.58-3.89-4.45-6.62-11.42-2.48-6.32-.21-8.56-2.97-13.78-2.16-4.1-6.63-8.53-9.66-7.63Z"/>
        <path class="cls-33" d="M162.08,272.63c.02-.62.1-3.89,2.24-6.7,1.5-1.97,3.52-3.06,4.7-5.81.25-.58.53-1.39.36-2.35-.21-1.23-1.02-2.01-1.44-2.42-.52-.5-1.45-1.4-2.68-1.43-1.68-.05-3.01,1.52-3.2,1.31-.16-.18.97-1.12.7-1.89-.2-.54-.98-.64-.94-.86.04-.19.63-.19,1.51-.3.98-.12,1.37-.27,1.78-.33,1.67-.25,3.4.95,3.99,1.36.54.37,2.66,1.85,3.25,4.56.46,2.16-.3,3.95-.81,5.08-1.59,3.56-3.76,3.49-4.57,6.09-.81,2.6.48,5.56,2.01,7.28,3.16,3.55,8.24,2.86,9.8,2.65,4.03-.53,6.77-2.77,8.29-4.05,3.48-2.93,3.28-4.78,7.04-8.32,1.18-1.11,3.29-3.1,6.18-4.37,3.08-1.36,6.5-1.67,9.82-1.21.36,0,.8.08,1.32.22,1.29.26,2.56.63,3.78,1.1,0,0,0,0,0,0,1.31.32,9.52,2.26,17.06-.47,1.06-.38,3.48-1.62,8.33-4.08,2.54-1.29,4.07-2.16,4.56-2.36,2.18-.91,17.49-7,29.48.71,1.51.97,7.83,5.04,9.57,12.76,1.93,8.56-3.14,15.56-4.66,17.65-4.5,6.2-10.45,8.56-15.28,10.48-4.1,1.62-14.11,5.65-25.6,3.02-10.26-2.34-12.36-7.83-22.42-7.78-2.22.01-3.92.29-5.3.51-2.51.78-5.72,1.37-9.45,1-1.59-.16-6.64-.72-11.32-3.97-1.64-1.14-2.13-1.84-3.9-2.65-3.31-1.51-5.9-1.01-8.72-1.14-2.86-.14-7.51-.64-11.05-3.71-.34-.29-4.57-4.08-4.43-9.59Z"/>
        <path class="cls-41" d="M213.4,286.18c1.99,3.11,3.47,4.33,5.16,4.98,2.01.77,3.82.54,4.68.42,4.64-.64,7.56-4.12,9.31-6.19,2.48-2.95,4.75-5.64,4.51-9.32-.25-3.91-3.19-6.48-5.02-8.08-5.45-4.78-11.96-4.58-14.71-4.5-3.9.12-5.38,1.15-5.99,1.65-1.99,1.63-2.48,3.99-2.76,5.44-1.21,6.2,2.15,11.42,4.83,15.6Z"/>
      </g>
      <path class="cls-40" d="M147.54,235.08c2.27,25.52,106.76,36.73,169.86,36.81,64.1.08,168.91-11.24,171.18-36.81,2.13-23.98-85.88-60.48-170.52-60.48-84.67,0-172.65,36.52-170.52,60.48Z"/>
      <g>
        <rect class="cls-30" x="259.7" y="157.43" width="118.17" height="78.78"/>
        <path class="cls-4" d="M396.84,167.82h-157.56c13.37-10.5,26.74-21.01,40.11-31.51h78.78c12.89,10.5,25.78,21.01,38.66,31.51Z"/>
        <polygon class="cls-30" points="387.72 165.19 249.85 165.19 318.79 138.93 387.72 165.19"/>
        <rect class="cls-4" x="341.64" y="128.2" width="11.82" height="13.13"/>
        <path class="cls-4" d="M367.3,200.76h-98.47c8.36-2.63,16.71-5.25,25.07-7.88h49.24c8.06,2.63,16.11,5.25,24.17,7.88Z"/>
        <g>
          <rect class="cls-23" x="304.54" y="147.8" width="7.88" height="13.13"/>
          <rect class="cls-23" x="314.85" y="147.8" width="7.88" height="13.13"/>
          <rect class="cls-23" x="325.15" y="147.8" width="7.88" height="13.13"/>
        </g>
        <g>
          <rect class="cls-23" x="275.3" y="205.92" width="7.88" height="13.13"/>
          <rect class="cls-23" x="285.6" y="205.92" width="7.88" height="13.13"/>
          <rect class="cls-23" x="295.9" y="205.92" width="7.88" height="13.13"/>
        </g>
        <g>
          <rect class="cls-23" x="333.31" y="205.92" width="7.88" height="13.13"/>
          <rect class="cls-23" x="343.61" y="205.92" width="7.88" height="13.13"/>
          <rect class="cls-23" x="353.91" y="205.92" width="7.88" height="13.13"/>
        </g>
        <path class="cls-22" d="M335.59,238.02h-33.66l5.02-2.63h23.63l5.02,2.63Z"/>
        <path class="cls-24" d="M330.57,235.39h-23.63l3.52-1.96h16.59l3.52,1.96Z"/>
        <path class="cls-32" d="M327.19,233.43h-16.93l2.52-1.66h11.89l2.52,1.66Z"/>
        <rect class="cls-35" x="312.88" y="209.13" width="11.82" height="21.01"/>
        <g>
          <rect class="cls-23" x="265" y="173.78" width="7.88" height="13.13"/>
          <rect class="cls-23" x="275.3" y="173.78" width="7.88" height="13.13"/>
          <rect class="cls-23" x="285.6" y="173.78" width="7.88" height="13.13"/>
        </g>
        <g>
          <rect class="cls-23" x="343.61" y="173.78" width="7.88" height="13.13"/>
          <rect class="cls-23" x="353.91" y="173.78" width="7.88" height="13.13"/>
          <rect class="cls-23" x="364.21" y="173.78" width="7.88" height="13.13"/>
        </g>
      </g>
      <g>
        <rect class="cls-12" x="201.93" y="502.21" width="226.77" height="42.52"/>
        <text class="cls-21" transform="translate(220.72 534.23)"><tspan x="0" y="0">version control</tspan></text>
      </g>
      <g>
        <rect class="cls-12" x="218.82" y="444.73" width="198.43" height="42.52"/>
        <text class="cls-21" transform="translate(278.87 476.75)"><tspan x="0" y="0">linting</tspan></text>
      </g>
      <g>
        <rect class="cls-12" x="233" y="387.25" width="170.08" height="42.52"/>
        <text class="cls-21" transform="translate(257.19 419.26)"><tspan x="0" y="0">code test</tspan></text>
      </g>
      <g>
        <rect class="cls-12" x="247.17" y="321.09" width="141.73" height="42.52"/>
        <text class="cls-21" transform="translate(268.87 353.11)"><tspan x="0" y="0">Jupyter</tspan></text>
      </g>
      <g>
        <rect class="cls-12" x="204.65" y="210.51" width="226.77" height="42.52"/>
        <text class="cls-21" transform="translate(219.66 242.53)"><tspan x="0" y="0">documentation</tspan></text>
      </g>
      <g>
        <rect class="cls-12" x="401.91" y="82.88" width="113.39" height="42.52"/>
        <text class="cls-21" transform="translate(417.8 114.9)"><tspan x="0" y="0">CI/CD</tspan></text>
      </g>
      <g>
        <g>
          <rect class="cls-12" x="172.6" y="265.22" width="113.39" height="42.52"/>
          <text class="cls-21" transform="translate(182.62 297.24)"><tspan x="0" y="0">Python</tspan></text>
        </g>
        <g>
          <rect class="cls-12" x="378.44" y="265.22" width="56.69" height="42.52"/>
          <text class="cls-21" transform="translate(395.97 297.24)"><tspan x="0" y="0">R</tspan></text>
        </g>
      </g>
    </g>
    <g>
      <path class="cls-25" d="M280.97,631.95c-1.36-2.1-3.38-3.64-6.06-4.61,1.75-.9,3.08-1.89,3.98-2.98,1.61-1.94,2.42-4.5,2.42-7.69s-.81-5.75-2.42-7.97c-2.68-3.61-7.23-5.47-13.64-5.56h-25.44v52.23h23.74c2.68,0,5.16-.24,7.44-.71,2.29-.47,4.27-1.35,5.95-2.62,1.49-1.11,2.74-2.48,3.73-4.11,1.56-2.46,2.35-5.23,2.35-8.33s-.68-5.55-2.04-7.65ZM250.25,612.21h11.51c2.53,0,4.62.27,6.25.81,1.89.78,2.84,2.39,2.84,4.82,0,2.2-.71,3.72-2.13,4.57-1.45.87-3.32,1.31-5.61,1.31h-12.86v-11.52ZM268.48,645.38c-1.28.61-3.07.92-5.37.92h-12.86v-13.92h13.04c2.27.02,4.04.32,5.29.89,2.25,1.02,3.38,2.88,3.38,5.6,0,3.21-1.16,5.39-3.48,6.52Z"/>
      <path class="cls-25" d="M323.52,652.71c-.33-.47-.53-1.37-.6-2.69-.05-1.75-.07-3.24-.07-4.46v-17.72c0-4.65-1.65-7.82-4.94-9.5-3.29-1.68-7.06-2.52-11.3-2.52-6.51,0-11.11,1.7-13.79,5.1-1.68,2.17-2.63,4.95-2.84,8.33h9.77c.24-1.49.71-2.67,1.42-3.54.99-1.18,2.69-1.77,5.08-1.77,2.13,0,3.75.3,4.85.9s1.65,1.7,1.65,3.28c0,1.3-.72,2.26-2.17,2.87-.81.35-2.14.65-4.02.89l-3.45.43c-3.91.5-6.87,1.32-8.88,2.48-3.67,2.13-5.51,5.56-5.51,10.31,0,3.66,1.14,6.49,3.43,8.49,2.29,2,5.18,2.99,8.69,2.99,2.75,0,5.21-.63,7.39-1.88,1.82-1.06,3.43-2.35,4.83-3.86.07.87.17,1.65.28,2.34.12.69.33,1.42.64,2.2h11.01v-1.49c-.66-.31-1.16-.7-1.49-1.17ZM312.72,640.34c-.07,3.38-1.02,5.7-2.86,6.98-1.84,1.28-3.84,1.91-6.02,1.91-1.37,0-2.53-.39-3.48-1.17-.97-.76-1.46-2-1.46-3.72,0-1.94.78-3.37,2.35-4.29.92-.54,2.45-1,4.58-1.38l2.27-.43c1.14-.21,2.03-.44,2.68-.69.65-.25,1.3-.57,1.94-.97v3.76Z"/>
      <path class="cls-25" d="M358.52,618.52c3.03,1.94,4.77,5.27,5.22,9.99h-10.13c-.14-1.3-.51-2.33-1.1-3.08-1.11-1.37-3.01-2.06-5.68-2.06-2.2,0-3.77.34-4.71,1.03-.94.69-1.4,1.49-1.4,2.41,0,1.16.5,2,1.49,2.52.99.54,4.51,1.48,10.55,2.8,4.03.95,7.05,2.37,9.06,4.29,1.99,1.94,2.98,4.36,2.98,7.26,0,3.83-1.43,6.95-4.28,9.37s-7.27,3.63-13.24,3.63-10.58-1.28-13.48-3.84-4.35-5.83-4.35-9.8h10.27c.21,1.8.68,3.07,1.39,3.83,1.26,1.35,3.58,2.02,6.96,2.02,1.99,0,3.57-.3,4.74-.89,1.17-.59,1.76-1.48,1.76-2.66s-.47-2-1.42-2.59c-.95-.59-4.47-1.61-10.55-3.05-4.38-1.09-7.47-2.44-9.27-4.07-1.8-1.61-2.7-3.92-2.7-6.94,0-3.57,1.4-6.63,4.21-9.19,2.81-2.56,6.76-3.84,11.85-3.84s8.78.96,11.83,2.87Z"/>
      <path class="cls-25" d="M404.46,652.71c-.33-.47-.53-1.37-.6-2.69-.05-1.75-.07-3.24-.07-4.46v-17.72c0-4.65-1.65-7.82-4.94-9.5-3.29-1.68-7.06-2.52-11.3-2.52-6.51,0-11.11,1.7-13.79,5.1-1.68,2.17-2.63,4.95-2.84,8.33h9.77c.24-1.49.71-2.67,1.42-3.54.99-1.18,2.69-1.77,5.08-1.77,2.13,0,3.75.3,4.85.9s1.65,1.7,1.65,3.28c0,1.3-.72,2.26-2.17,2.87-.81.35-2.14.65-4.01.89l-3.45.43c-3.91.5-6.87,1.32-8.88,2.48-3.67,2.13-5.51,5.56-5.51,10.31,0,3.66,1.14,6.49,3.43,8.49,2.29,2,5.18,2.99,8.69,2.99,2.75,0,5.21-.63,7.39-1.88,1.82-1.06,3.43-2.35,4.83-3.86.07.87.17,1.65.28,2.34.12.69.33,1.42.64,2.2h11.01v-1.49c-.66-.31-1.16-.7-1.49-1.17ZM393.66,640.34c-.07,3.38-1.02,5.7-2.86,6.98-1.84,1.28-3.84,1.91-6.02,1.91-1.37,0-2.53-.39-3.48-1.17-.97-.76-1.46-2-1.46-3.72,0-1.94.78-3.37,2.35-4.29.92-.54,2.45-1,4.58-1.38l2.27-.43c1.14-.21,2.03-.44,2.68-.69.65-.25,1.3-.57,1.94-.97v3.76Z"/>
      <rect class="cls-25" x="412.99" y="603.14" width="10.13" height="52.23"/>
      <path class="cls-25" d="M470.76,651.47c-3.91,3.57-8.91,5.35-14.99,5.35-7.53,0-13.45-2.41-17.77-7.23-4.31-4.84-6.47-11.48-6.47-19.91,0-9.12,2.45-16.14,7.36-21.08,4.26-4.3,9.69-6.45,16.27-6.45,8.81,0,15.25,2.88,19.33,8.65,2.25,3.24,3.46,6.48,3.62,9.74h-10.94c-.71-2.5-1.62-4.39-2.74-5.67-1.99-2.27-4.94-3.4-8.85-3.4s-7.12,1.6-9.42,4.8c-2.3,3.2-3.45,7.73-3.45,13.59s1.21,10.25,3.64,13.16c2.43,2.92,5.51,4.38,9.26,4.38s6.76-1.25,8.78-3.76c1.11-1.35,2.04-3.37,2.77-6.06h10.84c-.95,5.69-3.36,10.32-7.25,13.89Z"/>
      <path class="cls-25" d="M518.87,631.2c-.45-3.02-1.43-5.68-2.95-7.97-1.68-2.6-3.81-4.5-6.4-5.7-2.58-1.2-5.48-1.81-8.71-1.81-5.42,0-9.84,1.78-13.24,5.35-3.4,3.57-5.1,8.69-5.1,15.38,0,7.13,1.88,12.28,5.65,15.45,3.77,3.17,8.11,4.75,13.04,4.75,5.97,0,10.61-1.88,13.93-5.63,2.13-2.36,3.33-4.69,3.59-6.98h-10.34c-.55,1.13-1.17,2.02-1.88,2.66-1.3,1.18-3,1.77-5.08,1.77-1.97,0-3.65-.48-5.05-1.45-2.3-1.56-3.52-4.28-3.66-8.15h26.51c.05-3.33-.06-5.88-.32-7.65ZM492.93,632.19c.33-2.5,1.14-4.49,2.43-5.95,1.29-1.46,3.11-2.2,5.45-2.2,2.16,0,3.96.69,5.42,2.07,1.46,1.38,2.27,3.41,2.43,6.08h-15.74Z"/>
      <rect class="cls-25" x="526.23" y="603.14" width="10.13" height="52.23"/>
      <rect class="cls-25" x="546.44" y="603.14" width="10.13" height="52.23"/>
      <path class="cls-3" d="M556.57,628.35c-3.35-.27-6.73-.53-10.13-.78v27.8h10.13v-27.02Z"/>
      <path class="cls-3" d="M526.23,626.24v29.13h10.13v-28.5c-3.36-.22-6.73-.43-10.13-.62Z"/>
      <path class="cls-3" d="M506.24,626.12c1.46,1.38,2.27,3.41,2.43,6.08h-15.74c.33-2.5,1.14-4.49,2.43-5.95.5-.56,1.07-1.02,1.72-1.36-3.97-.14-7.97-.27-11.99-.37-1.74,3.19-2.61,7.16-2.61,11.94,0,7.13,1.88,12.28,5.65,15.45,3.77,3.17,8.11,4.75,13.04,4.75,5.97,0,10.61-1.88,13.93-5.63,2.13-2.36,3.33-4.69,3.59-6.98h-10.34c-.55,1.13-1.17,2.02-1.88,2.66-1.3,1.18-3,1.77-5.08,1.77-1.97,0-3.65-.48-5.05-1.45-2.3-1.56-3.52-4.28-3.66-8.15h26.51c.05-3.33-.06-5.88-.32-7.65-.29-1.97-.82-3.79-1.57-5.45-4.06-.21-8.15-.4-12.27-.57.42.26.82.58,1.2.93Z"/>
      <path class="cls-3" d="M464.4,643.64c-2.01,2.5-4.94,3.76-8.78,3.76s-6.83-1.46-9.26-4.38c-2.43-2.92-3.64-7.3-3.64-13.16,0-2.1.15-4.03.45-5.79-1.12,0-2.24.01-3.37.02-2.66.02-5.3.05-7.94.09-.22,1.74-.33,3.57-.33,5.5,0,8.43,2.16,15.07,6.47,19.91,4.31,4.82,10.23,7.23,17.77,7.23,6.09,0,11.09-1.78,14.99-5.35,3.88-3.57,6.3-8.2,7.25-13.89h-10.84c-.73,2.69-1.66,4.71-2.77,6.06Z"/>
      <path class="cls-3" d="M412.99,624.58v30.79h10.13v-31.04c-3.39.07-6.77.15-10.13.25Z"/>
      <g>
        <path class="cls-3" d="M393.7,628.12c0,1.3-.72,2.26-2.17,2.87-.81.35-2.14.65-4.01.89l-3.45.43c-3.91.5-6.87,1.32-8.88,2.48-3.67,2.13-5.51,5.56-5.51,10.31,0,3.66,1.14,6.49,3.43,8.49,2.29,2,5.18,2.99,8.69,2.99,2.75,0,5.21-.63,7.39-1.88,1.82-1.06,3.43-2.35,4.83-3.86.07.87.17,1.65.28,2.34.12.69.33,1.42.64,2.2h11.01v-1.49c-.66-.31-1.16-.7-1.49-1.17-.33-.47-.53-1.37-.6-2.69-.05-1.75-.07-3.24-.07-4.46v-17.72c0-1.06-.09-2.05-.26-2.96-3.63.13-7.25.27-10.84.43.67.64,1.02,1.57,1.02,2.81ZM393.66,640.34c-.07,3.38-1.02,5.7-2.86,6.98-1.84,1.28-3.84,1.91-6.02,1.91-1.37,0-2.53-.39-3.48-1.17-.97-.76-1.46-2-1.46-3.72,0-1.94.78-3.37,2.35-4.29.92-.54,2.45-1,4.58-1.38l2.27-.43c1.14-.21,2.03-.44,2.68-.69.65-.25,1.3-.57,1.94-.97v3.76Z"/>
        <path class="cls-3" d="M382.03,625.82c-3.6.19-7.17.39-10.73.6-.19.89-.32,1.83-.38,2.83h9.77c.23-1.43.67-2.57,1.34-3.43Z"/>
      </g>
      <g>
        <path class="cls-3" d="M352.76,632.12c-6.04-1.32-9.56-2.26-10.55-2.8-.38-.2-.69-.45-.93-.75-3.57.3-7.11.61-10.63.93.15,2.63,1.04,4.67,2.67,6.13,1.8,1.63,4.89,2.99,9.27,4.07,6.09,1.44,9.6,2.46,10.55,3.05.95.59,1.42,1.45,1.42,2.59s-.59,2.07-1.76,2.66c-1.17.59-2.75.89-4.74.89-3.39,0-5.71-.67-6.96-2.02-.71-.76-1.17-2.03-1.39-3.83h-10.27c0,3.97,1.45,7.23,4.35,9.8s7.4,3.84,13.48,3.84,10.38-1.21,13.24-3.63,4.28-5.55,4.28-9.37c0-2.91-.99-5.33-2.98-7.26-2.01-1.91-5.03-3.34-9.06-4.29Z"/>
        <path class="cls-3" d="M353.62,628.51h10.13c-.05-.55-.12-1.08-.21-1.6-3.37.22-6.72.46-10.06.7.06.28.11.58.14.89Z"/>
      </g>
      <path class="cls-3" d="M302.59,632.37c-3.64.5-6.43,1.31-8.35,2.41-3.67,2.13-5.51,5.56-5.51,10.31,0,3.66,1.14,6.49,3.43,8.49,2.29,2,5.18,2.99,8.69,2.99,2.75,0,5.21-.63,7.39-1.88,1.82-1.06,3.43-2.35,4.83-3.86.07.87.17,1.65.28,2.34.12.69.33,1.42.64,2.2h11.01v-1.49c-.66-.31-1.16-.7-1.49-1.17-.33-.47-.53-1.37-.6-2.69-.05-1.75-.07-3.24-.07-4.46v-15.31c-6.84.67-13.6,1.38-20.26,2.13ZM312.72,640.34c-.07,3.38-1.02,5.7-2.86,6.98-1.84,1.28-3.84,1.91-6.02,1.91-1.37,0-2.53-.39-3.48-1.17-.97-.76-1.46-2-1.46-3.72,0-1.94.78-3.37,2.35-4.29.92-.54,2.45-1,4.58-1.38l2.27-.43c1.14-.21,2.03-.44,2.68-.69.65-.25,1.3-.57,1.94-.97v3.76Z"/>
      <path class="cls-3" d="M271.96,638.86c0,3.21-1.16,5.39-3.48,6.52-1.28.61-3.07.92-5.37.92h-12.86v-6.94c-3.51.54-7,1.09-10.45,1.65v14.36h23.74c2.68,0,5.16-.24,7.44-.71,2.29-.47,4.27-1.35,5.95-2.62,1.49-1.11,2.74-2.48,3.73-4.11,1.56-2.46,2.35-5.23,2.35-8.33,0-1.74-.23-3.34-.69-4.78-3.63.47-7.23.95-10.8,1.44.29.76.44,1.62.44,2.6Z"/>
    </g>
    <g>
      <path class="cls-25" d="M165.69,603.45c-1.43.6-4.06,1.48-7.45,1.37-3.52-.11-6.17-1.24-7.56-1.95.31-1.47.75-3.09,1.37-4.81,1.12-3.09,2.51-5.61,3.78-7.56.62-.78,3.09-3.67,7.33-4.35,6.03-.97,10.28,3.38,10.66,3.78-.42,1.73-1.13,3.94-2.41,6.3-1.84,3.42-4.09,5.77-5.73,7.22Z"/>
      <path class="cls-3" d="M183.38,604.4c-.87-.83-3.64-3.24-7.96-3.7-5.2-.55-8.91,2.12-9.74,2.75,1.64-1.45,3.89-3.8,5.73-7.22,1.27-2.37,1.99-4.57,2.41-6.3.84.91,3.15,3.17,6.87,3.9,5.82,1.13,10.21-2.43,10.82-2.95-.29,1.81-1.02,4.82-3.03,7.99-1.72,2.71-3.72,4.49-5.1,5.53Z"/>
      <path class="cls-3" d="M162.25,618.1c-1.99-1.11-6.57-3.29-12.5-2.79-2.78.24-5.06.99-6.68,1.7,1.29-.78,4.63-3.03,6.45-7.41,1.15-2.76,1.23-5.25,1.16-6.71,1.39.7,3.93,1.75,7.26,1.91,3.53.17,6.28-.74,7.75-1.34-.89.83-3.81,3.77-4.29,8.47-.28,2.75.38,4.96.85,6.17Z"/>
      <path class="cls-25" d="M179.39,614.01c-2.92,4.44-7.53,6.97-11.95,6.38-2.34-.31-4.1-1.42-5.19-2.3-.42-.97-1.75-4.37-.58-8.47.97-3.42,3.14-5.43,4.02-6.17.95-.73,3.97-2.84,8.33-2.82,5.22.02,8.61,3.06,9.36,3.77-3.08,1.71-5,4.47-4.78,7.18.05.6.22,1.46.79,2.42Z"/>
      <path class="cls-3" d="M195.48,613.32c-4.28-4.27-9.77-5.4-13.14-3.26-.66.42-2.07,1.5-2.95,3.95-.57-.97-.74-1.82-.79-2.42-.21-2.71,1.7-5.47,4.78-7.18.8.75,3.7,3.27,8.13,3.45,3.05.12,5.36-.92,6.43-1.5-.26.15-2.86,1.72-2.99,4.53-.05,1.05.27,1.91.52,2.43Z"/>
      <path class="cls-25" d="M197.95,606.36c-1.07.57-3.38,1.62-6.43,1.5-4.43-.18-7.34-2.71-8.13-3.45,1.38-1.04,3.38-2.82,5.1-5.53,2.01-3.17,2.74-6.18,3.03-7.99,6.07-3.76,12.04-4.23,14.63-1.58.52.53,1.13,1.43,1.41,2.95-.97,3.23-2.91,7.8-6.96,11.81-.88.87-1.78,1.63-2.65,2.29Z"/>
      <path class="cls-25" d="M209.28,615.75c-1.24.43-3.6,1.07-6.55.7-3.7-.47-6.21-2.28-7.25-3.13-.26-.53-.57-1.38-.52-2.43.13-2.81,2.73-4.38,2.99-4.53.48-.44,3.38-3,7.71-2.66,4.58.36,7.1,3.68,7.46,4.17-2.49.71-4.28,2.59-4.53,4.75-.17,1.42.38,2.58.7,3.14Z"/>
      <path class="cls-3" d="M213.12,607.87c-.59-.75-2.58-3.07-6.04-3.82-4.9-1.06-8.64,1.92-9.12,2.31-.02.02-.04.03-.04.03,0,0,.07-.06.07-.06.07-.06,2.83-2.57,4.46-4.6,2.87-3.58,4.99-9.15,5.11-9.47.09,1.9.78,2.98,1.22,3.52,2.17,2.64,7.26,3.01,12.38.36.03.59.26,7.33-4.51,10.42-1.18.77-2.42,1.14-3.52,1.31Z"/>
      <path class="cls-38" d="M213.12,607.87c2.38.89,4.1.73,5.2.43,5.41-1.47,9.2-9.77,8.55-20.67.7,4.63,1.35,11.56.53,19.88-.65,6.6-2.86,20.42-6.23,20.57-3.32.15-6.52-13.03-8.04-20.2Z"/>
      <path class="cls-5" d="M225.69,610.12c.08,3.43-.19,7.52-1.24,11.99-.32,1.36-.68,2.64-1.08,3.84.53-1.05,1.25-2.6,1.97-4.53,3.04-8.24,2.88-15.48,2.69-21.85-.09-3.04-.38-7.13-1.17-11.94"/>
      <path class="cls-14" d="M209.28,615.75c1.14.76,2.99,1.73,5.34,1.81,4.38.16,8.67-2.78,11.07-7.45-.34,1.83-.92,4.57-1.88,7.84-1.79,6.13-4.28,14.66-7.06,14.77-3.6.13-6.8-13.9-7.47-16.97Z"/>
      <path class="cls-3" d="M221.16,621.03c-1.99-3.79-5.3-6.23-8.7-6.13-.77.02-1.89.19-3.17.85-.32-.56-.86-1.71-.7-3.14.25-2.16,2.04-4.04,4.53-4.75.07.27,1.07,3.87,4.54,5.02,2.84.95,6.13-.16,8.04-2.78-.53,2.31-1.39,5.04-2.83,7.92-.55,1.09-1.12,2.09-1.7,3Z"/>
      <path class="cls-39" d="M221.15,620.88c.12,1.35.13,3.45-.53,5.89-.62,2.28-1.59,3.99-2.33,5.08"/>
      <path class="cls-25" d="M156.93,634.86c-2.09-5.15-6.54-8.5-11.22-8.5-3.22,0-5.61,1.61-6.68,2.43-.23-.57-1.73-4.54.43-8.32,1.13-1.97,2.75-3.01,3.6-3.47,1.74-.75,5.09-1.94,9.43-1.75,4.66.2,8.1,1.88,9.76,2.84.4,1.31,1.29,4.85,0,9.06-1.34,4.4-4.25,6.87-5.32,7.71Z"/>
      <path class="cls-3" d="M179.39,624.7c-.61,1.18-5.61,10.44-15.29,11.19-1.49.12-4.04.11-7.17-1.04,1.07-.83,3.97-3.31,5.32-7.71,1.29-4.21.4-7.74,0-9.06,1.05.78,3.24,2.17,6.22,2.3,6.71.29,10.75-6.09,10.92-6.38.64,1.26,1.71,3.86,1.24,7.02-.13.89-.43,2.09-1.24,3.67Z"/>
      <path class="cls-25" d="M196.35,624.51c-5.94-4.66-9.43-4.79-11.53-4.03-2.89,1.05-5.08,4.5-5.43,4.22-.18-.15.55-1.06.82-1.93,1.17-3.79-.14-7.26-.82-8.76.88-2.45,2.28-3.52,2.95-3.95,3.37-2.14,8.86-1.01,13.14,3.26.5,1.21,1.05,2.93,1.27,5.04.27,2.58-.06,4.72-.4,6.14Z"/>
      <path class="cls-5" d="M207.16,625.72c.96,2.96,2.44,3.65,2.92,3.83,2.94,1.1,7.85-2.03,11.07-8.67-.56,3.53-1.52,8.47-3.21,14.29-2.08,7.16-2.93,7.62-3.42,7.66-1.41.13-3.66-2.9-7.37-17.11Z"/>
      <path class="cls-25" d="M219.75,626.8c-1.05-.66-3.39-1.93-6.63-2.09-3.51-.17-6.13,1.06-7.23,1.66,2.6-1.05,4.42-3.31,4.69-5.89.25-2.39-.92-4.18-1.3-4.72,1.28-.66,2.4-.83,3.17-.85,5.25-.17,8.54,5.7,8.69,5.98-.31.58-.63,1.3-.89,2.15-.45,1.49-.53,2.82-.51,3.77Z"/>
      <path class="cls-3" d="M205.89,626.36c-.43.21-4.23,2.01-7.49.08-.96-.57-1.62-1.31-2.05-1.94.16-.69.28-1.43.37-2.22.38-3.68-.42-6.81-1.24-8.97,1.04.85,3.55,2.66,7.25,3.13,2.95.38,5.31-.26,6.55-.7.38.54,1.55,2.34,1.3,4.72-.27,2.58-2.09,4.84-4.69,5.89Z"/>
      <path class="cls-25" d="M219.65,626.69c-.42,3.37-1.18,7.15-2.52,11.15-.36,1.08-.74,2.11-1.14,3.1"/>
      <path class="cls-14" d="M203.55,638.51c2.74,2.67,5.06,2.77,5.83,2.76,4.65-.1,9.56-5.87,10.27-14.58.54,3.25,1.01,9.02-1.36,15.36-1.07,2.87-2.78,7.42-5.63,7.77-3.07.37-6.85-4.21-9.11-11.31Z"/>
      <path class="cls-3" d="M218.29,638.1c-3.63,4.19-8.58,5.59-11.79,3.85-.63-.34-1.99-1.24-2.95-3.44-.32-1.05-1.03-3.87,0-7.22.93-3.01,2.77-4.84,3.61-5.58,1.13-.45,2.84-.98,4.97-1.02,3.6-.07,6.3,1.27,7.52,1.99.14,1.44.19,3.19,0,5.16-.24,2.52-.8,4.64-1.36,6.26Z"/>
      <path class="cls-3" d="M218.29,637.93c0,1.45-.15,3.46-.87,5.74-.51,1.62-1.16,2.94-1.76,3.96"/>
      <path class="cls-25" d="M203.55,638.51c-.2-.37-3.11-5.71-8.08-5.79-.77-.01-1.88.1-3.18.68.57-.71,1.17-1.54,1.72-2.51,1.38-2.39,2.02-4.67,2.34-6.39.7,1.02,1.48,1.6,2.05,1.94,3.78,2.22,8.46-.54,8.76-.72-.84.74-2.68,2.57-3.61,5.58-1.03,3.35-.32,6.17,0,7.22Z"/>
      <path class="cls-3" d="M192.29,633.4c-1.15.79-3.62,2.24-7.07,2.54-2.61.23-4.72-.29-5.96-.7-.39-.88-.88-2.23-1.05-3.94-.13-1.29-.37-3.92,1.18-6.6.56-.97,2.12-3.34,5.04-4.37,3.95-1.39,8.77.24,11.92,4.18-.31,1.71-.95,4-2.34,6.39-.56.97-1.15,1.8-1.72,2.51Z"/>
      <path class="cls-25" d="M179.26,635.24c-1.82-.12-5.69-.11-9.88,1.97-5.43,2.7-7.94,7.16-8.73,8.73-4.9-1.6-7.39-5.37-6.7-8.01.09-.33.56-1.9,2.97-3.07,1.82.68,4.29,1.28,7.17,1.04,9.58-.8,14.74-10.16,15.29-11.19-.54,1.16-1.47,3.55-1.18,6.6.16,1.66.63,3,1.05,3.94Z"/>
      <path class="cls-3" d="M160.66,645.94c-1.22,2.22-2.64,3.32-3.72,3.9-5.35,2.91-14.15-.28-21.47-8.35.69-.51,3.47-2.69,4.22-6.63.54-2.84-.26-5.12-.65-6.06,1.06-.83,3.46-2.43,6.68-2.43,4.67,0,9.13,3.35,11.22,8.5-2.42,1.17-2.89,2.74-2.97,3.07-.7,2.64,1.8,6.41,6.7,8.01Z"/>
      <path class="cls-5" d="M135.46,641.49c.14,7.9,6.37,13.9,13.04,13.86,5.25-.03,10.24-3.81,12.15-9.41.83.43,1.98,1.2,2.83,2.5,1.81,2.79.98,6.12.08,9.46-.41,1.53-2.08,7.32-7.71,14.07-3,3.59-4.5,5.39-6.54,5.52-3.67.22-6.55-4.3-10.17-10.13-4.07-6.57-10.5-16.94-6.41-23.25.83-1.28,1.9-2.1,2.73-2.61Z"/>
      <path class="cls-38" d="M152.35,675.92c2.62-2.65,5.53-6.41,7.44-11.42.34-.89.62-1.76.86-2.6.06.23.12.47.19.71.12.44.25.86.39,1.25-.47.92-1,1.88-1.61,2.87-1.24,2.02-2.53,3.76-3.77,5.23"/>
      <path class="cls-14" d="M160.66,661.99c3.04-5,6.43-10.2,10.21-15.53,2.81-3.97,5.62-7.71,8.39-11.21,3.64,15.29,1.01,26.07-1.11,31.86-1.31,3.58-3.58,9.8-7.13,10.04-3.62.24-7.68-5.81-10.37-15.15Z"/>
      <path class="cls-3" d="M179.77,656.03c-1.75,5.87-6.63,9.7-11.59,9.55-4.09-.12-6.87-2.9-7.62-3.71,3.56-5.68,4.47-11.41,1.98-14.45-.43-.52-1.02-1.04-1.87-1.48.78-1.56,2.91-5.32,7.41-8.01,4.82-2.88,9.48-2.8,11.19-2.69.91,2.18,2.14,5.85,2.22,10.53.08,4.49-.92,8.07-1.71,10.26Z"/>
      <path class="cls-5" d="M179.77,656.03c.84-2.02,1.77-4.08,2.8-6.19,3.06-6.27,6.41-11.74,9.72-16.44,1.97,11.11.83,19.7-.53,25.37-.82,3.43-2.52,10.51-5.16,10.62-3.33.14-6.22-10.92-6.84-13.36Z"/>
      <path class="cls-25" d="M191.68,646.51c-1.43.25-3.76.86-6.15,2.49-3.55,2.4-5.15,5.61-5.76,7.03,1.05-2.98,2.41-8.29,1.3-14.66-.42-2.39-1.1-4.45-1.81-6.13,1.24.4,3.22.87,5.65.7,3.58-.25,6.17-1.73,7.38-2.54-.52.62-3.07,3.74-2.6,8.09.26,2.43,1.35,4.16,1.98,5.02Z"/>
      <path class="cls-38" d="M191.6,646.48c.29.52.58,1.13.84,1.84.45,1.24.63,2.37.7,3.25-.05.49-.12,1.15-.24,1.92-.08.56-.29,1.94-.72,3.8-.14.6-.61,2.66-.7,2.64-.13-.02.85-3.57.76-7.94-.05-2.33-.37-4.24-.64-5.52Z"/>
      <path class="cls-14" d="M191.6,646.48c1.94-1.03,4.03-2.26,6.21-3.73,2.13-1.44,4.01-2.89,5.66-4.27.98,2.65,2.69,8.44.79,15.05-.37,1.31-2.16,7.54-4.84,7.66-3.35.15-6.36-9.37-7.82-14.71Z"/>
      <path class="cls-3" d="M200.81,651.18c-.35-.67-1.52-2.74-4.08-3.94-2.23-1.05-4.27-.85-5.06-.73-.63-.86-1.72-2.59-1.98-5.02-.47-4.35,2.07-7.47,2.6-8.09,1.3-.58,2.41-.69,3.18-.68,4.97.08,7.88,5.41,8.08,5.79.39,1.11.88,2.99.65,5.3-.38,3.92-2.56,6.49-3.39,7.37Z"/>
      <path class="cls-38" d="M132.08,652.96c.83.89,1.73,1.96,2.59,3.24,1.35,1.98,2.24,3.87,2.84,5.43.36,1.25.81,2.6,1.38,4,1.2,2.94,2.61,5.39,3.94,7.36-1.52-1.9-2.69-3.56-3.51-4.77-2.37-3.5-4.98-7.41-6.63-12.91-.29-.98-.49-1.8-.61-2.34Z"/>
      <path class="cls-5" d="M200.81,651.18c1.87-.32,4.19-.95,6.64-2.18,6.36-3.2,9.56-8.46,10.84-10.89-.13,3.02-.53,7.62-1.86,13.08-1.36,5.6-3.51,14.44-6.85,14.71-4.33.35-8.55-13.96-8.77-14.71Z"/>
      <path class="cls-25" d="M214.74,652.49c-3.83,2.6-8.23,3.18-11.34,1.3-.71-.43-1.71-1.21-2.58-2.61.66-.72,1.35-1.63,1.93-2.76,2.12-4.17,1.22-8.38.81-9.91,1.18,1.92,2.58,2.72,3.32,3.06,3.4,1.55,8.01.2,11.42-3.47-1.16,2.59-2.31,5.86-2.99,9.73-.29,1.66-.47,3.22-.56,4.66Z"/>
      <path class="cls-5" d="M191.47,646.36c.37,1.58.68,3.48.77,5.64.15,3.84-.47,7.06-1.12,9.35"/>
      <path class="cls-25" d="M160.55,661.99c-1.12-.85-7.9-5.8-16.13-3.82-3.13.76-5.45,2.27-6.91,3.46-5.51-5.64-7.54-12.44-5.14-16.91.5-.93,1.39-2.14,3.09-3.23,7.32,8.07,16.12,11.26,21.47,8.35,1.08-.59,2.51-1.69,3.72-3.9,1.55.8,2.38,1.78,2.83,2.5,2.16,3.41,1.03,8.87-2.94,13.55Z"/>
      <path class="cls-25" d="M225.69,610.12c-1.91,2.62-5.2,3.72-8.04,2.78-3.47-1.16-4.47-4.76-4.54-5.02,1.1-.17,2.34-.54,3.52-1.31,4.77-3.09,4.54-9.83,4.51-10.42.65-.37,1.34-.86,2.03-1.49,2.62-2.43,3.42-5.51,3.69-7.02.51,3.87.77,8.67.23,14.12-.3,3.1-.82,5.9-1.41,8.37Z"/>
      <path class="cls-39" d="M180.44,658.53c-.13-.44-.25-.9-.38-1.36-.1-.38-.2-.76-.3-1.14.09.96.16,2.38,0,4.09-.18,1.99-.58,3.43-.51,3.45.08.02.55-1.48.88-3.16.15-.78.25-1.43.3-1.88Z"/>
      <path class="cls-38" d="M218.29,638.1c-.92,1.88-1.92,4.34-2.63,7.33-.64,2.7-.87,5.11-.92,7.06.02.77.01,1.59-.04,2.45-.13,2.03-.46,3.82-.86,5.34-.02.09,1.66-4.95,3.07-11.29.43-1.95.78-3.7,1.03-5.86.24-2.03.32-3.76.35-5.02Z"/>
      <path class="cls-39" d="M201.6,653.66c.17.64.4,1.34.68,2.08.21.56.44,1.07.66,1.55-.14.45-.37,1.01-.74,1.61-.43.7-.9,1.21-1.27,1.56.33-.71.73-1.78.89-3.13.18-1.56-.02-2.84-.22-3.66Z"/>
      <ellipse class="cls-39" cx="161.36" cy="596.23" rx="3.03" ry="4.77"/>
      <ellipse class="cls-39" cx="154.7" cy="610.12" rx="2.83" ry="3.42"/>
      <ellipse class="cls-39" cx="186.37" cy="628.07" rx="2.98" ry="3.77"/>
      <ellipse class="cls-39" cx="166.47" cy="629.61" rx="2.84" ry="2.98"/>
      <ellipse class="cls-39" cx="162.92" cy="638.63" rx="2.84" ry="1.49" transform="translate(-297.49 167.02) rotate(-30)"/>
      <ellipse class="cls-39" cx="145.37" cy="639.8" rx="3.48" ry="4.91"/>
      <ellipse class="cls-8" cx="186.48" cy="649.91" rx="3.17" ry="4.45" transform="translate(-55.93 18.73) rotate(-5)"/>
      <ellipse class="cls-8" cx="149.3" cy="659.38" rx="6.53" ry="3.67" transform="translate(-516.99 773.96) rotate(-87)"/>
      <ellipse class="cls-39" cx="171.39" cy="652.78" rx="4.18" ry="5.44" transform="translate(-22.68 6.38) rotate(-2)"/>
      <ellipse class="cls-8" cx="197.62" cy="645.44" rx="3.04" ry="5.64" transform="translate(-22.41 7.29) rotate(-2)"/>
      <ellipse class="cls-8" cx="208.62" cy="654.35" rx="3.04" ry="5.8"/>
      <ellipse class="cls-39" cx="167.63" cy="608.83" rx="4.18" ry="2.84" transform="translate(-461.06 668.2) rotate(-80)"/>
      <ellipse class="cls-39" cx="188.16" cy="608.35" rx=".62" ry="4.13" transform="translate(-443.62 688.02) rotate(-80)"/>
      <ellipse class="cls-39" cx="187.65" cy="614.9" rx="2.98" ry="3.45" transform="translate(-198.99 101.26) rotate(-20)"/>
      <ellipse class="cls-39" cx="150.68" cy="621.75" rx="4.02" ry="3.45" transform="translate(-105.67 35.61) rotate(-10)"/>
      <ellipse class="cls-39" cx="179.92" cy="597.17" rx="1.28" ry="4.13" transform="translate(-430.66 724.35) rotate(-85)"/>
      <ellipse class="cls-39" cx="199.32" cy="629.83" rx="1.9" ry="1.49" transform="translate(-445.79 487.52) rotate(-60)"/>
      <ellipse class="cls-39" cx="213" cy="632.72" rx="3.65" ry="3.2" transform="translate(-454.42 616.47) rotate(-70)"/>
      <ellipse class="cls-39" cx="196.35" cy="597.75" rx="5.3" ry="2.98" transform="translate(-428.37 523.08) rotate(-65)"/>
      <ellipse class="cls-39" cx="215.66" cy="620.85" rx="2.62" ry="2.87" transform="translate(-433.21 725.42) rotate(-80)"/>
      <circle class="cls-39" cx="202.78" cy="621.53" r="2.57"/>
      <ellipse class="cls-39" cx="202.63" cy="609.4" rx="3.7" ry="3.44" transform="translate(-426.44 480.18) rotate(-60)"/>
      <ellipse class="cls-39" cx="222.43" cy="606.1" rx="4.24" ry="2.63" transform="translate(-400.75 774.86) rotate(-85)"/>
      <ellipse class="cls-39" cx="211.39" cy="601.27" rx="2.99" ry="4.02" transform="translate(-425.92 594.27) rotate(-70)"/>
      <ellipse class="cls-39" cx="216.26" cy="614.01" rx=".95" ry="4.13" transform="translate(-434.69 607.22) rotate(-70)"/>
      <path class="cls-39" d="M152.96,658.31c-.17-3.02-1.54-5.37-3.32-5.46-1.78-.09-3.38,2.08-3.87,5.05,2.62-.41,5.07-.14,7.19.41Z"/>
      <path class="cls-39" d="M188.92,647.26c-.67-1.16-1.72-1.88-2.82-1.78-1.75.15-2.99,2.26-2.77,4.71.02.19.04.37.07.55.62-.6,1.32-1.19,2.13-1.73,1.18-.8,2.35-1.35,3.4-1.74Z"/>
      <path class="cls-39" d="M197.43,639.81c-1.68.06-2.95,2.63-2.84,5.74.01.35.04.69.09,1.02.64.12,1.34.33,2.06.67,1.4.66,2.38,1.57,3.04,2.37.6-1.05.95-2.58.89-4.27-.11-3.11-1.56-5.59-3.24-5.53Z"/>
      <path class="cls-39" d="M211.66,654.11c-.07-3.09-1.4-5.56-3.04-5.56s-3.04,2.6-3.04,5.8c0,.11,0,.22,0,.32,1.87.44,3.99.23,6.07-.57Z"/>
      <g>
        <circle class="cls-27" cx="210.53" cy="586.85" r="5.38"/>
        <path class="cls-1" d="M210.79,614.47l.73-14.65-10.06-3.66-8.85,11.69c2.1,1.79,4.95,3.71,8.63,5.03,3.55,1.27,6.86,1.61,9.56,1.59Z"/>
        <path class="cls-16" d="M201.46,596.16c-.15.37,2.23,1.85,4.69,2.74,2.47.9,5.25,1.31,5.38.92.13-.41-2.78-1.73-4.82-2.47-2.03-.74-5.09-1.59-5.25-1.19Z"/>
        <path class="cls-29" d="M210.33,599.39l.55-4.44-5.75-2.09-2.44,3.75c.92.61,2.18,1.33,3.78,1.9,1.48.53,2.82.77,3.86.88Z"/>
        <path class="cls-18" d="M213.02,595.72c-.6.6-1.77.25-5.34-1.05s-4.69-1.78-4.76-2.63c-.04-.39.16-.75.36-1l10.1,3.68c-.01.33-.08.72-.36,1Z"/>
        <path class="cls-17" d="M213.39,594.72l-1.59-2.64c-.75-.04-1.83-.18-3.04-.63-1.12-.42-1.97-.96-2.55-1.4-.97.33-1.94.66-2.92,1,1.36.75,3,1.53,4.91,2.23s3.67,1.15,5.19,1.45Z"/>
      </g>
      <g>
        <circle class="cls-28" cx="148.73" cy="610.93" r="5.91"/>
        <path class="cls-37" d="M172.18,630.24l-11.82-10.97-10.2,5.89,3.59,15.73c2.99-.51,6.63-1.55,10.33-3.71,3.58-2.09,6.21-4.64,8.1-6.93Z"/>
        <path class="cls-2" d="M150.16,625.15c.21.39,3.13-.57,5.62-2.01,2.5-1.44,4.82-3.5,4.58-3.88-.25-.4-3.42,1.12-5.49,2.31-2.06,1.19-4.94,3.16-4.72,3.58Z"/>
        <path class="cls-20" d="M159.14,619.96l-3.36-3.6-5.83,3.36,1.44,4.71c1.16-.34,2.66-.9,4.27-1.84,1.49-.88,2.64-1.83,3.47-2.63Z"/>
        <path class="cls-19" d="M157.96,615.1c.08.93-1.04,1.67-4.66,3.76s-4.81,2.69-5.58,2.16c-.36-.25-.51-.66-.59-1.02l10.24-5.91c.27.24.55.58.59,1.02Z"/>
        <path class="cls-15" d="M157.38,614.09l-3.35-.52c-.57.61-1.45,1.41-2.68,2.11-1.15.65-2.21.98-2.99,1.16-.41,1.05-.81,2.11-1.22,3.16,1.59-.62,3.41-1.44,5.35-2.56s3.56-2.28,4.89-3.35Z"/>
      </g>
    </g>
  </g>
</svg>
