<?xml version="1.0" encoding="UTF-8"?>
<svg id="_レイヤー_2" data-name="レイヤー 2" xmlns="http://www.w3.org/2000/svg" xmlns:xlink="http://www.w3.org/1999/xlink" width="1757.85" height="396.95" viewBox="0 0 1757.85 396.95">
  <defs>
    <style>
      .cls-1 {
        fill: #ff7be5;
      }

      .cls-2 {
        fill: #9a5bbb;
      }

      .cls-3 {
        fill: #4ce700;
        stroke: #000;
        stroke-miterlimit: 10;
        stroke-width: 2px;
      }

      .cls-4 {
        fill: url(#_新規グラデーションスウォッチ_1);
      }

      .cls-5 {
        fill: url(#_名称未設定グラデーション_147-3);
      }

      .cls-6 {
        fill: url(#_名称未設定グラデーション_147-2);
      }

      .cls-7 {
        fill: url(#_名称未設定グラデーション_103-3);
      }

      .cls-8 {
        fill: url(#_名称未設定グラデーション_103-2);
      }

      .cls-9 {
        fill: #276dc2;
      }

      .cls-10 {
        fill: #8747aa;
      }

      .cls-11 {
        fill: #165caa;
      }

      .cls-12 {
        fill: url(#_名称未設定グラデーション_147);
      }

      .cls-13 {
        fill: url(#_名称未設定グラデーション_103);
      }

      .cls-14 {
        fill: url(#_名称未設定グラデーション_131);
      }

      .cls-15 {
        fill: #ffd43b;
      }

      .cls-16 {
        fill: #c27be5;
      }

      .cls-17 {
        fill: #e872dc;
      }

      .cls-18 {
        fill: #c55cbc;
      }

      .cls-19 {
        fill: #ffe873;
      }

      .cls-20 {
        fill: #ac6dd1;
      }
    </style>
    <linearGradient id="_名称未設定グラデーション_147" data-name="名称未設定グラデーション 147" x1="319.64" y1="43.11" x2="334.84" y2="1.35" gradientUnits="userSpaceOnUse">
      <stop offset="0" stop-color="#165caa"/>
      <stop offset="1" stop-color="#276dc2"/>
    </linearGradient>
    <linearGradient id="_名称未設定グラデーション_131" data-name="名称未設定グラデーション 131" x1="309.91" y1="70.21" x2="316.78" y2="51.35" gradientUnits="userSpaceOnUse">
      <stop offset="0" stop-color="#165caa"/>
      <stop offset="1" stop-color="#276dc2"/>
    </linearGradient>
    <linearGradient id="_名称未設定グラデーション_147-2" data-name="名称未設定グラデーション 147" x1="315.47" y1="54.57" x2="318.17" y2="47.16" xlink:href="#_名称未設定グラデーション_147"/>
    <linearGradient id="_名称未設定グラデーション_147-3" data-name="名称未設定グラデーション 147" x1="317.58" y1="48.77" x2="320.9" y2="39.64" xlink:href="#_名称未設定グラデーション_147"/>
    <linearGradient id="_名称未設定グラデーション_103" data-name="名称未設定グラデーション 103" x1="-105.36" y1="-363.86" x2="-88.64" y2="-409.8" gradientTransform="translate(430.42 296.1) rotate(-50)" gradientUnits="userSpaceOnUse">
      <stop offset="0" stop-color="#306998"/>
      <stop offset="1" stop-color="#3c78a9"/>
    </linearGradient>
    <linearGradient id="_名称未設定グラデーション_103-2" data-name="名称未設定グラデーション 103" x1="-116.07" y1="-334.05" x2="-108.52" y2="-354.8" xlink:href="#_名称未設定グラデーション_103"/>
    <linearGradient id="_名称未設定グラデーション_103-3" data-name="名称未設定グラデーション 103" x1="-109.95" y1="-351.26" x2="-106.99" y2="-359.4" xlink:href="#_名称未設定グラデーション_103"/>
    <linearGradient id="_新規グラデーションスウォッチ_1" data-name="新規グラデーションスウォッチ 1" x1="-107.63" y1="-357.63" x2="-103.98" y2="-367.67" gradientTransform="translate(430.42 296.1) rotate(-50)" gradientUnits="userSpaceOnUse">
      <stop offset="0" stop-color="#306998"/>
      <stop offset="1" stop-color="#3c78a9"/>
    </linearGradient>
  </defs>
  <g id="_レイヤー_1-2" data-name="レイヤー 1">
    <g>
      <path class="cls-1" d="M618.46,208.65c-5.63-8.69-13.98-15.04-25.05-19.04,7.25-3.71,12.73-7.81,16.45-12.3,6.66-8.01,9.99-18.6,9.99-31.79s-3.33-23.78-9.99-32.96c-11.07-14.94-29.87-22.61-56.41-23h-105.18v215.92h98.13c11.07,0,21.32-.97,30.77-2.93,9.45-1.95,17.65-5.57,24.6-10.84,6.17-4.59,11.31-10.25,15.42-16.99,6.46-10.16,9.7-21.63,9.7-34.42s-2.82-22.95-8.45-31.64ZM491.47,127.06h47.59c10.48,0,19.1,1.12,25.85,3.37,7.83,3.22,11.75,9.86,11.75,19.92,0,9.08-2.94,15.38-8.81,18.9-5.97,3.61-13.71,5.42-23.21,5.42h-53.18v-47.61ZM566.83,264.17c-5.29,2.54-12.68,3.81-22.18,3.81h-53.18v-57.57h53.91c9.4.1,16.7,1.32,21.89,3.66,9.3,4.2,13.95,11.92,13.95,23.14,0,13.28-4.8,22.27-14.4,26.95Z"/>
      <path class="cls-1" d="M794.37,294.49c-1.37-1.95-2.2-5.66-2.5-11.13-.2-7.23-.29-13.38-.29-18.46v-73.24c0-19.24-6.81-32.32-20.42-39.26-13.61-6.93-29.18-10.4-46.71-10.4-26.93,0-45.93,7.03-57,21.09-6.95,8.99-10.87,20.46-11.75,34.42h40.4c.98-6.15,2.94-11.03,5.88-14.65,4.11-4.88,11.11-7.32,21.01-7.32,8.81,0,15.5,1.25,20.05,3.74s6.83,7.01,6.83,13.55c0,5.37-2.99,9.33-8.96,11.87-3.33,1.46-8.86,2.69-16.6,3.66l-14.25,1.76c-16.16,2.05-28.4,5.47-36.72,10.25-15.18,8.79-22.77,23-22.77,42.63,0,15.14,4.72,26.83,14.18,35.08,9.45,8.25,21.42,12.38,35.92,12.38,11.36,0,21.54-2.59,30.55-7.76,7.54-4.39,14.2-9.72,19.98-15.97.29,3.61.68,6.84,1.18,9.67.49,2.83,1.37,5.86,2.64,9.08h45.54v-6.15c-2.74-1.27-4.8-2.88-6.17-4.83ZM749.71,243.37c-.29,13.97-4.24,23.58-11.83,28.86-7.59,5.27-15.89,7.91-24.9,7.91-5.68,0-10.48-1.61-14.4-4.83-4.02-3.12-6.02-8.25-6.02-15.38,0-8.01,3.23-13.92,9.69-17.72,3.82-2.25,10.14-4.15,18.95-5.71l9.4-1.76c4.7-.88,8.4-1.83,11.09-2.86,2.69-1.03,5.36-2.37,8.01-4.03v15.53Z"/>
      <path class="cls-1" d="M939.06,153.14c12.53,8.01,19.73,21.78,21.59,41.31h-41.87c-.59-5.37-2.11-9.62-4.55-12.74-4.6-5.66-12.44-8.5-23.5-8.5-9.11,0-15.6,1.42-19.46,4.25-3.87,2.83-5.8,6.15-5.8,9.96,0,4.79,2.06,8.25,6.17,10.4,4.11,2.25,18.66,6.1,43.63,11.57,16.65,3.91,29.13,9.81,37.46,17.72,8.23,8.01,12.34,18.02,12.34,30.03,0,15.82-5.9,28.74-17.7,38.75s-30.04,15.01-54.72,15.01-43.75-5.3-55.75-15.89-17.99-24.1-17.99-40.5h42.45c.88,7.42,2.79,12.7,5.73,15.82,5.19,5.57,14.79,8.35,28.79,8.35,8.23,0,14.76-1.22,19.61-3.66,4.85-2.44,7.27-6.1,7.27-10.99s-1.96-8.25-5.88-10.69c-3.92-2.44-18.46-6.64-43.63-12.6-18.12-4.49-30.9-10.11-38.34-16.85-7.44-6.64-11.16-16.21-11.16-28.71,0-14.74,5.8-27.42,17.41-38.01,11.61-10.59,27.93-15.89,48.99-15.89s36.28,3.96,48.92,11.87Z"/>
      <path class="cls-1" d="M1129,294.49c-1.37-1.95-2.2-5.66-2.5-11.13-.2-7.23-.29-13.38-.29-18.46v-73.24c0-19.24-6.81-32.32-20.42-39.26-13.61-6.93-29.18-10.4-46.71-10.4-26.93,0-45.93,7.03-57,21.09-6.95,8.99-10.87,20.46-11.75,34.42h40.4c.98-6.15,2.94-11.03,5.88-14.65,4.11-4.88,11.11-7.32,21.01-7.32,8.81,0,15.5,1.25,20.05,3.74s6.83,7.01,6.83,13.55c0,5.37-2.99,9.33-8.96,11.87-3.33,1.46-8.86,2.69-16.6,3.66l-14.25,1.76c-16.16,2.05-28.4,5.47-36.72,10.25-15.18,8.79-22.77,23-22.77,42.63,0,15.14,4.72,26.83,14.17,35.08,9.45,8.25,21.42,12.38,35.92,12.38,11.36,0,21.54-2.59,30.55-7.76,7.54-4.39,14.2-9.72,19.98-15.97.29,3.61.68,6.84,1.18,9.67.49,2.83,1.37,5.86,2.64,9.08h45.54v-6.15c-2.74-1.27-4.8-2.88-6.17-4.83ZM1084.34,243.37c-.29,13.97-4.24,23.58-11.83,28.86-7.59,5.27-15.89,7.91-24.9,7.91-5.68,0-10.48-1.61-14.4-4.83-4.02-3.12-6.02-8.25-6.02-15.38,0-8.01,3.23-13.92,9.7-17.72,3.82-2.25,10.14-4.15,18.95-5.71l9.4-1.76c4.7-.88,8.4-1.83,11.09-2.86,2.69-1.03,5.36-2.37,8.01-4.03v15.53Z"/>
      <rect class="cls-1" x="1164.25" y="89.56" width="41.87" height="215.92"/>
      <path class="cls-1" d="M1403.1,289.37c-16.16,14.75-36.82,22.12-61.99,22.12-31.14,0-55.62-9.96-73.45-29.88-17.82-20.02-26.73-47.46-26.73-82.32,0-37.69,10.14-66.75,30.41-87.16,17.63-17.77,40.05-26.66,67.28-26.66,36.43,0,63.07,11.92,79.91,35.74,9.3,13.38,14.3,26.81,14.98,40.28h-45.24c-2.94-10.35-6.71-18.16-11.31-23.44-8.23-9.38-20.42-14.06-36.58-14.06s-29.43,6.62-38.93,19.85c-9.5,13.23-14.25,31.96-14.25,56.18s5.02,42.36,15.06,54.42c10.04,12.06,22.79,18.09,38.27,18.09s27.96-5.17,36.28-15.53c4.6-5.57,8.42-13.92,11.46-25.05h44.8c-3.92,23.54-13.91,42.68-29.97,57.42Z"/>
      <path class="cls-1" d="M1602,205.58c-1.86-12.5-5.93-23.49-12.19-32.96-6.95-10.74-15.77-18.6-26.44-23.58-10.67-4.98-22.67-7.47-35.99-7.47-22.43,0-40.67,7.37-54.72,22.12-14.05,14.75-21.08,35.94-21.08,63.57,0,29.49,7.79,50.78,23.36,63.87,15.57,13.09,33.54,19.63,53.91,19.63,24.68,0,43.87-7.76,57.58-23.29,8.81-9.76,13.76-19.38,14.84-28.86h-42.75c-2.25,4.69-4.85,8.35-7.79,10.99-5.39,4.88-12.39,7.32-21.01,7.32-8.13,0-15.08-2-20.86-6.01-9.5-6.45-14.54-17.67-15.13-33.69h109.58c.19-13.77-.25-24.32-1.32-31.64ZM1494.76,209.68c1.37-10.35,4.72-18.55,10.06-24.61,5.34-6.05,12.85-9.08,22.55-9.08,8.91,0,16.38,2.86,22.4,8.57,6.02,5.71,9.38,14.09,10.06,25.12h-65.07Z"/>
      <rect class="cls-1" x="1632.4" y="89.56" width="41.87" height="215.92"/>
      <rect class="cls-1" x="1715.98" y="89.56" width="41.87" height="215.92"/>
      <path class="cls-16" d="M1757.85,193.77c-13.86-1.12-27.82-2.2-41.87-3.23v114.94h41.87v-111.71Z"/>
      <path class="cls-16" d="M1632.4,185.06v120.42h41.87v-117.84c-13.87-.91-27.83-1.77-41.87-2.58Z"/>
      <path class="cls-16" d="M1549.77,184.56c6.02,5.71,9.38,14.09,10.06,25.12h-65.07c1.37-10.35,4.72-18.55,10.06-24.61,2.05-2.33,4.43-4.2,7.13-5.64-16.42-.58-32.95-1.1-49.59-1.54-7.18,13.17-10.79,29.61-10.79,49.36,0,29.49,7.79,50.78,23.36,63.87,15.57,13.09,33.54,19.63,53.91,19.63,24.68,0,43.87-7.76,57.58-23.29,8.81-9.76,13.76-19.38,14.84-28.86h-42.75c-2.25,4.69-4.85,8.35-7.79,10.99-5.39,4.88-12.39,7.32-21.01,7.32-8.13,0-15.08-2-20.86-6.01-9.5-6.45-14.54-17.67-15.13-33.69h109.58c.19-13.77-.25-24.32-1.32-31.64-1.21-8.16-3.39-15.66-6.48-22.53-16.79-.86-33.69-1.64-50.71-2.35,1.75,1.1,3.41,2.38,4.96,3.85Z"/>
      <path class="cls-16" d="M1376.81,256.99c-8.32,10.35-20.42,15.53-36.28,15.53s-28.23-6.03-38.27-18.09c-10.04-12.06-15.06-30.2-15.06-54.42,0-8.69.62-16.66,1.85-23.94-4.63.03-9.27.05-13.91.09-10.99.09-21.93.21-32.84.37-.91,7.2-1.37,14.78-1.37,22.75,0,34.86,8.91,62.31,26.73,82.32,17.82,19.92,42.31,29.88,73.45,29.88,25.17,0,45.83-7.37,61.99-22.12,16.06-14.74,26.05-33.89,29.97-57.42h-44.8c-3.04,11.13-6.86,19.48-11.46,25.05Z"/>
      <path class="cls-16" d="M1164.25,178.18v127.3h41.87v-128.32c-14.02.29-27.98.63-41.87,1.03Z"/>
      <g>
        <path class="cls-16" d="M1084.49,192.83c0,5.37-2.99,9.33-8.96,11.87-3.33,1.46-8.86,2.69-16.6,3.66l-14.25,1.76c-16.16,2.05-28.4,5.47-36.72,10.25-15.18,8.79-22.77,23-22.77,42.63,0,15.14,4.72,26.83,14.17,35.08,9.45,8.25,21.42,12.38,35.92,12.38,11.36,0,21.54-2.59,30.55-7.76,7.54-4.39,14.2-9.72,19.98-15.97.29,3.61.68,6.84,1.18,9.67.49,2.83,1.37,5.86,2.64,9.08h45.54v-6.15c-2.74-1.27-4.8-2.88-6.17-4.83-1.37-1.95-2.2-5.66-2.5-11.13-.2-7.23-.29-13.38-.29-18.46v-73.24c0-4.4-.37-8.46-1.09-12.22-15.02.54-29.97,1.13-44.83,1.78,2.79,2.64,4.2,6.5,4.2,11.62ZM1084.34,243.37c-.29,13.97-4.24,23.58-11.83,28.86-7.59,5.27-15.89,7.91-24.9,7.91-5.68,0-10.48-1.61-14.4-4.83-4.02-3.12-6.02-8.25-6.02-15.38,0-8.01,3.23-13.92,9.7-17.72,3.82-2.25,10.14-4.15,18.95-5.71l9.4-1.76c4.7-.88,8.4-1.83,11.09-2.86,2.69-1.03,5.36-2.37,8.01-4.03v15.53Z"/>
        <path class="cls-16" d="M1036.25,183.33c-14.86.77-29.65,1.6-44.35,2.48-.79,3.69-1.32,7.58-1.58,11.71h40.4c.94-5.9,2.79-10.62,5.53-14.19Z"/>
      </g>
      <g>
        <path class="cls-16" d="M915.26,209.39c-24.97-5.47-39.52-9.32-43.63-11.57-1.59-.83-2.87-1.87-3.84-3.09-14.74,1.23-29.39,2.5-43.94,3.83.62,10.86,4.3,19.31,11.06,25.33,7.44,6.74,20.22,12.36,38.34,16.85,25.17,5.96,39.71,10.16,43.63,12.6,3.92,2.44,5.88,6.01,5.88,10.69s-2.42,8.55-7.27,10.99c-4.85,2.44-11.38,3.66-19.61,3.66-14.01,0-23.6-2.78-28.79-8.35-2.94-3.12-4.85-8.4-5.73-15.82h-42.45c0,16.41,6,29.91,17.99,40.5s30.58,15.89,55.75,15.89,42.92-5.01,54.72-15.01,17.7-22.92,17.7-38.75c0-12.01-4.11-22.02-12.34-30.03-8.32-7.91-20.81-13.82-37.46-17.72Z"/>
        <path class="cls-16" d="M918.79,194.45h41.87c-.22-2.28-.51-4.47-.88-6.6-13.94.92-27.8,1.9-41.58,2.91.25,1.16.45,2.39.59,3.68Z"/>
      </g>
      <path class="cls-16" d="M707.84,210.42c-15.06,2.08-26.57,5.4-34.51,9.96-15.18,8.79-22.77,23-22.77,42.63,0,15.14,4.72,26.83,14.18,35.08,9.45,8.25,21.42,12.38,35.92,12.38,11.36,0,21.54-2.59,30.55-7.76,7.54-4.39,14.2-9.72,19.98-15.97.29,3.61.68,6.84,1.18,9.67.49,2.83,1.37,5.86,2.64,9.08h45.54v-6.15c-2.74-1.27-4.8-2.88-6.17-4.83-1.37-1.95-2.2-5.66-2.5-11.13-.2-7.23-.29-13.38-.29-18.46v-63.3c-28.29,2.76-56.21,5.7-83.74,8.82ZM749.71,243.37c-.29,13.97-4.24,23.58-11.83,28.86-7.59,5.27-15.89,7.91-24.9,7.91-5.68,0-10.48-1.61-14.4-4.83-4.02-3.12-6.02-8.25-6.02-15.38,0-8.01,3.23-13.92,9.69-17.72,3.82-2.25,10.14-4.15,18.95-5.71l9.4-1.76c4.7-.88,8.4-1.83,11.09-2.86,2.69-1.03,5.36-2.37,8.01-4.03v15.53Z"/>
      <path class="cls-16" d="M581.23,237.22c0,13.28-4.8,22.27-14.4,26.95-5.29,2.54-12.68,3.81-22.18,3.81h-53.18v-28.7c-14.53,2.24-28.92,4.51-43.19,6.82v59.37h98.13c11.07,0,21.32-.97,30.77-2.93,9.45-1.95,17.65-5.57,24.6-10.84,6.17-4.59,11.31-10.25,15.42-16.99,6.46-10.16,9.7-21.63,9.7-34.42,0-7.21-.96-13.79-2.86-19.75-15,1.93-29.88,3.91-44.63,5.94,1.2,3.13,1.81,6.7,1.81,10.73Z"/>
    </g>
    <g>
      <path class="cls-1" d="M141.85,90.86c-5.9,2.47-16.79,6.12-30.79,5.68-14.54-.46-25.51-5.11-31.26-8.05,1.29-6.06,3.1-12.76,5.68-19.89,4.62-12.77,10.36-23.2,15.63-31.26,2.58-3.23,12.76-15.17,30.31-18,24.94-4.02,42.49,13.98,44.05,15.63-1.72,7.16-4.68,16.27-9.95,26.05-7.61,14.13-16.92,23.85-23.68,29.84Z"/>
      <path class="cls-16" d="M215.01,94.78c-3.6-3.42-15.04-13.39-32.9-15.29-21.5-2.28-36.85,8.78-40.26,11.37,6.76-5.99,16.07-15.71,23.68-29.84,5.27-9.78,8.22-18.89,9.95-26.05,3.46,3.76,13.04,13.1,28.42,16.1,24.05,4.69,42.21-10.06,44.74-12.18-1.21,7.48-4.21,19.93-12.54,33.03-7.13,11.22-15.4,18.56-21.09,22.87Z"/>
      <path class="cls-16" d="M127.64,151.4c-8.24-4.6-27.16-13.62-51.68-11.54-11.51.97-20.91,4.11-27.64,7.05,5.32-3.21,19.14-12.53,26.68-30.65,4.75-11.42,5.09-21.71,4.8-27.75,5.77,2.9,16.23,7.24,30.01,7.9,14.6.71,25.98-3.04,32.04-5.53-3.67,3.44-15.73,15.6-17.74,35.03-1.17,11.36,1.58,20.49,3.53,25.5Z"/>
      <path class="cls-1" d="M198.51,134.51c-12.06,18.35-31.12,28.81-49.4,26.38-9.66-1.28-16.96-5.88-21.46-9.49-1.75-4.03-7.24-18.05-2.4-35.02,4.03-14.12,12.97-22.46,16.61-25.51,3.93-3,16.42-11.73,34.46-11.68,21.56.07,35.59,12.65,38.71,15.59-12.74,7.08-20.66,18.5-19.77,29.7.2,2.49.91,6.02,3.26,10.02Z"/>
      <path class="cls-16" d="M265.02,131.66c-17.68-17.64-40.39-22.31-54.32-13.46-2.75,1.74-8.57,6.18-12.19,16.31-2.34-4-3.06-7.53-3.26-10.02-.89-11.21,7.02-22.62,19.77-29.7,3.3,3.08,15.31,13.54,33.63,14.28,12.61.51,22.17-3.82,26.59-6.19-1.08.63-11.84,7.13-12.38,18.73-.2,4.35,1.1,7.88,2.17,10.06Z"/>
      <path class="cls-1" d="M275.24,102.87c-4.42,2.37-13.98,6.7-26.59,6.19-18.32-.74-30.33-11.2-33.63-14.28,5.7-4.31,13.96-11.65,21.09-22.87,8.32-13.1,11.32-25.54,12.54-33.03,25.11-15.53,49.77-17.5,60.5-6.52,2.16,2.21,4.69,5.89,5.81,12.19-4.02,13.35-12.03,32.26-28.77,48.84-3.65,3.61-7.34,6.75-10.94,9.46Z"/>
      <path class="cls-1" d="M322.09,141.71c-5.12,1.79-14.9,4.44-27.09,2.88-15.32-1.96-25.69-9.44-29.97-12.94-1.07-2.18-2.37-5.71-2.17-10.06.54-11.6,11.3-18.1,12.38-18.73,1.98-1.81,13.97-12.42,31.86-11.01,18.92,1.48,29.35,15.21,30.84,17.25-10.29,2.95-17.68,10.7-18.73,19.64-.69,5.88,1.56,10.66,2.88,12.97Z"/>
      <path class="cls-16" d="M337.94,109.1c-2.44-3.09-10.68-12.69-24.99-15.8-20.26-4.4-35.71,7.92-37.71,9.57-.1.08-.15.12-.15.12,0,0,.3-.26.31-.27.27-.23,11.71-10.64,18.44-19.02,11.87-14.8,20.63-37.81,21.12-39.14.37,7.86,3.21,12.32,5.03,14.55,8.96,10.93,30.01,12.46,51.16,1.51.12,2.43,1.07,30.32-18.65,43.08-4.89,3.16-10,4.72-14.57,5.41Z"/>
      <path class="cls-18" d="M337.94,109.1c9.84,3.7,16.95,3.01,21.48,1.78,22.38-6.06,38.02-40.38,35.36-85.45,2.9,19.12,5.59,47.78,2.19,82.17-2.7,27.27-11.83,84.41-25.77,85.03-13.74.61-26.96-53.87-33.25-83.53Z"/>
      <path class="cls-17" d="M389.93,118.4c.33,14.18-.77,31.08-5.11,49.58-1.32,5.62-2.83,10.92-4.45,15.89,2.18-4.32,5.19-10.73,8.14-18.73,12.57-34.07,11.93-64,11.11-90.33-.39-12.59-1.56-29.48-4.85-49.37"/>
      <path class="cls-20" d="M322.09,141.71c4.71,3.16,12.36,7.14,22.08,7.5,18.12.67,35.83-11.49,45.76-30.82-1.42,7.55-3.81,18.9-7.76,32.42-7.4,25.36-17.69,60.62-29.18,61.04-14.89.55-28.12-57.48-30.9-70.15Z"/>
      <path class="cls-16" d="M371.19,163.52c-8.23-15.65-21.92-25.75-35.98-25.33-3.2.1-7.81.78-13.12,3.52-1.32-2.31-3.57-7.09-2.88-12.97,1.05-8.94,8.45-16.7,18.73-19.64.28,1.1,4.4,16,18.76,20.77,11.75,3.91,25.33-.64,33.23-11.48-2.18,9.56-5.74,20.82-11.72,32.73-2.26,4.51-4.64,8.64-7.01,12.39Z"/>
      <path class="cls-2" d="M371.14,162.9c.48,5.59.55,14.27-2.19,24.37-2.56,9.42-6.59,16.48-9.64,20.98"/>
      <path class="cls-1" d="M105.65,220.7c-8.63-21.27-27.05-35.16-46.37-35.12-13.3.03-23.21,6.64-27.61,10.05-.94-2.36-7.17-18.78,1.77-34.4,4.66-8.14,11.37-12.43,14.88-14.33,7.18-3.12,21.05-8.02,38.98-7.25,19.28.83,33.47,7.79,40.34,11.75,1.66,5.43,5.33,20.03,0,37.44-5.56,18.17-17.56,28.42-21.99,31.86Z"/>
      <path class="cls-16" d="M198.51,178.7c-2.52,4.87-23.18,43.17-63.23,46.28-6.15.48-16.71.44-29.63-4.28,4.43-3.44,16.43-13.69,21.99-31.86,5.33-17.41,1.66-32.02,0-37.44,4.35,3.24,13.41,8.96,25.71,9.49,27.73,1.19,44.42-25.18,45.16-26.38,2.63,5.22,7.07,15.96,5.14,29.02-.54,3.69-1.76,8.64-5.14,15.17Z"/>
      <path class="cls-1" d="M268.63,177.89c-24.55-19.28-39-19.82-47.68-16.66-11.96,4.35-21.01,18.62-22.44,17.46-.76-.61,2.28-4.4,3.39-7.99,4.85-15.67-.57-30.02-3.39-36.2,3.62-10.13,9.45-14.57,12.19-16.31,13.94-8.85,36.64-4.18,54.32,13.46,2.06,5.01,4.35,12.11,5.27,20.85,1.11,10.67-.27,19.53-1.66,25.38Z"/>
      <path class="cls-17" d="M313.31,182.91c3.96,12.25,10.08,15.1,12.06,15.84,12.13,4.56,32.47-8.4,45.77-35.86-2.33,14.57-6.28,35.02-13.26,59.08-8.58,29.58-12.12,31.5-14.12,31.68-5.81.54-15.13-11.99-30.45-70.74Z"/>
      <path class="cls-1" d="M365.35,187.37c-4.35-2.74-14.02-7.99-27.42-8.64-14.53-.71-25.36,4.39-29.87,6.84,10.75-4.34,18.28-13.68,19.4-24.34,1.03-9.86-3.8-17.28-5.38-19.52,5.31-2.73,9.91-3.42,13.12-3.52,21.68-.7,35.31,23.56,35.93,24.7-1.29,2.41-2.62,5.37-3.69,8.87-1.87,6.17-2.2,11.64-2.1,15.6Z"/>
      <path class="cls-16" d="M308.06,185.57c-1.78.88-17.47,8.32-30.95.34-3.98-2.36-6.69-5.42-8.49-8.02.65-2.84,1.17-5.9,1.51-9.16,1.57-15.22-1.74-28.16-5.11-37.07,4.29,3.49,14.66,10.98,29.97,12.94,12.19,1.56,21.97-1.09,27.09-2.88,1.58,2.23,6.41,9.66,5.38,19.52-1.11,10.67-8.64,20-19.4,24.34Z"/>
      <path class="cls-1" d="M364.94,186.92c-1.72,13.95-4.88,29.55-10.44,46.11-1.5,4.46-3.08,8.73-4.72,12.81"/>
      <path class="cls-20" d="M298.38,235.8c11.33,11.04,20.92,11.47,24.09,11.4,19.22-.42,39.51-24.29,42.47-60.28,2.24,13.46,4.19,37.28-5.63,63.52-4.44,11.87-11.49,30.7-23.27,32.12-12.68,1.53-28.32-17.41-37.66-46.75Z"/>
      <path class="cls-16" d="M359.31,234.11c-14.99,17.34-35.46,23.09-48.74,15.91-2.6-1.41-8.24-5.11-12.19-14.22-1.33-4.34-4.27-16,0-29.83,3.84-12.45,11.46-20,14.93-23.05,4.67-1.88,11.75-4.05,20.54-4.23,14.89-.31,26.04,5.27,31.1,8.24.57,5.96.78,13.19,0,21.33-1,10.42-3.32,19.17-5.63,25.86Z"/>
      <path class="cls-16" d="M359.31,233.39c.02,5.99-.64,14.32-3.59,23.74-2.1,6.69-4.81,12.17-7.28,16.35"/>
      <path class="cls-1" d="M298.38,235.8c-.81-1.55-12.85-23.61-33.4-23.93-3.16-.05-7.76.4-13.14,2.8,2.37-2.93,4.82-6.37,7.13-10.37,5.72-9.89,8.36-19.32,9.66-26.41,2.9,4.21,6.11,6.62,8.49,8.02,15.63,9.19,34.97-2.25,36.19-3-3.46,3.05-11.08,10.61-14.93,23.05-4.27,13.84-1.33,25.49,0,29.83Z"/>
      <path class="cls-16" d="M251.84,214.67c-4.77,3.25-14.96,9.25-29.23,10.51-10.79.95-19.51-1.19-24.64-2.9-1.63-3.64-3.65-9.23-4.34-16.28-.52-5.32-1.53-16.21,4.88-27.3,2.32-4.01,8.76-13.82,20.84-18.08,16.33-5.75,36.24,1,49.28,17.28-1.3,7.09-3.94,16.53-9.66,26.41-2.31,3.99-4.76,7.44-7.13,10.37Z"/>
      <path class="cls-1" d="M197.97,222.28c-7.54-.48-23.52-.46-40.84,8.14-22.45,11.15-32.81,29.59-36.08,36.08-20.25-6.61-30.57-22.19-27.69-33.11.36-1.37,2.3-7.85,12.29-12.7,7.52,2.8,17.75,5.27,29.63,4.28,39.6-3.3,60.95-42.01,63.23-46.28-2.25,4.78-6.08,14.69-4.88,27.3.65,6.87,2.6,12.42,4.34,16.28Z"/>
      <path class="cls-16" d="M121.05,266.5c-5.03,9.16-10.92,13.71-15.4,16.14-22.12,12.02-58.51-1.16-88.77-34.53,2.86-2.11,14.36-11.1,17.45-27.41,2.23-11.75-1.06-21.19-2.67-25.07,4.4-3.41,14.31-10.03,27.61-10.05,19.32-.04,37.75,13.85,46.37,35.12-10,4.85-11.93,11.33-12.29,12.7-2.88,10.92,7.45,26.5,27.69,33.11Z"/>
      <path class="cls-17" d="M16.89,248.11c.57,32.66,26.34,57.47,53.92,57.29,21.7-.14,42.32-15.73,50.24-38.9,3.43,1.8,8.2,4.95,11.71,10.34,7.5,11.53,4.03,25.29.34,39.11-1.69,6.31-8.58,30.25-31.88,58.17-12.4,14.86-18.61,22.29-27.05,22.8-15.18.93-27.09-17.77-42.06-41.9-16.85-27.17-43.42-70.03-26.49-96.14,3.43-5.29,7.85-8.67,11.28-10.77Z"/>
      <path class="cls-18" d="M86.74,390.47c10.82-10.97,22.85-26.49,30.76-47.21,1.4-3.67,2.58-7.26,3.57-10.75.23.96.49,1.95.77,2.95.51,1.82,1.05,3.55,1.61,5.18-1.95,3.82-4.15,7.79-6.64,11.87-5.12,8.36-10.47,15.54-15.59,21.6"/>
      <path class="cls-20" d="M121.07,332.85c12.56-20.65,26.57-42.15,42.19-64.21,11.62-16.41,23.24-31.86,34.71-46.36,15.05,63.22,4.18,107.77-4.57,131.72-5.41,14.81-14.81,40.53-29.48,41.49-14.95.98-31.74-24.02-42.86-62.64Z"/>
      <path class="cls-16" d="M200.07,308.22c-7.22,24.26-27.42,40.1-47.94,39.5-16.91-.5-28.41-12.01-31.52-15.34,14.71-23.5,18.49-47.19,8.17-59.75-1.76-2.14-4.22-4.32-7.74-6.12,3.21-6.44,12.03-22,30.64-33.11,19.94-11.89,39.2-11.57,46.27-11.11,3.78,9.01,8.83,24.17,9.18,43.54.33,18.57-3.79,33.36-7.08,42.4Z"/>
      <path class="cls-17" d="M200.07,308.22c3.48-8.33,7.32-16.88,11.57-25.59,12.63-25.93,26.49-48.54,40.2-67.96,8.15,45.92,3.44,81.46-2.18,104.87-3.4,14.17-10.44,43.43-21.32,43.91-13.75.6-25.72-45.14-28.27-55.23Z"/>
      <path class="cls-1" d="M249.3,268.87c-5.91,1.05-15.53,3.57-25.43,10.28-14.67,9.94-21.29,23.18-23.8,29.07,4.32-12.32,9.97-34.29,5.38-60.6-1.72-9.89-4.54-18.38-7.49-25.33,5.15,1.66,13.33,3.58,23.38,2.89,14.81-1.02,25.49-7.16,30.5-10.5-2.16,2.55-12.68,15.47-10.73,33.44,1.09,10.03,5.59,17.22,8.19,20.76Z"/>
      <path class="cls-18" d="M248.97,268.75c1.19,2.14,2.41,4.68,3.46,7.61,1.85,5.13,2.61,9.79,2.9,13.45-.21,2.03-.52,4.75-.98,7.93-.34,2.33-1.2,8-2.96,15.73-.56,2.48-2.5,11-2.9,10.93-.52-.1,3.52-14.77,3.13-32.83-.21-9.63-1.53-17.53-2.66-22.81Z"/>
      <path class="cls-20" d="M248.97,268.75c8-4.25,16.66-9.34,25.69-15.43,8.81-5.95,16.59-11.93,23.39-17.64,4.06,10.96,11.11,34.9,3.26,62.23-1.55,5.4-8.95,31.18-20.01,31.66-13.85.6-26.3-38.73-32.33-60.83Z"/>
      <path class="cls-16" d="M287.07,288.18c-1.44-2.79-6.29-11.35-16.85-16.31-9.23-4.34-17.66-3.5-20.91-3-2.6-3.54-7.1-10.73-8.19-20.76-1.95-17.97,8.57-30.89,10.73-33.44,5.38-2.4,9.98-2.85,13.14-2.8,20.55.31,32.58,22.38,33.4,23.93,1.61,4.58,3.62,12.34,2.69,21.89-1.58,16.2-10.6,26.84-14.01,30.48Z"/>
      <path class="cls-18" d="M2.92,295.54c3.44,3.66,7.13,8.1,10.73,13.38,5.56,8.18,9.25,15.99,11.72,22.44,1.49,5.19,3.37,10.73,5.73,16.52,4.95,12.16,10.77,22.29,16.28,30.42-6.27-7.86-11.11-14.71-14.52-19.73-9.8-14.46-20.6-30.65-27.39-53.37-1.22-4.07-2.04-7.46-2.54-9.67Z"/>
      <path class="cls-17" d="M287.07,288.18c7.73-1.34,17.31-3.92,27.45-9.03,26.29-13.24,39.54-34.99,44.8-45.03-.54,12.48-2.2,31.52-7.69,54.06-5.64,23.15-14.53,59.69-28.31,60.79-17.91,1.43-35.36-57.73-36.25-60.79Z"/>
      <path class="cls-1" d="M344.63,293.6c-15.82,10.76-34.04,13.15-46.9,5.37-2.94-1.78-7.08-4.98-10.67-10.8,2.73-2.96,5.59-6.73,7.98-11.42,8.78-17.22,5.03-34.63,3.33-40.95,4.87,7.95,10.69,11.26,13.73,12.65,14.05,6.4,33.11.84,47.2-14.33-4.78,10.7-9.53,24.21-12.37,40.21-1.22,6.85-1.93,13.31-2.3,19.28Z"/>
      <path class="cls-17" d="M248.44,268.25c1.54,6.54,2.83,14.39,3.18,23.3.63,15.88-1.94,29.17-4.64,38.66"/>
      <path class="cls-1" d="M120.62,332.85c-4.62-3.49-32.66-23.98-66.66-15.78-12.96,3.13-22.54,9.4-28.59,14.29-22.78-23.31-31.18-51.42-21.25-69.92,2.05-3.83,5.74-8.84,12.77-13.33,30.26,33.37,66.64,46.55,88.77,34.53,4.48-2.43,10.37-6.98,15.4-16.14,6.41,3.32,9.82,7.38,11.71,10.34,8.95,14.09,4.25,36.66-12.14,56.01Z"/>
      <path class="cls-1" d="M389.93,118.4c-7.9,10.83-21.48,15.39-33.23,11.48-14.35-4.78-18.47-19.68-18.76-20.77,4.57-.69,9.68-2.25,14.57-5.41,19.72-12.76,18.76-40.64,18.65-43.08,2.67-1.55,5.55-3.56,8.38-6.18,10.85-10.06,14.13-22.77,15.25-29,2.1,15.99,3.18,35.83.97,58.36-1.26,12.8-3.37,24.4-5.82,34.61Z"/>
      <path class="cls-2" d="M202.86,318.55c-.53-1.84-1.05-3.71-1.56-5.61-.43-1.59-.83-3.16-1.23-4.71.36,3.97.65,9.85,0,16.93-.75,8.24-2.41,14.18-2.1,14.25.32.07,2.25-6.11,3.64-13.06.64-3.2,1.02-5.9,1.25-7.79Z"/>
      <path class="cls-18" d="M359.31,234.11c-3.81,7.76-7.94,17.95-10.86,30.3-2.64,11.15-3.59,21.12-3.81,29.19.08,3.18.04,6.57-.18,10.14-.52,8.37-1.9,15.79-3.54,22.06-.1.39,6.87-20.47,12.68-46.69,1.79-8.08,3.21-15.3,4.26-24.24.99-8.4,1.34-15.53,1.46-20.76Z"/>
      <path class="cls-2" d="M290.32,298.41c.72,2.67,1.64,5.55,2.81,8.58.88,2.3,1.81,4.43,2.75,6.39-.59,1.85-1.52,4.18-3.04,6.67-1.76,2.88-3.71,4.99-5.25,6.43,1.37-2.95,3-7.37,3.66-12.94.76-6.44-.1-11.76-.92-15.14Z"/>
      <ellipse class="cls-2" cx="123.96" cy="61" rx="12.54" ry="19.73"/>
      <ellipse class="cls-2" cx="96.42" cy="118.4" rx="11.7" ry="14.15"/>
      <ellipse class="cls-2" cx="227.35" cy="192.64" rx="12.33" ry="15.59"/>
      <ellipse class="cls-2" cx="145.1" cy="198.98" rx="11.74" ry="12.33"/>
      <ellipse class="cls-2" cx="130.42" cy="236.29" rx="11.74" ry="6.17" transform="translate(-100.67 96.87) rotate(-30)"/>
      <ellipse class="cls-2" cx="57.85" cy="241.13" rx="14.37" ry="20.32"/>
      <ellipse class="cls-10" cx="227.83" cy="282.91" rx="13.12" ry="18.4" transform="translate(-23.79 20.93) rotate(-5)"/>
      <ellipse class="cls-10" cx="74.11" cy="322.05" rx="27.01" ry="15.18" transform="translate(-251.38 379.2) rotate(-87)"/>
      <ellipse class="cls-2" cx="165.45" cy="294.77" rx="17.27" ry="22.47" transform="translate(-10.19 5.95) rotate(-2)"/>
      <ellipse class="cls-10" cx="273.89" cy="264.45" rx="12.57" ry="23.31" transform="translate(-9.06 9.72) rotate(-2)"/>
      <ellipse class="cls-10" cx="319.34" cy="301.28" rx="12.57" ry="23.99"/>
      <ellipse class="cls-2" cx="149.9" cy="113.1" rx="17.28" ry="11.74" transform="translate(12.49 241.09) rotate(-80)"/>
      <ellipse class="cls-2" cx="234.78" cy="111.1" rx="2.57" ry="17.07" transform="translate(84.6 323.02) rotate(-80)"/>
      <ellipse class="cls-2" cx="232.65" cy="138.18" rx="12.33" ry="14.26" transform="translate(-33.23 87.9) rotate(-20)"/>
      <ellipse class="cls-2" cx="79.8" cy="166.48" rx="16.63" ry="14.26" transform="translate(-27.7 16.39) rotate(-10)"/>
      <ellipse class="cls-2" cx="200.68" cy="64.88" rx="5.29" ry="17.07" transform="translate(118.56 259.14) rotate(-85)"/>
      <ellipse class="cls-2" cx="280.88" cy="199.88" rx="7.84" ry="6.17" transform="translate(-32.66 343.19) rotate(-60)"/>
      <ellipse class="cls-2" cx="337.46" cy="211.87" rx="15.09" ry="13.22" transform="translate(22.95 456.51) rotate(-70)"/>
      <ellipse class="cls-2" cx="268.63" cy="67.27" rx="21.9" ry="12.33" transform="translate(94.13 282.3) rotate(-65)"/>
      <ellipse class="cls-2" cx="348.45" cy="162.78" rx="10.84" ry="11.87" transform="translate(127.64 477.67) rotate(-80)"/>
      <circle class="cls-2" cx="295.21" cy="165.57" r="10.63" transform="translate(-13.07 25.84) rotate(-4.9)"/>
      <ellipse class="cls-2" cx="294.6" cy="115.46" rx="15.3" ry="14.21" transform="translate(47.31 312.86) rotate(-60)"/>
      <ellipse class="cls-2" cx="376.43" cy="101.81" rx="17.51" ry="10.87" transform="translate(242.2 467.93) rotate(-85)"/>
      <ellipse class="cls-2" cx="330.8" cy="81.84" rx="12.37" ry="16.63" transform="translate(140.75 364.7) rotate(-70)"/>
      <ellipse class="cls-2" cx="350.92" cy="134.51" rx="3.93" ry="17.07" transform="translate(104.5 418.26) rotate(-70)"/>
      <path class="cls-2" d="M89.26,317.66c-.7-12.49-6.36-22.2-13.74-22.58-7.35-.39-13.97,8.61-16,20.89,10.85-1.69,20.96-.6,29.73,1.69Z"/>
      <path class="cls-2" d="M237.91,271.95c-2.77-4.81-7.09-7.77-11.68-7.37-7.22.63-12.35,9.35-11.47,19.47.07.77.17,1.52.3,2.26,2.55-2.48,5.47-4.91,8.81-7.17,4.89-3.31,9.7-5.6,14.04-7.2Z"/>
      <path class="cls-2" d="M273.07,241.16c-6.94.24-12.2,10.87-11.75,23.73.05,1.44.17,2.85.35,4.21,2.66.51,5.56,1.36,8.54,2.76,5.77,2.71,9.83,6.49,12.57,9.82,2.48-4.36,3.92-10.69,3.67-17.67-.45-12.87-6.44-23.1-13.38-22.86Z"/>
      <path class="cls-2" d="M331.9,300.28c-.27-12.79-5.79-23-12.56-23s-12.57,10.74-12.57,23.99c0,.45,0,.9.02,1.34,7.74,1.8,16.48.93,25.11-2.34Z"/>
      <g>
        <circle class="cls-12" cx="327.24" cy="22.23" r="22.22"/>
        <path class="cls-11" d="M328.32,136.4l3.03-60.55-41.61-15.14-36.6,48.34c8.69,7.38,20.48,15.35,35.66,20.78,14.66,5.24,28.37,6.65,39.51,6.58Z"/>
        <path class="cls-9" d="M289.74,60.7c-.63,1.55,9.21,7.63,19.37,11.33,10.2,3.72,21.72,5.41,22.24,3.81.55-1.71-11.48-7.16-19.91-10.22-8.39-3.05-21.03-6.58-21.7-4.92Z"/>
        <path class="cls-14" d="M326.4,74.05l2.26-18.37-23.76-8.65-10.08,15.52c3.79,2.53,9.01,5.5,15.62,7.85,6.13,2.18,11.64,3.18,15.96,3.65Z"/>
        <path class="cls-6" d="M337.54,58.91c-2.5,2.48-7.31,1.03-22.07-4.34-14.76-5.37-19.37-7.36-19.7-10.86-.15-1.63.67-3.08,1.51-4.14l41.76,15.2c-.04,1.35-.35,2.99-1.51,4.14Z"/>
        <path class="cls-5" d="M339.05,54.76l-6.59-10.91c-3.12-.17-7.56-.75-12.56-2.62-4.63-1.74-8.16-3.99-10.56-5.79-4.02,1.37-8.04,2.75-12.06,4.12,5.62,3.09,12.41,6.34,20.3,9.21,7.89,2.87,15.17,4.75,21.47,5.99Z"/>
      </g>
      <g>
        <circle class="cls-13" cx="71.74" cy="121.76" r="24.44"/>
        <path class="cls-15" d="M168.71,201.58l-48.88-45.37-42.18,24.35,14.85,65.02c12.37-2.1,27.42-6.4,42.73-15.36,14.78-8.64,25.66-19.2,33.48-28.64Z"/>
        <path class="cls-19" d="M77.65,180.56c.86,1.62,12.94-2.37,23.25-8.31,10.35-5.97,19.92-14.48,18.94-16.05-1.05-1.67-14.15,4.62-22.69,9.55-8.5,4.91-20.41,13.07-19.49,14.8Z"/>
        <path class="cls-8" d="M114.81,159.11l-13.89-14.89-24.09,13.91,5.95,19.47c4.81-1.4,11.01-3.71,17.66-7.62,6.16-3.62,10.91-7.56,14.36-10.87Z"/>
        <path class="cls-7" d="M109.93,139.02c.32,3.85-4.3,6.89-19.26,15.53-14.96,8.64-19.9,11.12-23.08,8.92-1.48-1.02-2.12-2.75-2.43-4.2l42.34-24.44c1.11.99,2.28,2.41,2.43,4.2Z"/>
        <path class="cls-4" d="M107.5,134.81l-13.85-2.16c-2.35,2.51-5.98,5.84-11.09,8.73-4.74,2.68-9.13,4.05-12.34,4.8-1.68,4.36-3.37,8.72-5.05,13.08,6.58-2.55,14.11-5.97,22.11-10.59s14.73-9.43,20.23-13.85Z"/>
      </g>
    </g>
    <g>
      <path class="cls-3" d="M1188.82,361.1c-.05-.29-.03-.81.06-1.58.09-.76.19-1.23.31-1.4-.03-.14-.15-.61-.36-1.4-.22-.78-.26-1.26-.14-1.43-.03-.14.06-.49.26-1.06.2-.56.29-.91.26-1.06-.13-.72-.34-2.33-.63-4.83-.29-2.49-.5-4.1-.63-4.83.03.15.11.2.26.18l.26.18c.17.12.4.38.7.77.29.4.53.66.7.78l.26.18.61-.33.36-.51.36-.51c-.2-.26-.57-.69-1.12-1.26s-.93-.99-1.12-1.26l-.08-.43-.08-.44c.12-.17.36-.7.73-1.59.37-.88.54-1.4.51-1.55s-.12-.46-.28-.96c-.16-.49-.26-.81-.28-.96-.29.05-.57.18-.83.37-.27.2-.48.24-.65.12-.15.03-.39-.08-.73-.32-.34-.24-.52-.43-.55-.58.26-.19.54-.54.83-1.04.28-.5.55-.92.79-1.26l-.23-1.31-.27-1.52c-.17-.12-.37-.38-.59-.79-.22-.41-.41-.6-.55-.58-.2-.26-.63-.6-1.3-1.01-.67-.4-1.02-.68-1.04-.83-.32-.09-.57-.49-.77-1.21-.2-.71-.31-1.14-.34-1.29l1.31-.23c-.08-.43-.22-1.42-.41-2.96-.2-1.54-.32-2.45-.37-2.74s-.34-1.29-.86-2.99c-.52-1.7-.93-2.9-1.2-3.6-.15.03-.42-.49-.83-1.54-.41-1.05-.63-1.65-.65-1.79l-.08-.44-.12-.65c.09-.31.4-1.34.92-3.08.51-1.73.83-2.69.95-2.86l-.08-.44-.12-.65c-.17-.12-.52-.21-1.06-.26-.53-.05-.89-.14-1.06-.26-.17-.12-.37-.38-.59-.79-.22-.41-.42-.67-.59-.79l-.11-.65-.08-.44c-.03-.14-.05-.92-.08-2.34-.02-1.42,0-2.28.1-2.6l-.15-.87-.12-.65c-.17-.12-.41-.41-.72-.88-.31-.47-.47-.78-.5-.92-.05-.29-.08-1.11-.1-2.45-.01-1.34.04-2.1.16-2.27.04-.6-.01-1.75-.16-3.45-.15-1.69-.27-3.46-.38-5.32-.1-1.85-.18-3.59-.25-5.23-.06-1.63-.16-2.81-.29-3.54.14-.03.29-.27.43-.75.14-.47.19-.85.13-1.15-.03-.14-.25-.59-.69-1.34-.43-.74-.66-1.19-.68-1.34s-.04-.44-.04-.89c0-.45-.02-.74-.04-.89l-3.05.54c-.03-.14,0-.45.06-.91.07-.46.22-.86.46-1.2-.03-.14.05-.35.23-.6.18-.26.33-.47.45-.64.14-.03.42-.15.83-.37.41-.22.73-.5.97-.84.12-.17.25-.49.39-.97.14-.47.19-.85.13-1.15l-.08-.43-.04-.22-.95-.28c-.63-.19-.96-.35-.99-.5-.46-.07-1.47-.26-3.02-.59-.63-.19-1.34-.36-2.11-.52l-4.13.73-4.14.73c-.27.2-.87.6-1.81,1.22-.94.61-1.53,1.09-1.77,1.43-.58.1-.92-.14-1.02-.72-.03-.14-.22-.41-.59-.79-.37-.38-.56-.65-.59-.79-.34-.24-.73-.54-1.17-.92-.44-.37-.82-.6-1.13-.7l-.43.08-.44.08c-.15.03-.34.17-.6.44-.25.27-.35.55-.3.84-.09.32-.12.62-.06.91l.19,1.09c-.03-.14-.11-.21-.26-.18-.29.05-.45,0-.47-.14-.29.05-.83-.23-1.61-.84-.78-.61-1.27-1.04-1.47-1.31-.34-.24-.97-.8-1.87-1.69-.91-.89-1.52-1.38-1.83-1.47-.17-.12-.35-.27-.53-.47-.18-.19-.35-.28-.49-.25l-1.31.23-1.31.23c-.15.03-.35-.08-.62-.34-.27-.25-.49-.44-.66-.56l-.3-.4c-.03-.14.02-.3.14-.47.09-.31.39-.55.88-.72.49-.16.73-.32.7-.46l-.12-.65c-.05-.29-.06-.51,0-.67.05-.16.06-.31.03-.45s-.1-.32-.2-.53c-.11-.2-.19-.45-.24-.74l-.15-.87c-.03-.14-.19-.42-.48-.81-.29-.4-.45-.67-.48-.81s-.13-.5-.3-1.07c-.18-.56-.29-.99-.34-1.29l-.23-1.31c-.05-.29-.03-.59.06-.91-.05-.29-.03-.81.06-1.58.09-.76.12-1.22.1-1.36l-.54-3.05c-.03-.14.03-.23.18-.26s.28-.12.4-.29l.36-.51c.34.24,1.04.6,2.1,1.09,1.06.49,1.76.85,2.1,1.09.19.27.47.14.83-.37.12-.17.25-.27.4-.29l-.88-5.01,2.46,6.3,1.09-.19.87-.15c.67-.42.97-.84.9-1.28l-.81-4.57,5.81-.13.08.43.08.44c-.09.32-.27.83-.51,1.55-.25.72-.27,1.21-.08,1.47.17.12.41.23.73.32.32.1.56.2.73.32.17.12.4.15.69.1.17.12.78.17,1.82.13,1.04-.03,1.72,0,2.03.09l.08.43.08.44c.03.15-.16.78-.56,1.89-.4,1.12-.58,1.82-.52,2.11-.12.17-.17.33-.14.47l.12.65.08.44c.03.15.12.28.29.4l1.89.56.44-.08.65-.12c.26-.19.83-.6,1.7-1.2.87-.6,1.43-1,1.7-1.2l.72-1.02c.36-.51.58-.92.68-1.24l-.08-.44-.12-.65-1.18-1.59c-.05-.29.16-.81.62-1.57.46-.75.74-1.29.84-1.61-.03-.14-.13-.5-.3-1.07-.18-.56-.19-.86-.04-.89.12-.17.52-.43,1.21-.77.69-.35,1.1-.53,1.25-.56.12-.17.53-.58,1.24-1.23.71-.65,1.13-.99,1.28-1.01l1.09-.19c.29-.05.57-.14.85-.26.28-.12.56-.21.85-.26.14-.03.4-.03.78-.02.37.01.71-.01,1-.06l1.09-.19,1.02.72c.14-.03.49.03,1.04.15.55.13.83.27.86.41l.69,3.92c.03.15.2.27.51.36.32.1.56.2.73.32.09-.31.18-.67.26-1.06.08-.39.17-.74.26-1.06.24-.34.53-.8.88-1.39.35-.58.59-.89.74-.92.12-.17.43-.08.95.28.51.36.84.53.99.5l.87-.15,1.09-.19c.14-.03.55-.28,1.21-.77.66-.49,1.06-.75,1.21-.77.29-.05.72.06,1.29.33.57.27.93.4,1.08.37s.63-.03,1.45-.03c.82,0,1.38-.02,1.67-.07.05.29.09.96.13,2,.03,1.04.1,1.85.2,2.43.08.44-.18.7-.76.81l-1.09.19,1.5,8.49c.12-.17.25-.49.39-.97.14-.47.27-.8.39-.97.26-.19.69-.72,1.29-1.57.6-.85.94-1.44,1.04-1.75.24-.34.47-1.17.68-2.48.22-1.31.3-2.11.25-2.4-.03-.14.01-.34.12-.58.1-.24.21-.52.3-.84.09-.31.2-.56.32-.73l.36-.51c.03.15.16.5.41,1.05.24.56.4.98.45,1.27.51.36.84.53.99.5.26-.19.69-.72,1.29-1.57s1.03-1.38,1.29-1.57l.4-.3.26.18.66,1.23.67,1.23c.17.12.42.26.75.43.33.17.58.31.75.43l.87-.15.87-.15c.32.1.84.3,1.57.62.73.32,1.26.6,1.61.84.32.1.58.35.81.76.22.41.35.69.37.83-.03-.14.03-.45.17-.93.14-.47.27-.8.39-.97l-.19-1.09c.12-.17.25-.49.39-.97.14-.47.26-.87.35-1.18.05.29.34.65.86,1.08.52.43.93.62,1.22.57.46.07,1.17.09,2.14.07.97-.02,1.6-.06,1.89-.11.1.58.1,1.03.01,1.34-.12.17-.22.49-.28.95-.07.46-.09.77-.06.91-.1.32,0,1.12.31,2.41.3,1.29.48,2.09.53,2.38.03.15-.03.49-.15,1.04-.13.55-.28,1.17-.45,1.88-.18.7-.32,1.37-.44,1.98-.11.62-.16,1-.13,1.15l.27,1.52.23,1.31c.17.12.43.52.77,1.21.35.69.6,1.09.77,1.21.03.15.04.44.04.89,0,.45.09.73.26.85.05.29.24.52.57.68.33.17.56.24.71.21.03.15.11.2.26.18l.65-.12.43-.08c.14-.03.21-.11.18-.26.14-.03.28-.5.42-1.42.14-.92.19-1.45.17-1.6s.24-.34.79-.59c.55-.24.89-.45,1.01-.63.12-.17.19-.63.2-1.38.02-.75.08-1.21.21-1.38-.05-.29-.2-.93-.45-1.94-.25-1-.39-1.58-.42-1.72l-1.74.31c.24-.34.62-.93,1.15-1.77.53-.84.91-1.43,1.15-1.77-.15.03-.23-.03-.26-.18l-.08-.43-.12-.65c-.29.05-.57.18-.83.37-.27.2-.47.31-.61.33s-.39-.08-.73-.32l-.51-.36c-.17-.12-.53-.24-1.07-.37-.55-.13-.91-.25-1.08-.37l-.15-.87-.15-.87c.12-.17.37-.44.76-.81.38-.37.72-.58,1.01-.63l1.09-.19.87-.15c.29-.05.68.03,1.16.24.49.22.82.38.99.5.17.12.38.68.63,1.68.25,1,.48,1.64.67,1.9l.17.98c.09.51.19,1.09.31,1.74l.33,1.85.19,1.09c.22.41.52,1.03.89,1.86.37.83.82,1.69,1.35,2.57.53.88,1.01,1.73,1.46,2.55.44.82.76,1.36.96,1.63.14-.03.42-.19.81-.48.4-.29.65-.52.77-.7.14-.03.34-.21.58-.55s.35-.58.32-.73l-1.11-6.31c-.1-.58.14-.92.72-1.02l.4-.29.47.14c.32.1.97.39,1.95.89.99.5,1.81.92,2.46,1.25.08.44.4.6.99.5.05.29.22.63.52,1.03.29.4.53.66.7.77.03.15.04.44.04.89,0,.45.02.75.04.89l2.39-.42c.08.44.23,1.12.47,2.05.24.93.53,1.52.87,1.75.05.29.37.61.95.95.58.35,1.03.57,1.35.66.03.15.4.6,1.14,1.37.37.38.72.7,1.06.94l.42,2.39.42,2.39c.05.29.02.97-.09,2.04-.11,1.07-.15,1.68-.13,1.82s.11.43.26.85c.15.42.24.71.26.85s.11.2.26.18l.44-.08.36-.51c.24-.34.35-.58.32-.73l.65-.12.43-.08c.05.29.28.93.67,1.9.4.98.69,1.6.89,1.86.19.27.74.81,1.63,1.62.89.82,1.51,1.34,1.85,1.58-.58.1-.82.45-.72,1.02.05.29.27.89.65,1.79.38.91.67,1.49.87,1.75.03.15.05.52.08,1.11.03.59.12.88.26.85l1.02.72.47.14c.14-.03.28-.12.4-.29.09-.31.22-.67.37-1.08.15-.4.2-.74.15-1.04s-.27-.88-.65-1.79c-.38-.9-.68-1.49-.87-1.75l.43-.08.44-.08c.46.07,1.04.15,1.73.26s1.12.22,1.29.33c.31.1.86.45,1.64,1.06.78.61,1.33.96,1.64,1.06-.19.63-.48,1.73-.88,3.3-.4,1.57-.7,2.59-.92,3.08l.11.65.19,1.09c.03.15.2.3.53.47.33.17.51.32.53.47l.41,1.05c.05.29.07.59.04.89-.02.31-.02.53,0,.67l-.36.51c-.12.17-.17.33-.14.47s-.04.23-.18.26l.19,1.09.27,1.52c.19.27.47.74.81,1.43.35.69.54,1.18.59,1.47l.08.44.04.22c.05.29.03.78-.08,1.47-.1.69-.2,1.2-.29,1.51.03.15-.05.35-.23.6s-.33.47-.45.64c-.03-.14-.17-.34-.44-.6-.27-.25-.48-.36-.62-.34-.44.08-.71.2-.83.37-.27.2-.47.31-.61.33l1.27,7.18c-.27.2-.61.56-1.04,1.08-.43.52-.71.87-.83,1.04-.29.05-.43.52-.42,1.42,0,.9.03,1.42.05,1.56-.15.03-.31.17-.49.42-.18.26-.33.47-.45.64-.12.17-.37.44-.76.81-.38.37-.64.64-.76.81l-3.21,9.77-2.11-.52c-.09.32-.38,1-.87,2.06-.49,1.06-.85,1.76-1.09,2.1l-.72,1.02c.05.29.23.67.54,1.14.31.47.55.77.72.88l.04.22.08.44c-.12.17-.17.29-.16.36.01.08-.04.2-.16.37l-.36.51-.65.12-.43.08c-.32-.09-.84-.3-1.57-.62-.73-.32-1.25-.53-1.57-.62-.15.03-.2.11-.18.26s-.03.68-.17,1.6c-.14.92-.11,1.52.09,1.78.19.27.54.5,1.02.72.49.22.79.24.91.06.05.29.04.67-.03,1.13-.07.46-.25.72-.54.77-.24.34-.49.61-.76.81l-.79.59c-.12.17-.31.36-.58.55-.27.2-.38.37-.36.51-.09.32-.42,1.01-.98,2.08-.56,1.07-.89,1.77-.98,2.08-.24.34-.66.94-1.26,1.79-.6.86-.94,1.44-1.04,1.75-.15.03-.31.36-.5.99-.09.32-.2.56-.32.73.03.15-.08.39-.32.73l-.36.51-.4.29c-.15.03-.3-.02-.47-.14-.17-.12-.41-.41-.72-.88-.31-.47-.55-.76-.72-.88l-.43.08-.44.08c.05.29.02.97-.09,2.04-.11,1.07-.22,1.76-.31,2.07.1.58-.14.92-.72,1.02-.09.32-.3.84-.62,1.57-.32.73-.54,1.18-.66,1.35-.03-.14-.32-.54-.88-1.19-.56-.65-1.07-1.01-1.54-1.08-.15.03-.42.19-.81.48-.4.29-.66.53-.77.7s-.39.56-.81,1.15c-.42.6-.7.91-.85.93s-.34-.2-.57-.69c-.24-.48-.44-.78-.61-.9l-.51-.36-.51-.36c-.15.03-.34.21-.58.55s-.43.52-.58.55c.03.15-.11.62-.42,1.42-.31.8-.58,1.38-.82,1.72-.09.32-.47.76-1.11,1.32-.65.56-1.11.94-1.37,1.14-.17-.12-.31-.28-.42-.49-.11-.2-.25-.37-.42-.49l-.59-.79c-.2-.26-.38-.46-.55-.58-.17-.12-.27-.25-.29-.4l-.65.12-.44.08c.03.15-.16.55-.57,1.22-.41.67-.68,1.02-.83,1.04-.27.19-.74.47-1.43.81-.69.35-1.09.6-1.21.77-.27.19-1.1.79-2.49,1.79-1.4.99-2.23,1.59-2.49,1.78.03.14-.04.23-.18.26l-.43.08c-.15.03-.31-.02-.47-.14-.03-.15-.22-.6-.58-1.36-.36-.76-.68-1.11-.97-1.06-.17-.12-.64-.22-1.4-.31-.77-.09-1.23-.2-1.4-.31l-.51-.36c-.51-.36-.75-.46-.73-.32l-.26-.18c-.15.03-.21.08-.2.15.01.08-.06.12-.2.15l-.22.04-3.42,7.33c.03.14-.35.36-1.12.65-.77.28-1.29.53-1.56.72-.27.19-.54.32-.83.37l-1.09.19-.87.15c-.29.05-.52.01-.69-.1-.58.1-1.36-.06-2.33-.49-.34-.24-.91-.51-1.72-.82-.8-.31-1.22-.54-1.24-.68-.17-.12-.26-.59-.25-1.41,0-.82-.07-1.22-.21-1.2-.2-.27-.71-.4-1.53-.4-.82,0-1.32-.07-1.49-.19-.58.1-.92-.14-1.02-.72ZM1143.18,233.38c-.05-.29-.29-.4-.73-.32s-.56.25-.36.51c.05.29.22.41.51.36s.48-.23.58-.55ZM1149.31,247.78l1.09-.19-.19-1.09-1.09.19.19,1.09ZM1162.37,245.48c-.29.05-.38.4-.26,1.06s.32.95.61.9c.58-.1.81-.48.7-1.13s-.47-.93-1.04-.83ZM1166.22,249.51l.87-.15-.15-.87-.72,1.02ZM1170.11,249.95c-.44.08-.61.37-.52.88s.35.72.79.65.61-.37.52-.88-.35-.72-.79-.65ZM1185.66,311.39c.14-.03.04.22-.32.73l-.36.51c-.09.32-.13,1-.09,2.03.03,1.04.06,1.64.09,1.78l1.52-.27c.58-.1.82-.44.72-1.02.09-.31.16-1,.2-2.06.04-1.05.1-1.74.2-2.06l-1.09.19-.87.15ZM1192.23,353.76l.87-.15-.19-1.09-.68,1.24ZM1177.17,258.13l1.09-.19-.19-1.09-1.09.19.19,1.09ZM1180.56,271c-.58.1-.81.48-.7,1.13s.46.93,1.04.83.81-.48.7-1.13-.47-.93-1.04-.83ZM1194.37,349.35c.22.41.51.96.85,1.64.35.69.59,1.02.74.99.19.27.51.58.95.95.44.37.74.62.92.74l-1.15-6.53c-.03-.14-.44-.37-1.24-.68l-.22.04-.22.04c-.12.17-.25.49-.39.97-.14.47-.27.8-.39.97l.08.43.08.44ZM1190.77,313.63c.24-.34.1-.47-.4-.38s-.74.28-.69.57c.85.6,1.22.54,1.09-.19ZM1180.37,254.65c-.58.1-.82.45-.72,1.02s.44.82,1.02.72.82-.44.72-1.02-.45-.82-1.02-.72ZM1180.15,247.06l-.13,1.82c-.07.46-.09.99-.06,1.58.03.6,0,1.05-.1,1.36l.08.43.12.65c.26-.19.61-.56,1.04-1.08.43-.53.62-.93.57-1.22.09-.31.13-.96.11-1.93-.02-.97-.06-1.6-.11-1.89l-1.52.27ZM1198.29,344.84l.72-1.02-1.02-.72-.72,1.02,1.02.72ZM1203.3,340.14c-.29.05-.4.29-.32.73s.25.56.51.36c.26-.19.38-.4.34-.62s-.22-.37-.53-.47ZM1204.7,343.04c.03.15.14.35.33.61.03.15.19.45.5.92.31.47.47.78.5.92.19.27.35.91.45,1.94.11,1.03.17,1.62.2,1.76l1.02.72c.26-.19.44-.67.53-1.44.09-.76.11-1.29.06-1.58l-.31-1.74-.35-1.96-.51-.36c-.17-.12-.29-.17-.36-.16-.08.01-.2-.04-.37-.16-.29.05-.59.03-.91-.06l-.65.12c-.15.03-.23-.03-.26-.18l.12.65ZM1210.54,337.97c.22.41.95,1.14,2.18,2.2,1.23,1.06,2.01,1.63,2.32,1.72l.47.14.43-.08c.14-.03.21-.11.18-.26.14-.03.35-.36.61-1,.26-.64.53-.99.83-1.04l2.83-.5c.14-.03.24-.34.28-.95.04-.6.12-.99.24-1.16.29-.05.87-.38,1.74-.98.86-.6,1.42-1.07,1.66-1.41l.65-.12.22-.04c.17.12.42.26.75.43.33.17.56.24.71.21l.87-.15.87-.15c.14-.03.25-.3.3-.84.05-.53.06-.94,0-1.23.12-.17.46-.38,1.01-.63.55-.24.89-.45,1.01-.63.29-.05.73-.54,1.31-1.47.58-.92.94-1.47,1.06-1.64l.95.28c.32.1.62.12.91.06.32.1.83.04,1.54-.16.71-.2,1.21-.33,1.51-.38.19.27.58.57,1.17.92.58.35,1.03.57,1.35.66l-1.04-5.88c.29-.05.85-.07,1.67-.07.82,0,1.37-.09,1.63-.29.14-.03.45-.19.92-.5.47-.31.76-.54.88-.72.12-.17.14-.66.08-1.47-.07-.81-.04-1.3.08-1.47-.03-.14.09-.31.36-.51.26-.19.47-.31.61-.33.12-.17.41-.44.86-.83.46-.38.76-.58.9-.61.09-.31.76-1.18,2.01-2.6,1.24-1.41,2.12-2.39,2.62-2.93.24-.34.54-.77.9-1.28.36-.51.61-.78.76-.81.09-.31.22-1.31.37-2.98.15-1.67.33-2.75.55-3.24-.05-.29-.08-1.07-.08-2.34,0-1.27.05-2.06.14-2.38-.03-.14.15-.62.53-1.44.38-.81.62-1.38.71-1.7.12-.17.26-.42.43-.75.17-.33.32-.51.47-.53.12-.17.38-.37.79-.59.41-.22.76-.36,1.05-.41.09-.31.35-.77.77-1.37.42-.6.61-.97.59-1.11l-.23-1.31-.23-1.31-.51-.36c-.15.03-.24-.1-.29-.4-.03-.14-.11-.2-.26-.18l-.54.77c-.12.17-.17.33-.14.47-.15.03-.27.35-.39.97-.12.62-.24,1.02-.35,1.18l-.44.08-.43.08c-.17-.12-.35-.27-.53-.47-.18-.19-.45-.4-.79-.65l-.77-.54c-.15.03-.16-.27-.04-.89.12-.62.23-1.01.35-1.18l-.12-.65-.04-.22-.95-.28-.95-.28c.14-.03-.04-.22-.55-.58l-.51-.36c-.32-.09-.81-.79-1.49-2.09-.68-1.3-1.12-2.08-1.31-2.35-.32-.09-.75-.46-1.32-1.11-.56-.65-.94-1.1-1.14-1.37-.15.03-.37-.19-.68-.67-.31-.47-.47-.78-.5-.92-.2-.26-.79-.83-1.76-1.71-.98-.87-1.54-1.3-1.68-1.27-.2-.26-.45-.63-.76-1.1-.31-.47-.47-.78-.5-.92-.25-.55-.65-1.75-1.2-3.6-.55-1.85-.89-3.13-1.02-3.86l-.99-.5c-.09.32-.36.74-.79,1.26-.43.52-.78.89-1.04,1.08l-.22.04-.43.08c-.2-.26-.47-.55-.83-.86-.36-.31-.56-.61-.61-.9l-1.63.96c-.34-.24-.98-.87-1.91-1.91-.93-1.03-1.58-1.74-1.95-2.13-.08-.44-.41-.6-.99-.5-.15.03-.64-.03-1.49-.19-.85-.15-1.36-.28-1.53-.4-.2-.26-.55-.99-1.06-2.17-.51-1.18-.73-2-.66-2.46-.24.34-.79.81-1.66,1.41-.87.6-1.43,1-1.7,1.2l-.43.08-.44.08c.24-.34.37-.85.4-1.53.03-.68.02-1.16-.03-1.45-.1-.58-.45-.82-1.02-.72-.12.17-.27.35-.47.53-.19.18-.27.35-.25.49-.12.17-.28.54-.48,1.09-.2.56-.38.85-.52.88l-.26-.18c-.34-.24-.53-.43-.55-.58-.17-.12-.4-.38-.7-.77-.29-.4-.53-.65-.7-.78-.17-.12-.31-.47-.41-1.05l-.19-1.09-.22.04c-.15.03-.2.11-.18.26-.12.17-.28.54-.48,1.09-.2.56-.36.93-.48,1.09.1.58-.14.92-.72,1.02-.15.03-.27-.06-.38-.27-.11-.2-.25-.37-.42-.49-.03-.14-.07-.58-.12-1.32-.06-.74-.18-1.24-.38-1.51-.03-.14-.22-.41-.59-.79-.37-.38-.65-.71-.84-.97-.03-.14-.25-.55-.67-1.23-.42-.67-.71-1.07-.88-1.19l-.87.15c-.15.03-.42.19-.81.48-.4.29-.67.45-.81.48l-1.09.19c-.09.32-.25.91-.47,1.77-.22.86-.48,1.32-.77,1.37l-.61.33-.87.15c-.15.03-.3-.02-.47-.14-.15.03-.3-.02-.47-.14-.34-.24-.52-.43-.55-.58.24-.34.46-1.01.65-2.02.19-1.01.41-1.68.65-2.02.12-.17.22-.64.31-1.4.09-.76.12-1.22.1-1.36l.72-1.02c.09-.31.21-.71.35-1.18.14-.47.2-.78.17-.93l.14-.47c-.03-.14-.08-.21-.15-.2s-.12-.05-.15-.2l-.04-.22c-.05-.29-.33-.61-.84-.97s-.91-.51-1.2-.46l-3.73,5.59.46,2.61-1.52,2.18c-.78,1.11-1.36,1.85-1.74,2.21-.12.17-.4.26-.85.26-.45,0-.82.03-1.11.08.03.15-.09.32-.36.51-.27.2-.38.37-.36.51l.5,2.83.5,2.83c.26-.19.64-.41,1.12-.65.48-.23.71-.42.68-.57l.47.14.22-.04c.14-.03.23.04.26.18l.08.44c-.09.32-.42,1.05-.96,2.19-.55,1.14-.95,1.82-1.22,2.01l.12.65.04.22c.26-.19.7-.46,1.32-.79s1.06-.52,1.36-.58c.14-.03.38.05.71.21.33.17.51.32.53.47.17.12.35.54.56,1.25.2.71.4,1.2.6,1.47.37.38.74,1.03,1.13,1.93.38.91.6,1.5.65,1.79.03.15.1.36.22.63.12.28.21.56.26.85.03.15.01.3-.03.45-.05.16-.06.31-.03.45l.08.44c.08.44-.25.72-.97.84-.12.17-.37.44-.76.81-.38.37-.65.56-.79.59l-.72,1.02.08.43.12.65c.03.15.21.34.55.58.17.12.33.17.47.14s.42-.15.83-.37c.41-.22.66-.49.76-.81.6-.85.84-1.57.74-2.15.17.12.28.33.33.61l.12.65c.18,1.02.19,1.54.05,1.56.05.29-.29.88-1.04,1.75-.74.88-1.16,1.48-1.25,1.79l.27,1.52.35,1.96c.03.15.24.3.64.45.4.15.62.31.64.45l.29.4-.18.26c.05.29-.04.61-.28.95s-.43.52-.58.55-.46-.07-.95-.28c-.49-.21-.9-.44-1.24-.68l.11.65.12.65c.32.1.84.75,1.58,1.97.74,1.22,1.13,1.97,1.18,2.26.17.12.31.7.42,1.72.1,1.03.19,1.69.24,1.98l.51.36c.34.24.58.35.73.32.29-.05.67,0,1.15.13.47.14.72.29.75.43l.08.44.08.43c.03.15.11.21.26.18-.12.17-.17.33-.14.47l.08.44c.05.29-.13,1-.53,2.11-.4,1.12-.58,1.82-.52,2.11.03.15.32.54.88,1.19.56.65,1,1.02,1.32,1.11l2.3,13.06c-.12.17-.29.5-.5.99-.22.49-.29.88-.24,1.16l.66,1.23c.05.29.25.56.59.79.17.12.27.25.29.4.22.41.56,1.06,1.02,1.95.46.89.7,1.41.72,1.56l.19,1.09.15.87c.03.15-.03.27-.16.36-.13.1-.25.31-.34.62l-.28.95.77,4.35.58,3.26ZM1189.92,242.64c-.58.1-.82.45-.72,1.02s.44.82,1.02.72c.44-.08.6-.4.5-.99s-.37-.83-.81-.76ZM1202.15,306.91l1.09-.19-.19-1.09-.9,1.28ZM1190.63,225.02c-.58.1-.81.48-.7,1.13s.46.93,1.04.83.81-.48.7-1.13-.46-.93-1.04-.83ZM1191.87,225.69c-.58.1-.82.45-.72,1.02.1.58.44.82,1.02.72.29-.05.38-.37.28-.95s-.3-.84-.59-.79ZM1216.83,357.06l.87-.15-.15-.87-.72,1.02ZM1202.53,227.63c.03.15-.18.48-.61,1-.43.53-.7.95-.79,1.26l.11.65.04.22c.26-.19.58-.55.93-1.06s.53-.84.5-.99l.14-.47-.3-.4-.04-.22ZM1206.27,242.45l-.15-.87-1.09.19,1.24.68ZM1222.73,335.82c-.58.1-.81.48-.7,1.13s.46.93,1.04.83.81-.48.7-1.13-.47-.93-1.04-.83ZM1208.47,244.76c-.12.17-.2.37-.23.6-.04.23-.11.43-.23.6.03.15,0,.49-.05,1.02-.06.54-.07.88-.04,1.02l1.09-.19-.54-3.05ZM1207.2,237.58l.87-.15-.19-1.09-.68,1.24ZM1212.39,232.62c-.46-.07-.65.12-.58.55s.33.61.77.54c.26-.19.37-.44.32-.73s-.22-.41-.51-.36ZM1214.6,240.09c.19.27.42.71.69,1.34.26.63.49,1.08.68,1.34l.47.14c.14-.03.28-.12.4-.29.09-.31.19-.85.28-1.62.09-.76.19-1.23.31-1.4-.05-.29.11-.88.47-1.77.37-.88.62-1.34.77-1.37l.14-.47c-.03-.14-.13-.28-.3-.4-.56-.65-.92-.96-1.06-.93l-.65.12-.22.04c-.12.17-.4.52-.83,1.04-.43.52-.7.95-.79,1.26-.15.03-.25.27-.32.73-.07.46-.15.85-.24,1.17l.12.65.08.43ZM1218.56,247.24c.05.29.16.5.33.61.05.29.35.72.9,1.3.55.58.99.98,1.34,1.22-.05-.29-.1-.77-.14-1.43-.04-.67-.09-1.14-.14-1.43s-.18-.79-.38-1.5c-.2-.71-.31-1.14-.34-1.29-.1-.58-.45-.82-1.02-.72s-.82.45-.72,1.02c.03.15,0,.26-.05.35-.06.09-.08.2-.05.35l.12.65.15.87ZM1217.33,228.83c-.15.03-.27.2-.36.51-.09.32-.2.56-.32.73l.44-.08.43-.08c.12-.17.27-.38.45-.64.18-.26.26-.46.23-.6l-.22.04-.65.12ZM1235.29,330.69c-.43.08-.6.44-.48,1.09s.39.94.83.86.6-.44.48-1.09-.39-.94-.83-.86ZM1236.94,340.05l.87-.15-.35-1.96-.87.15.35,1.96ZM1223.33,252.68c.03.15.11.2.26.18.19.27.58.72,1.14,1.37.56.65.92.96,1.06.94.03.15.11.2.26.18l.43-.08c.14-.03.21-.11.18-.26.12-.17.24-.75.37-1.75.12-.99.16-1.63.11-1.93s-.03-.81.06-1.58c.09-.76.18-1.3.27-1.62l-.43.08-.44.08c.03.15-.08.39-.32.73-.24.34-.43.52-.58.55l-.79.59c-.27.2-.46.38-.58.55-.15.03-.34.21-.58.55s-.35.59-.32.73l-.18.26.08.44ZM1234.34,260.39l.93-1.06-1.09.19.15.87ZM1234.93,253.56c.05.29.2.94.45,1.94.25,1,.48,1.64.67,1.9.03.15.17.35.44.6.27.25.47.37.62.34s.26-.19.36-.51c.09-.31.2-.56.32-.73.42-.97.6-1.68.53-2.11-.03-.14-.33-.39-.92-.74-.59-.34-.98-.65-1.17-.92l-1.31.23ZM1249.78,330.15c-.44.08-.6.41-.5.99s.37.83.81.76.6-.4.5-.99-.37-.83-.81-.76ZM1243.45,267.54c-.27.2-.58.55-.93,1.06-.36.51-.51.91-.46,1.2-.09.32-.17.74-.22,1.27-.06.54-.07.88-.04,1.02.29-.05.72-.16,1.29-.34.57-.17.92-.27,1.07-.3.12-.17.23-.38.34-.62.1-.24.22-.45.34-.62l-.15-.87-.15-.87c-.17-.12-.35-.27-.53-.47-.18-.19-.36-.35-.53-.47ZM1240.46,239.12c-.29.05-.4.26-.34.62s.24.52.53.47c.24-.34.17-.7-.19-1.09ZM1245.31,244.99c-.12.17-.27.38-.45.64-.18.26-.26.46-.23.6-.09.32-.14.7-.14,1.15,0,.45.02.75.04.89l1.31-.23-.54-3.05ZM1251.08,271.35c-.58.1-.83.41-.74.92s.42.71,1,.61c.29-.05.39-.33.3-.84s-.28-.74-.57-.68ZM1256.15,300.08c-.43.08-.62.3-.56.66s.31.5.75.43c.6-.85.53-1.22-.19-1.09ZM1254.4,268.52l.87-.15-.15-.87-.87.15.15.87Z"/>
      <path class="cls-3" d="M1357.16,335.9c-.24.34-.41.86-.51,1.55s-.14,1.11-.11,1.25c-.1-.58-.37-.83-.81-.76-.29.05-1.01.21-2.16.49-1.15.28-1.88.37-2.2.27-.15.03-.91-.06-2.29-.27-1.38-.21-2.46-.39-3.24-.55-.15.03-.38-.01-.69-.1l-.95-.28-.43.08-.44.08-.36.51c-.12.17-.25.27-.4.29l-.4.29-.26-.18c.09-.32-.08-.85-.51-1.59-.43-.75-.82-1.24-1.16-1.48s-1.08-.41-2.22-.51c-1.14-.1-1.85-.12-2.14-.07l-.35-1.96-3.06,3.01c.03.15-.22,0-.75-.43-.52-.43-.89-.78-1.08-1.04-.34-.24-.48-.81-.42-1.72.06-.91-.28-1.37-1.03-1.39-.68.42-.97.84-.9,1.28l.23,1.31c.08.43,0,.86-.22,1.27-.23.42-.92.72-2.08.93-2.61.46-4.35.39-5.2-.21-.86-.6-1.37-1.4-1.55-2.42s-.32-2-.41-2.96c-.09-.95-.68-1.49-1.74-1.6-.32-.09-1.14-.1-2.47-.01-1.33.09-2.29.18-2.87.28l.74-2.15c-1.48.11-2.79-.1-3.93-.65-1.14-.54-2.17-1.3-3.09-2.26-.92-.96-1.81-2-2.68-3.12-.87-1.12-1.69-2.13-2.45-3.05-.17-.12-.62-.56-1.36-1.33-.73-.77-1.29-1.34-1.65-1.73-2.3-1.99-3.8-3.74-4.52-5.26-.72-1.52-1.64-3.37-2.78-5.57l-.51-.36-.51-.36c-.25-.55-.63-1.68-1.16-3.39-.53-1.7-.83-2.77-.9-3.21l-.27-1.52c-.18-1.01-.2-1.98-.06-2.91.14-.92.1-1.96-.1-3.12l-.19-1.09c-.03-.14-.22-.41-.59-.79-.37-.38-.56-.65-.59-.79l-.69-3.92c-.1-.58-.22-1.64-.34-3.19-.13-1.55-.19-3.18-.19-4.9,0-1.72.18-3.25.54-4.58.36-1.33.98-2.08,1.85-2.23.13.73.09,1.37-.11,1.93-.2.56-.25,1.13-.15,1.71.58-.1,1.46-.18,2.65-.24,1.18-.06,1.93-.49,2.24-1.29.09-.31.21-.93.35-1.86.14-.92.19-1.45.17-1.6l.65-.12.35,1.96c.29-.05.74-.02,1.36.1.62.12.99.09,1.11-.08l.36-.51.36-.51c.29-.05.88-.27,1.79-.65.9-.38,1.42-.66,1.54-.83l-.19-1.09c-.28-1.6-.91-3.02-1.87-4.27-.97-1.25-1.61-2.75-1.91-4.49.87-.15,1.69-.15,2.47.01.78.16,1.6.17,2.47.01s1.33-.53,1.37-1.14c-.42-.67-.95-.95-1.61-.84s-1.3.08-1.93-.11l-.29-.4c-.1-.58.05-1.39.47-2.44.41-1.04.64-1.87.68-2.48.14-.03.54-.13,1.18-.32.64-.19,1.1-.31,1.4-.36s1.21-.14,2.76-.26c1.55-.12,2.4.25,2.55,1.12.03.15-.07.46-.28.95-.22.49-.31.8-.28.95l.12.65c1.16-.2,2.51-.59,4.06-1.16,1.54-.57,2.59-1.43,3.14-2.57.24-.34.35-1.22.32-2.64-.03-1.42.32-2.19,1.05-2.32.26,1.45,1.18,2.04,2.78,1.75.44-.08.97-.21,1.61-.4.64-.19,1.06-.52,1.28-1.01.07-.46-.01-.9-.23-1.31l-.59-.79-3.05.54c.29-.05.48-.27.56-.66.08-.39.11-.65.08-.8-.05-.29-.21-.75-.47-1.38-.26-.63-.54-.91-.83-.86.14-.03.28-.12.4-.29l.47.14c.14-.03.58.12,1.31.44.73.32,1.25.53,1.57.62.32.1,1.07.15,2.27.16,1.2.01,1.99.29,2.39.81.49,1.11.92,2.23,1.27,3.37.35,1.14,1.12,2.12,2.32,2.96.14-.03.28-.09.42-.19.13-.1.27-.16.42-.19l-.31-1.74.47.14.22-.04c.17.12.55.39,1.15.81.6.42.97.61,1.11.59l.22-.04.44-.08c.44-.08,1.18-.32,2.23-.73,1.05-.41,1.71-.71,1.97-.91l-.08-.43c-.13-.72-.68-1.11-1.66-1.17-.98-.05-1.64-.19-1.98-.44l-.26-.18c-.03-.14.02-.3.14-.47.09-.31.28-.76.55-1.33.27-.57.48-.87.63-.9.29-.05.92.14,1.89.56.97.43,1.62.69,1.93.78l.22-.04c1.59-.28,2.44-.99,2.54-2.13.1-1.14.59-2.16,1.48-3.07.34.24.88.74,1.61,1.51.73.77,1.27,1.27,1.61,1.51.14-.03.33.17.55.58.22.41.42.68.59.79l.47.14.18-.26c.14-.03.34-.21.58-.55.12-.17.25-.27.4-.29l-1.23-6.96,1.41-.92c-.01,1.65.32,3.31.99,4.99.67,1.68,1.51,3.25,2.51,4.72l1.19-.88-1.42-8.05c.17.12.33.17.47.14s.3-.01.45.03c.16.05.31.06.45.03.44-.08.69.1.77.54.34.24.74,1.03,1.2,2.37.46,1.34.73,2.23.81,2.66l.22-.04.65-.12.72-1.02c.36-.51.58-.92.68-1.24l7.4-1.3c-.24.34-.46,1.02-.65,2.02-.2,1.01-.27,1.66-.22,1.95-.12.17-.04.42.24.74.28.33.51.55.68.67.34.24,1.07.34,2.18.29,1.11-.05,1.89-.11,2.32-.18-.07.46-.36.74-.86.82s-1.05.22-1.61.4c-.57.18-1.15.47-1.75.87-.6.41-.95,1.22-1.03,2.43-.08-.43-.36-1.17-.84-2.21-.48-1.04-.82-1.69-1.02-1.95-.05-.29-.2-.71-.45-1.27-.25-.55-.47-.96-.67-1.23-.56-.65-.93-.85-1.11-.59-.18.26-.63.45-1.36.58.36,2.03.92,3.51,1.68,4.42.76.92,1.31,2.32,1.64,4.2l-1.52.27-.28.95,3.07,2.15c.17.12.28.1.33-.06.05-.16.14-.25.29-.28l-.12-.65-.59-.79c-.2-.26-.32-.54-.37-.83-.03-.14.02-.3.14-.47l.36-.51.65-.12c1.01-.18,1.76.25,2.25,1.29.48,1.04.64,1.94.48,2.72.18-1.53.6-2.5,1.28-2.92.67-.42,1.81-.77,3.41-1.05l.73,4.14c1.59-.28,2.63-.54,3.12-.77.48-.23,1.44-.1,2.87.39-.15.03-.39.15-.72.35-.34.21-.64.41-.9.61l.12.65c.21,1.16,1.06,1.76,2.56,1.79,1.5.04,2.61-.01,3.34-.14.03.15-.04.23-.18.26-.09.32-.21.71-.35,1.18-.14.47-.29.72-.43.75-.29.05-.59.03-.91-.06-.32-.09-.63-.15-.93-.17-.31-.02-.54-.09-.71-.21l-.95-.28-.95-.28c-.15.03-.42.19-.81.48s-.66.53-.77.7c1.85,1.17,3.61,2.66,5.27,4.46-.74.88-1.46,1.27-2.15,1.16s-1.55-.06-2.56.11c-.09.32-.13.55-.1.69l.08.44c.19.27.53.66.99,1.17.46.52.78.84.95.95.19.27.75.65,1.66,1.17.91.51,1.38.84,1.41.99.08.43-.03,1.13-.31,2.07-.28.95-.56,1.52-.82,1.72-.27-.7-.92-.96-1.93-.78-.29.05-.58.14-.85.26-.28.13-.44.49-.48,1.1.6.04.96.36,1.06.93l.27,1.52c.18,1.02.08,1.75-.29,2.18-.37.44-.87.79-1.5,1.05-.63.26-1.38.47-2.25.62s-1.66.37-2.36.64c-.82.45-.97,1.07-.45,1.88.51.81.37,1.43-.45,1.88-.59-.79-1.08-1.23-1.46-1.31-.39-.08-.95-.06-1.67.07-1.6.28-2.51.82-2.75,1.61-.24.79-.76,1.41-1.58,1.85l-1.9-.56c-.32-.09-.8-.31-1.46-.64-.66-.33-1.15-.54-1.46-.64l-.5.99.81.76c-.43.97-.64,1.87-.65,2.7,0,.82-.02,1.61-.03,2.36-.02.75-.15,1.49-.4,2.2-.25.72-.84,1.38-1.78,2,.26-1.09.08-2.07-.52-2.94-.6-.86-1.48-1.2-2.64-.99-.73.13-1.23.48-1.5,1.05-.27.57-.49,1.25-.65,2.02-.03-.14-.1-.35-.22-.63-.13-.28-.2-.49-.22-.63-.05-.29-.06-.55-.03-.78.03-.23.04-.42.01-.56s.05-.57.22-1.27c.17-.7.25-1.13.22-1.27-.1-.58-.45-.82-1.02-.72l-1.31.23c-.73.13-1.66.59-2.78,1.39-1.13.8-1.63,1.56-1.5,2.28.03.15.12.28.29.4.19.27.69.52,1.48.75.79.24,1.28.49,1.48.75.17.12.31.92.42,2.39.11,1.48.26,2.35.46,2.61.03.15.14.35.33.61l.59.79.04.22c.03.15.12.28.29.4-1.03.93-1.88,1.68-2.52,2.24-.65.56-1.31,1.06-1.98,1.47-.68.42-1.09.64-1.23.67-.2-1.16,0-2.09.63-2.8.62-.71.83-1.64.63-2.8s-.56-1.7-1.07-1.61l-2.29.4c.05.29.19.68.43,1.16.23.49.38.87.43,1.16-.04.61-.23,1.69-.55,3.24-.19.63-.29,1.32-.31,2.07l-.43.08c-.08-.44-.31-1.14-.71-2.12-.4-.98-1.08-1.23-2.04-.76-.58.1-1.67.48-3.28,1.14-1.61.66-2.75,1.2-3.42,1.61-.12.17-.31.36-.58.55l-.79.59-1.31.23c-.28-1.59-1.25-2.84-2.91-3.75.03.15-.25.27-.83.37l.73,4.14c-1.02.18-1.73-.29-2.16-1.42-.42-1.12-1.14-1.59-2.16-1.41.08.44.12,1.14.15,2.11.02.97.07,1.67.15,2.11.05.29.37.83.96,1.63.59.79,1.04,1.24,1.36,1.33l1.38.21c.92.14,1.6.17,2.04.09,2.11.08,4.1.14,5.98.18,1.88.04,3.74.2,5.58.47,1.7.3,3.47.4,5.33.3,1.85-.1,3.64.07,5.36.51.46.07,1.16.21,2.09.42.93.21,1.42.39,1.44.53.17.12.39.53.66,1.23.27.7.49,1.11.67,1.23.14-.03.68.03,1.6.17.92.14,1.6.17,2.04.09l.87-.15c.87-.15,1.61-.43,2.21-.84.6-.4,1.34-.69,2.21-.84,1.6-.28,3.01-.34,4.23-.18,1.22.16,2.71.08,4.45-.22.21,1.16.62,1.8,1.23,1.91.62.12,1.29.11,2.02-.02,1.16-.2,1.82-.51,1.97-.91.15-.4.59-.67,1.32-.79.58-.1.97-.02,1.16.24.19.27.33.58.39.94s.19.68.39.94c.19.27.58.35,1.16.24,1.01-.18,1.33-.72.95-1.63-.38-.9-.07-1.45.95-1.63.14-.03.33-.02.56.01.23.04.42.04.56.01.32.1.69.1,1.13.03s.88-.08,1.34-.01c.6.04,1.2.01,1.78-.09.63.19,1.01.65,1.14,1.37.13.73.63,1.01,1.5.86l.22-.04,3.62-4.9,7.62-1.34-.5.99c.61.94,1.62,1.32,3.01,1.15,1.39-.17,2.54.19,3.44,1.08l-1.77,1.43c.18,1.02.27,1.97.28,2.87-.02.75.02,1.61.12,2.56.09.96.19,1.73.29,2.3-.02.75-.09,1.18-.22,1.27-.13.1-.56.21-1.29.34l.19,1.09,2.39-.42.77,4.35-.22.04c-.29.05-.45,0-.47-.14-.15.03-.31-.06-.49-.25-.18-.19-.35-.28-.49-.25-.34-.24-.99-.5-1.93-.78-.95-.28-1.58-.47-1.89-.56l-.4.3c.13.72.28,1.15.45,1.27s.36.16.58.12.4-.04.56.01c.16.05.27.29.35.72.13.72-.02,1.38-.44,1.98-.42.6-.99.96-1.72,1.09l-1.09.19c-.17-.12-1-.13-2.47-.01-1.48.11-2.37.12-2.69.02l-.43.08-.44.08-.36.51c-.12.17-.17.33-.14.47-.29.05-.71.2-1.27.45-.56.24-.98.4-1.27.45l-.54-3.05c-2.85.8-5.24,2.12-7.16,3.96l-.69-3.92c-.17-.12-.33-.17-.47-.14l-.44.08c-.12.17-.23.6-.33,1.29-.1.69-.13,1.18-.08,1.47l-4.14.73-.82,1.72c-.03-.15-.29-.4-.81-.76-.29.05-.9,0-1.82-.13-.61-.04-1.13-.03-1.56.05-.34-.24-.34-.65,0-1.24.34-.59.49-1.02.44-1.31-.15.03-.59.07-1.33.12-.74.05-1.18.1-1.33.12l-.36.51-.36.51c-.29.05-.86.19-1.72.42-.86.23-1.43.36-1.72.42l-.38-2.18c-.12.17-.23.41-.32.73-.1.32-.22.49-.36.51l-.44.08-.22.04c-.15.03-.39-.08-.73-.32s-.52-.43-.55-.58l-.22.04-.65.12c-.65.56-1.05,1.27-1.2,2.12-.15.85-.26,1.69-.34,2.53-.08.83-.22,1.53-.42,2.09-.2.56-.52.88-.95.95-.73.13-1.2-.01-1.42-.42-.22-.41-.42-.9-.6-1.47-.18-.57-.38-1.06-.59-1.47-.22-.41-.77-.54-1.64-.38l-.65.12ZM1285.65,272.66c-.44.08-.61.37-.52.88s.35.72.79.65c.29-.05.39-.33.3-.84s-.28-.74-.57-.69ZM1294.61,278.94c-.43.08-.61.37-.52.88s.35.72.79.65c.29-.05.39-.33.3-.84s-.28-.74-.57-.68ZM1294.49,274.47c-.51.54-.68,1.24-.53,2.11.87-.15,1.46-.63,1.77-1.43l-1.24-.68ZM1297.06,289.05c.09-.31-.04-.44-.4-.38s-.45.23-.25.49c.19.27.37.38.51.36s.19-.18.14-.47ZM1297.16,267.94c-.73.13-1.14.73-1.25,1.79-.11,1.07-.14,1.75-.09,2.03.29-.05.89-.45,1.81-1.22.91-.76,1.34-1.28,1.29-1.57l-.08-.43c-.34-.24-.67-.4-.99-.5-.32-.09-.55-.13-.69-.1ZM1298.39,271.09c-.32-.09-.4.26-.26,1.06s.34,1.1.61.9c.24-.34.33-.69.26-1.06s-.27-.66-.61-.9ZM1308.57,295.77c.05.29,0,.6-.17.93-.17.33-.15.63.04.89.14-.03.44.15.88.52.44.37.82.61,1.13.7.55-.25.75-.84.58-1.79s-.27-1.56-.33-1.85c-.18-1.01-.51-1.82-.99-2.41-.48-.59-.81-1.39-.99-2.41-.13-.72-.06-1.37.22-1.95.27-.57.77-.92,1.5-1.05l.44-.08c.03.15.34.43.93.84.6.42.97.61,1.11.59l.44-.08.43-.08c.12-.17.31-.35.58-.55l.79-.59c.26-.19.86-.41,1.79-.65.93-.24,1.44-.51,1.54-.83.12-.17.17-.74.15-1.71-.02-.97.03-1.54.15-1.71.14-.03.59-.25,1.34-.68.75-.43,1.34-.69,1.77-.76l.65-.12.22-.04c.14-.03.6.04,1.38.21.78.16,1.24.23,1.38.2,1.01-.18,2.12-.9,3.32-2.16,1.2-1.26,2.13-2.09,2.81-2.52.52,1.25,1.01,2.14,1.48,2.66.46.52,1.28.67,2.44.47.29-.05.9-.19,1.83-.43.93-.24,1.49-.67,1.68-1.31l.33-7.02c.67-.42,1.66-.97,2.96-1.65,1.3-.68,2.31-1.08,3.04-1.21l.44-.08c.31.1.84.3,1.57.62.73.32,1.18.54,1.35.66l.44-.08.44-.08c.14-.03.3-.2.47-.53.17-.33.24-.56.21-.71.09-.31.13-1.15.12-2.49-.01-1.34-.06-2.23-.13-2.67.44-.08,1.4-.36,2.88-.84s2.43-.84,2.84-1.06c.58-.1,1.42-.4,2.54-.9.55-.25,1.12-.42,1.7-.53l-1.23-6.96c.1.58.37.83.81.76.68.48,1.51.93,2.48,1.36.51.36,1,.57,1.46.64l.72-1.02c-1.49-1.68-2.58-3.17-3.26-4.47-.68-1.3-2.1-2.58-4.27-3.85-.83-.45-2.17-1.08-4.03-1.87-1.86-.79-3.23-1.11-4.1-.96-1.6.28-2.9.93-3.92,1.93-1.02,1-2.03,2.08-3.02,3.23-1,1.15-2.11,2.24-3.35,3.28-1.24,1.04-2.87,1.74-4.9,2.1l-.65.12c-.29.05-.95-.09-1.98-.44-1.03-.34-1.64-.57-1.81-.69l-.43.08-.44.08c.03.15-.01.56-.12,1.25-.1.69-.2,1.2-.29,1.51l-1.43,2.05c-.12.17-.31.36-.58.55-.12.17-.33.28-.61.33l-.22.04c-.12.17-.35.55-.7,1.13-.34.59-.58.96-.7,1.13-.29.05-.88.12-1.76.2-.88.08-1.46.22-1.72.42-.15.03-.26.42-.35,1.18-.09.77-.12,1.22-.1,1.36s-.06.31-.25.49c-.19.18-.35.36-.47.53l-.81-.76c-3.72,3.5-5.61,7.65-5.66,12.44-.97-.42-1.68-.15-2.1.82-.43.97-.75,1.7-.96,2.19.05.29,0,.9-.13,1.82-.14.92-.18,1.53-.13,1.82l-1.52.27-2.47-3.83c.03.15.04.44.04.89,0,.45.03.82.08,1.11.21,1.16.55,2.07,1.04,2.73.49.66.84,1.57,1.04,2.73.03.15.02.3-.03.45-.05.16-.06.31-.03.45l.12.65c-.09.32-.49.65-1.17.99-.69.35-1.19.47-1.5.38l1.04,5.88-2.18.38.19,1.09c.87-.15,1.61-.43,2.21-.84.6-.4,1.41-.7,2.43-.88ZM1307.06,301.2c.09-.31-.04-.44-.4-.38s-.45.23-.25.49c.19.27.37.38.51.36s.19-.18.14-.47ZM1299.08,259.75c.03.15.16.27.4.38.24.11.38.23.4.38.29-.05.92-.08,1.89-.11.97-.02,1.6-.06,1.89-.11-.26-1.45-.82-2.1-1.69-1.95l-.44.08c-.29.05-.71.24-1.25.56-.54.32-.95.58-1.21.77ZM1302.15,261.9c-.43.08-.61.37-.52.88s.35.72.79.65c.29-.05.39-.33.3-.84s-.28-.74-.57-.68ZM1300.4,249.42c.21,1.16.79,1.96,1.77,2.38.97.43,1.89.56,2.76.41-.28-1.6-.75-2.52-1.39-2.78-.65-.26-1.69-.26-3.14,0ZM1312.3,305.44c-.29.05-.38.37-.28.95s.3.85.59.79c.44-.08.6-.4.5-.99s-.37-.83-.81-.76ZM1312.23,294.9c-.44.08-.6.44-.48,1.09s.39.94.83.86.6-.44.48-1.1-.39-.94-.83-.86ZM1305.21,255.08c.1.58.44.82,1.02.72.55-.25.81-.7.77-1.37-.04-.67-.09-1.14-.14-1.43-.44.08-.85.26-1.25.56-.4.3-.54.73-.44,1.31l.04.22ZM1307.63,268.79c.08.44.4.6.99.5l-.08-.43-.04-.22c-.03-.14-.2-.3-.53-.47-.33-.17-.5-.32-.53-.47l.12.65.08.43ZM1321.86,329.11c-.58.1-.82.45-.72,1.02l.08.44.08.43c.67-.42,1.39-.81,2.15-1.16.76-.36,1.05-1.04.87-2.06-.03-.14-.08-.21-.15-.2-.08.01-.12-.05-.15-.2l-.04-.22c-.34-.24-.95-.51-1.82-.8-.88-.29-1.47-.49-1.79-.58l-.72,1.02-.14.47.08.43c.03.15.11.21.26.18.03.15.29.4.81.76.51.36.91.51,1.2.46ZM1321.6,332.75c-.43.08-.61.37-.52.88s.35.72.79.65.61-.37.52-.88-.35-.72-.79-.65ZM1308.9,260.71l.87-.15-.46-2.61-.87.15.46,2.61ZM1315.14,291.03c.09-.31-.04-.44-.4-.38s-.52.24-.47.53.19.42.4.38.37-.21.47-.53ZM1322.74,334.12c-.29.05-.4.26-.34.62s.24.52.53.47c.67-.42.61-.78-.19-1.09ZM1309.5,255.22c.09-.31-.04-.44-.4-.38s-.45.23-.25.49c.19.27.37.38.51.36s.19-.18.14-.47ZM1320.94,323.89l1.52-.27-.12-.65-1.52.27.12.65ZM1325.32,334.78c.09-.31-.04-.44-.4-.38s-.52.24-.47.53c.17.12.36.16.58.12s.31-.13.29-.28ZM1325.54,330.93c-.43.08-.6.44-.48,1.09s.39.94.83.86.6-.44.48-1.1-.39-.94-.83-.86ZM1321.97,310.69l.87-.15-.15-.87-.87.15.15.87ZM1312.1,249.6c-.43.08-.6.41-.5.99s.37.83.81.76.6-.4.5-.99-.37-.83-.81-.76ZM1313.12,250.32c-.44.08-.6.41-.5.99s.37.83.81.76.6-.4.5-.99-.37-.83-.81-.76ZM1315.91,261.04c-.44.08-.6.41-.5.99s.37.83.81.76.6-.4.5-.99-.37-.83-.81-.76ZM1327.58,327.21l1.74-.31-.51-.36c-.17-.12-.33-.17-.47-.14l-.47-.14c-.15.03-.28.13-.4.29l.12.65ZM1315.58,248.99c-.09.32.02.75.34,1.29.32.54.58.95.77,1.21l.44-.08.43-.08,2.46-1.33-.08-.43c-.13-.73-.52-1.44-1.16-2.15-.65-.71-1.36-1.14-2.14-1.31-.09.32-.31.8-.64,1.46-.33.66-.47,1.13-.42,1.42ZM1333.42,325.95c-.73.13-1.32.38-1.77.76-.46.38-.62.93-.49,1.66l2.61-.46-.35-1.96ZM1335.08,325.21l.17.98c.06.36.19.68.39.94l.67,1.23,1.09-.19-.96-5.44c-1.16.21-1.61,1.03-1.36,2.48ZM1322.11,247.83c-.29.05-.38.37-.28.95s.3.85.59.79c.58-.1.82-.44.72-1.02s-.45-.82-1.02-.72ZM1323.76,257.19c-.29.05-.39.33-.3.84s.28.74.57.68c.58-.1.83-.41.74-.92s-.43-.71-1-.61ZM1323.05,242.96c-.73.13-1.23.66-1.51,1.61l1.74-.31-.23-1.31ZM1324.7,256.13c.14-.92.22-1.68.27-2.29.04-.6-.01-1.34-.17-2.21-.05-.29-.13-.72-.23-1.31s-.46-.89-1.06-.94l1.19,6.75ZM1334.6,297.02l.54-.77-1.74.31,1.2.46ZM1340.75,317.93c-.43.08-.6.41-.5.99s.37.83.81.76.6-.4.5-.99-.37-.83-.81-.76ZM1337.29,293.18c.09-.31-.04-.44-.4-.38s-.52.24-.47.53c.44.82.73.77.87-.15ZM1344.31,333.01c.09-.31-.04-.44-.4-.38s-.52.24-.47.53c.44.82.73.77.87-.15ZM1329.54,249.22c.73.77,1.38,1.44,1.93,2.02.55.58,1.33.78,2.35.6l1.31-.23c.44-.08.67-.42.72-1.02-.15.03-.32-.09-.51-.36-.2-.26-.37-.38-.51-.36s-.56-.01-1.25-.12-1.12-.21-1.29-.33c-.15.03-.34-.2-.57-.69-.24-.48-.43-.71-.57-.68l-.44.08-.65.12-.36.51c-.12.17-.17.33-.14.47ZM1345.5,320.68c.09-.31-.19-.42-.84-.3s-.88.31-.69.57c.19.27.51.36.95.28s.63-.26.58-.55ZM1348.27,321.09c.58-.1,1.11-.49,1.59-1.18l-1.74.31.15.87ZM1343.24,277.32l.87-.15-.15-.87-.87.15.15.87ZM1346.02,282.89l-.15-.87-.87.15,1.02.72ZM1343.22,270.82c.08.44.26,1.04.54,1.81.28.77.64,1.53,1.08,2.28.43.75.92,1.41,1.47,1.98.55.58,1.19.8,1.91.67l.18-.26.36-.51.36-.51c.09-.31.04-1.05-.17-2.21l-.38-2.18c-.73.13-1.33.54-1.81,1.22-.42-.67-.9-1.26-1.43-1.77-.54-.5-1.24-.68-2.11-.53ZM1341.74,240.78c.05.29.17.76.36,1.4.19.64.58.98,1.19,1.02.58-.1.82-.44.72-1.02l-.08-.43c-.1-.58-.38-.9-.84-.97-.46-.07-.91-.06-1.34.01ZM1348.86,279.92l.87-.15-.19-1.09-.87.15.19,1.09ZM1357.59,319.22c1.75.59,2.99,1.27,3.73,2.04.29-.05.49-.16.61-.33l.36-.51c-.05-.29-.12-.91-.22-1.87-.09-.95-.17-1.58-.22-1.87-.73.13-1.45.48-2.17,1.06-.72.58-1.42,1.07-2.09,1.49ZM1360.16,333.8l1.09-.19c-.13-.73-.59-1.24-1.4-1.55l.31,1.74ZM1360.71,322.93c.13.73.34,1.51.64,2.36.3.85.95,1.18,1.97,1l.65-.12c-.3-.84-.66-1.64-1.09-2.39-.43-.74-1.16-1.03-2.17-.85ZM1353.77,279.73c.05.29.19.9.43,1.83.24.93.73,1.41,1.48,1.42.7-.27.97-.88.8-1.82l-.33-1.85-2.39.42ZM1356.3,286.46l-.31-1.74-.97.84,1.28.9ZM1352.24,264.74c.03.15.12.28.29.4.03.15.12.28.29.4l.51.36c.08-1.21.69-1.99,1.83-2.34,1.13-.35,2.16-.45,3.09-.32-.39-.53-.88-.74-1.46-.64l-1.31.23c-.29.05-.94.2-1.94.45-1,.25-1.44.74-1.31,1.46ZM1359.22,264.85c-.27.2-.63.45-1.1.76-.47.31-.67.68-.59,1.11l3.05-.54-1.36-1.33ZM1353.67,242.27l1.52-.27-.15-.87-1.52.27.15.87ZM1370.85,330.8c-.29.05-.38.4-.26,1.06s.31.95.61.9c.58-.1.81-.48.7-1.13s-.47-.93-1.04-.83ZM1364.37,278.76l.93-1.06-1.74.31.81.76ZM1362.56,268.53c-.29.05-.38.37-.28.95s.3.85.59.79c.58-.1.82-.44.72-1.02s-.45-.82-1.02-.72ZM1363.07,265.07c-.05-.29-.26-.4-.62-.34s-.52.24-.47.53c.19.27.4.38.62.34s.37-.21.47-.53ZM1363.79,275.49l1.09-.19-.15-.87-1.09.19.15.87ZM1367.69,277.27c-.05-.29-.26-.4-.62-.34s-.45.23-.25.49c.19.27.4.38.62.34s.3-.2.25-.49ZM1365.94,272.42l.87-.15-.15-.87-.72,1.02ZM1364.43,258.77c-.44.08-.61.37-.52.88s.35.72.79.65.61-.37.52-.88-.35-.72-.79-.65ZM1365.62,261.7c.28,1.6.87,2.8,1.76,3.62.89.82,1.67,1.84,2.34,3.07.36-.51.51-.91.46-1.2l-.04-.22-.08-.43c-.05-.29-.24-.74-.58-1.36s-.51-.99-.54-1.14c-.47-.96-.78-1.66-.93-2.08-.15-.42-.95-.51-2.4-.25ZM1370.6,273.39c-.44.08-.61.37-.52.88s.35.72.79.65c.29-.05.39-.33.3-.84s-.28-.74-.57-.69ZM1367.49,251.95c-.29.05-.38.4-.26,1.06s.3.88.57.69c.26-.19.36-.51.28-.95s-.27-.7-.59-.79ZM1367.79,248.53c-.44.08-.6.41-.5.99s.37.83.81.76.6-.4.5-.99-.37-.83-.81-.76ZM1373.96,263.15l-.15-.87-2.61.46,2.76.41ZM1384.7,316.46c-1.6.28-2.29,1-2.09,2.16,1.01-.18,1.86-.92,2.52-2.24l-.44.08ZM1372.56,250.16c-.44.08-.6.44-.48,1.09s.39.94.83.86.59-.44.48-1.09-.39-.94-.82-.86ZM1373.59,250.87c-.44.08-.6.41-.5.99s.37.83.81.76.6-.4.5-.99-.37-.83-.81-.76ZM1389.09,319.73c.03.15.21.34.55.58l.51.36c.44-.08.87-.38,1.3-.9.43-.53.76-.96,1.01-1.3l-1.02-.72-.44.08-.43.08c-.12.17-.38.37-.79.59-.41.22-.68.42-.79.59l.08.44.04.22ZM1392.18,327.04l-.11-.65-.87.15.99.5ZM1391.01,315.35c-.44.08-.61.37-.52.88s.35.72.79.65.61-.37.52-.88-.35-.72-.79-.65ZM1393.74,315.54c-.58.1-.82.45-.72,1.02s.44.82,1.02.72c.29-.05.38-.37.28-.95s-.3-.84-.59-.79ZM1401.73,326.47c-1.02.18-1.55.57-1.59,1.18l.44-.08.43-.08c.12-.17.38-.37.79-.59.41-.22.6-.41.58-.55l-.65.12Z"/>
      <path class="cls-3" d="M1428.59,312.09c-.05-.29-.05-1.15,0-2.58.05-1.43.04-2.29,0-2.58s-.58-.76-1.59-1.4c-1.01-.64-1.54-1.11-1.59-1.4s.31-.8,1.08-1.54l1.15-1.1-.38-2.18c-.61-3.48-2.06-6.78-4.33-9.9-2.27-3.11-3.94-6.45-5.02-10-1.62-4.95-3.06-9.74-4.33-14.38-1.27-4.64-2.36-9.57-3.28-14.79l-2.57-14.58c-.14-1.62-.1-3.31.12-5.07.21-1.76.74-3.23,1.58-4.43,1,.57,2.16,1.64,3.48,3.2,1.32,1.56,2.54,2.1,3.65,1.6.14-.03.63-.45,1.46-1.27.83-.82,1.37-1.32,1.64-1.52l1.52-.27c1.59-.28,2.92-.18,3.98.31,1.06.49,2.34,1.2,3.85,2.13.27.7.61,1.99,1.02,3.86.4,1.87.87,3.85,1.38,5.93.51,2.08,1.16,4.06,1.94,5.94.78,1.88,1.7,3.26,2.75,4.12.17.12.33.17.47.14l1.09-.19c.29-.05.75-.21,1.38-.47.63-.26.86-.83.71-1.7-.26-1.45-1.17-2.82-2.75-4.12-1.57-1.29-2.5-2.74-2.78-4.33-.08-.44.1-1.1.54-2,.44-.9.94-1.85,1.52-2.85.57-1,1.17-1.85,1.79-2.56.62-.71,1.08-1.09,1.37-1.14l.47.14.22-.04c.14-.03.35.09.62.34.27.25.47.36.62.34l.44-.08c.87-.15,1.4-.54,1.59-1.18.19-.63.25-1.35.18-2.16-.07-.81-.17-1.61-.31-2.41-.14-.8-.11-1.44.11-1.93.24-.34.86-1.05,1.87-2.12,1.01-1.07,1.76-1.88,2.27-2.42l.65-.12c.87-.15,1.43.27,1.68,1.27.25,1,1.25,1.35,2.99,1.04,1.88-.33,3.35-1.34,4.4-3.02,1.05-1.68,1.9-3.44,2.55-5.27.65-1.83,1.21-3.54,1.68-5.12.47-1.58,1.06-2.43,1.79-2.56,1.01-.18,2.12-.07,3.31.31,1.19.39,2.42.81,3.7,1.26,1.27.45,2.52.9,3.72,1.36,1.2.46,2.25.69,3.15.68.46.07,1.52-.08,3.17-.45,1.65-.37,2.63-.58,2.92-.63.14-.03.76.31,1.86,1.02,1.1.7,2.28,1.47,3.55,2.29,1.27.82,2.45,1.59,3.55,2.29,1.1.71,1.73,1.12,1.9,1.24l3.22,14.47-.42,1.42c1.85,1.17,3.21,2.13,4.1,2.87.88.74,1.48,2.06,1.82,3.94.26,1.45.21,2.47-.13,3.05-.34.59-.35,1.82-.02,3.71.31,1.74.81,3.33,1.52,4.78.7,1.45,1.2,2.97,1.48,4.56l.19,1.09c.03.15-.14.47-.5.99-.27.2-.46.38-.58.55.05.29.28.74.69,1.34.4.6.76.95,1.08,1.04,1.4-.55,2.43-1.06,3.09-1.56.66-.49.88-1.39.65-2.69-.15-.87-.52-1.44-1.09-1.72-.57-.27-.92-.77-1.05-1.5-.05-.29.37-1.11,1.25-2.46.88-1.35,1.9-2.8,3.05-4.35,1.15-1.55,2.23-3.05,3.25-4.5,1.01-1.45,1.63-2.42,1.84-2.91.42-.97,1.3-2.59,2.63-4.84,1.32-2.25,2.8-4.49,4.42-6.73,1.63-2.23,3.29-4.24,4.99-6.04,1.7-1.79,3.21-2.81,4.51-3.04l1.31-.23c.17.12.55.35,1.13.7.58.35,1.02.49,1.31.44.87-.15,1.75-.65,2.66-1.48.9-.83,1.7-1.79,2.41-2.89.7-1.09,1.28-2.28,1.73-3.56.45-1.27.58-2.42.4-3.44.34.24,1.21.5,2.6.78,1.4.28,2.4.44,3,.48.08.44.28.77.63,1.01l.51.36c.29-.05.62-.3.99-.74.37-.44.6-.81.7-1.13l-.08-.43-.26-.18-1.09.19c-.67-3.77-.6-6.36.2-7.78.8-1.41,3-2.89,6.63-4.42,1.24.23,2.5.83,3.8,1.8,1.29.97,2.56,1.98,3.79,3.03,1.23,1.06,2.4,1.97,3.51,2.75,1.11.78,2.1,1.09,2.97.93.29-.05.65-.34,1.08-.86.43-.53.63-.86.61-1.01l1.09-.19c.87-.15,1.7.3,2.48,1.36.78,1.06,1.54,2.35,2.25,3.87.72,1.52,1.32,3.02,1.8,4.51.49,1.48.78,2.52.88,3.1.67,3.77.79,7.64.36,11.61-.42,3.97-.3,7.83.36,11.6.1.58.7,1,1.79,1.25l1.9.56c-.24.34-.54.96-.91,1.84-.37.89-.6,1.49-.69,1.8l-.36.51c.05.29.15.42.29.4.03.15.11.21.26.18.19.27.6.64,1.21,1.13.61.49,1.06.71,1.35.66.05.29-.05.79-.3,1.51-.25.72-.35,1.22-.29,1.51l1.07,6.09c.28,1.6.52,2.98.73,4.13s.47,2.27.81,3.34c.33,1.06.76,2.19,1.27,3.37.51,1.18,1.2,2.59,2.09,4.23.05.29.52.84,1.41,1.66.89.82,1.35,1.3,1.38,1.44.05.29-.04.83-.28,1.62-.24.79-.72,1.25-1.44,1.38.05.29.1.99.15,2.11.05,1.11.12,1.96.22,2.54.31,1.74.92,3.09,1.84,4.05.92.96,1.85,1.81,2.8,2.54.95.73,1.85,1.4,2.71,1.99.85.6,1.38,1.47,1.59,2.64l-1.52.27c-.34-.24-1.18-.54-2.52-.9-1.34-.36-2.22-.51-2.66-.43-.29.05-1,.47-2.13,1.27-1.13.8-1.75,1.35-1.84,1.67l-1.31.23c-2.61.46-5.14-.74-7.59-3.6-2.45-2.86-4.79-6.6-7.03-11.22-2.24-4.62-4.32-9.63-6.24-15.06-1.93-5.42-3.72-10.49-5.38-15.21-1.66-4.72-3.13-8.61-4.41-11.68-1.29-3.06-2.37-4.52-3.24-4.37l-.65.12c-.33.66-1.21,1.86-2.62,3.6-1.41,1.75-2.42,3.05-3.01,3.9-.27.2-.89,1.09-1.88,2.69-.99,1.6-1.53,2.55-1.63,2.87l-1.09.19c-1.02.18-1.74.12-2.16-.18-.43-.3-1.29-.33-2.6-.1.31,1.74.72,3.24,1.24,4.49.52,1.25.88,2.46,1.09,3.62s.19,2.36-.04,3.6c-.23,1.24-.87,2.7-1.92,4.38l-.44.08-.87.15c-.2-.26-.52-.84-.98-1.74-.46-.89-.8-1.54-1.02-1.95l-.23-1.31c-.13-.72-.48-1.04-1.06-.93-.29.05-.67.23-1.14.54-.47.31-.68.61-.63.9l1,5.66,2.23,1.18c.05.29,0,.6-.17.93-.17.33-.4.52-.68.57-.58.1-1.2-.01-1.86-.35-.61-.04-1.15-.17-1.64-.38-.73.13-1.5.6-2.33,1.42-.83.82-1.18,1.59-1.05,2.32.03.15.12.28.3.4.03.15.11.2.26.18.46.07.99.13,1.6.17,1.07.11,1.77.29,2.11.52l.51.36.51.36c.54,3.05-.13,5-2,5.85-1.87.86-3.95,1.56-6.25,2.11-.2-1.16-.62-2.25-1.25-3.26-.63-1.01-1.45-1.43-2.46-1.25-1.6.28-2.67,1.41-3.22,3.37-.55,1.97-.72,3.53-.52,4.69.26,1.45,1.05,2.55,2.37,3.28,1.33.74,2.16,2.05,2.49,3.94.61,3.48.22,5.94-1.17,7.39-1.39,1.45-3.13,2.61-5.22,3.5-2.09.89-4.12,1.89-6.09,2.98-1.98,1.1-3.26,2.97-3.83,5.61l-.65.12-.65.12c-.17-.12-.64-.45-1.41-.99-.77-.54-1.31-.86-1.63-.95l-.65.12c.03.14-.19.41-.65.79-.46.38-.66.71-.61,1.01l-.44.08-.65.12-.88-1.19-.59-.79c-.03-.15.03-.68.17-1.6.07-.46.21-.93.42-1.42-.03-.14,0-.37.1-.69.09-.31.12-.62.06-.91-.36-2.03-.82-4.45-1.39-7.27-.57-2.82-1.26-5.65-2.06-8.5-.8-2.85-1.66-5.58-2.57-8.19-.91-2.61-1.95-4.7-3.13-6.29-.98-1.32-1.85-2.4-2.59-3.25-.75-.84-1.43-1.73-2.04-2.67-.61-.94-1.17-1.96-1.66-3.07-.5-1.11-.92-2.68-1.28-4.71l-1.04-5.88c-.03-.14.12-.58.44-1.31.32-.73.47-1.17.44-1.31-.15-.87-.66-2.05-1.52-3.55-.86-1.49-1.37-2.23-1.51-2.2l-3.27.58c.45-.83.62-1.6.49-2.33l-.42-2.39-.42-2.39c-.27.2-.62.52-1.06.97-.45.45-.81.7-1.1.76-.58.1-1.04-.15-1.37-.77-.33-.61-.72-1.33-1.16-2.15-.45-.82-.92-1.59-1.42-2.33-.5-.73-1.13-1.11-1.88-1.13-.92-.14-1.92.56-3,2.1-1.08,1.54-2.03,3.35-2.86,5.44-.83,2.09-1.63,4.14-2.4,6.14-.77,2.01-1.32,3.34-1.65,3.99-.22.49-.68,1.24-1.4,2.27-.72,1.02-1.06,1.61-1.04,1.75-.27.2-.84.52-1.74.98-.89.46-1.46.86-1.7,1.2l.04.22.12.65c.32.1.76.28,1.33.55.57.28.94.47,1.11.59l-3.58,5.12c.7-.27,1.39-.36,2.09-.26.69.1,1.11.59,1.27,1.46.21,1.16.01,1.98-.58,2.46-.59.48-.78,1.3-.58,2.46s.63,1.65,1.27,1.46c.64-.19,1.04.15,1.19,1.02l.08.43c-.31.8-1.18,1.82-2.61,3.04-1.43,1.23-2,2.64-1.72,4.23.15.87.51,1.59,1.06,2.17.55.58.9,1.3,1.06,2.17.74,4.21.19,7.41-1.67,9.61-1.86,2.2-4.67,3.63-8.44,4.29.08.44.26,1.27.55,2.48.29,1.22.55,2.48.78,3.79.23,1.31.48,2.53.76,3.68.28,1.15.45,1.94.53,2.37.05.29.09.73.12,1.33.03.6,0,1.27-.09,2.04-.09.77-.27,1.43-.54,2-.27.57-.7.91-1.28,1.01l-.44.08c-.29.05-.78.03-1.47-.08-.69-.1-1.11-.14-1.25-.12l-.22.04c-1.16.21-2.25.84-3.25,1.92-1.01,1.08-1.85,1.82-2.52,2.24l-.65.12c-2.76.49-4.79.02-6.08-1.4-1.3-1.42-2.19-3.5-2.67-6.26l-.31-1.74ZM1418.94,244.67c.56,3.19,1.12,6.16,1.68,8.9.56,2.75,1.06,4.08,1.49,4s.48-.87.14-2.38c-.34-1.51-.77-3.12-1.3-4.82-.52-1.7-1.01-3.19-1.46-4.46-.45-1.27-.63-1.68-.56-1.25ZM1433.37,315.06c-.34-.24-.42.15-.24,1.17s.39,1.35.63,1.01c.38-.37.53-.8.44-1.31s-.37-.8-.83-.86ZM1434.69,308.54c.15.87.62,1.84,1.41,2.89.78,1.06,1.83,1.47,3.14,1.24.72-.13,1.04-.86.96-2.19-.09-1.33-.15-2.14-.2-2.43-.03-.14-.15-.61-.36-1.39-.22-.78-.35-1.32-.4-1.61-.38.37-.99.74-1.82,1.11-.83.37-1.38.66-1.64.85-.29.05-.55.29-.77.7-.23.42-.33.7-.3.84ZM1444.89,272.19l1.31-.23-.31-1.74-1.31.23.31,1.74ZM1442.19,240.35c.26,1.45.85,3.14,1.79,5.07.94,1.93,1.98,3.17,3.12,3.71.12-.17.74-.88,1.87-2.13,1.13-1.24,1.68-1.94,1.65-2.09-.46-.07-.84-.08-1.13-.03-.73.13-1.1.12-1.13-.03-.2-1.16-1-2.25-2.37-3.28-1.38-1.03-2.65-1.44-3.81-1.24ZM1446.48,229.05c.15.87.36,1.62.62,2.25.26.63.81,1.24,1.67,1.84-.03-.14.11-.43.41-.86s.44-.71.41-.86l-.04-.22-.15-.87c-.05-.29-.38-1.06-.97-2.3-.59-1.24-.93-2.08-1-2.52-.82.45-1.21,1-1.17,1.66.04.67.11,1.29.22,1.87ZM1456.02,227.14c-.44.08-.58.33-.43.75.15.42.4.83.77,1.21.37.38.77.76,1.21,1.13.44.37.88.52,1.31.44s.17-.7-.78-1.88c-.96-1.18-1.65-1.73-2.09-1.65ZM1456.62,225.46l1.31-.23-.27-1.52-1.31.23.27,1.52ZM1503.2,264.37c.03.15-.15.85-.53,2.11-.19.63-.32,1.18-.38,1.64,1.96.1,3.47.17,4.53.21,1.05.04,2.56.11,4.53.21l-6.23-6.08c-.44.08-.88.31-1.34.69-.46.38-.65.79-.57,1.22ZM1500.62,252.26c-.32-.09-.42.15-.32.73s.3.85.59.79c.24-.34.15-.85-.27-1.52ZM1509.27,256.8c.73-.13,1.15.17,1.28.9s-.17,1.15-.9,1.28c-.58.1-.93-.21-1.06-.94s.1-1.14.68-1.24ZM1524.88,232.05c-.44.08-.58.52-.44,1.31s.43,1.16.86,1.08c.72-.13,1.02-.59.88-1.39-.14-.8-.57-1.13-1.3-1.01ZM1529.21,243.86c-.2-.26-.25-.14-.16.36s.19.68.31.51c.41-.22.6-.44.56-.66s-.27-.29-.71-.21ZM1529,226.16c-.29.05-.31.36-.06.91.24.56.62,1.2,1.13,1.93.5.74,1.06,1.35,1.67,1.84.61.49,1.06.71,1.35.66,1.03-.93,1.51-1.84,1.43-2.72-.08-.88-.4-1.61-.95-2.19-.55-.58-1.29-.93-2.21-1.07-.92-.14-1.71.08-2.36.64ZM1535.27,247.72c.04-.6-.26-.85-.92-.74s-.86.45-.61,1.01c.19.27.51.36.95.28s.63-.26.58-.55ZM1547.51,231.88c-.58.1-.81.52-.68,1.24s.48,1.04,1.06.93.81-.51.68-1.24-.48-1.04-1.06-.94ZM1557.67,229.64c-.29.05-.82.22-1.59.51-.77.29-1.47.56-2.1.82-.63.26-1.15.5-1.56.72-.41.22-.47.31-.18.26.14-.03.53-.17,1.16-.43.63-.26,1.29-.52,1.99-.8.7-.27,1.29-.53,1.77-.76.48-.23.65-.34.51-.31ZM1576.18,223.9c1.77-.16,3.08-.54,3.95-1.15.86-.6,1.28-1.23,1.24-1.9-.04-.67-.52-1.22-1.41-1.66-.9-.44-2.32-.64-4.26-.6-.29.05-.35.36-.17.93.17.57.32,1.18.43,1.83l.31,1.74c.09.51.06.78-.08.8ZM1583.29,250.25c.03.15.28.51.76,1.1.48.59.86.86,1.15.81l-.81-4.57c-.24.34-.5.8-.77,1.37-.27.57-.38,1-.33,1.29ZM1596.33,288.57l-.19-1.09-1.09.19,1.28.9Z"/>
      <path class="cls-3" d="M1669.6,275.2c-.29.05-.83.19-1.61.4-.79.22-1.32.35-1.61.4.03.15-.08.39-.32.73-.24.34-.43.52-.58.55l-4.79.84-.52,2.11c-.41-2.32-1.79-3.57-4.14-3.76-2.35-.18-4.4-.12-6.14.19-.58.1-1.12.24-1.61.4-.5.16-.98.59-1.46,1.27l-1.15-6.53-.51-.36c-.34-.24-.52-.43-.55-.58-.29.05-.83-.04-1.62-.28-.79-.23-1.66-.49-2.61-.77-.95-.28-1.82-.58-2.62-.88-.8-.31-1.29-.52-1.46-.64-1.09-.26-1.73-.93-1.93-2.02-.19-1.09-.85-1.83-1.96-2.23-.7.27-1,.7-.9,1.28s.29,1.22.56,1.92c.27.7.42,1.35.45,1.94.03.6-.32.95-1.04,1.08-.43.08-1.42.03-2.94-.15-1.53-.18-2.35-.63-2.48-1.36l-.08-.44c.19-.63.56-1.07,1.11-1.32-.34-.24-.88-.55-1.63-.95-.74-.39-1.33-.55-1.77-.47-.87.15-1.38.47-1.52.94s-.21.93-.21,1.38c0,.45-.03.9-.1,1.36-.07.46-.32.73-.76.81-.58.1-1.22.07-1.93-.11-.7-.17-1.27-.6-1.68-1.27.7-.27.99-.77.86-1.5l-.27-1.52c-.33-1.88-1.2-3.38-2.59-4.48-1.39-1.1-2.78-2.2-4.17-3.3-.15.03-.23-.03-.26-.18-.17-.12-.28-.32-.33-.61,1.59-.28,2.56-1.16,2.9-2.64.34-1.48.53-2.9.6-4.26l-.33-1.85c-.19-1.09-.4-2.29-.63-3.59l-.65-3.7-.38-2.18c-.26-1.45-.16-2.81.29-4.09.45-1.27.56-2.57.33-3.87-.03-.14-.08-.24-.17-.31-.09-.06-.14-.16-.17-.31l-.08-.44c-.03-.14-.4-.56-1.12-1.26-.72-.69-1.09-1.12-1.12-1.26l-.26-.18-.08-.44.18-.26c.37-1.26.69-2.85.96-4.77.26-1.91.72-3.53,1.39-4.85-.03-.14.02-.3.14-.47-.03-.14,0-.22.07-.24s.1-.09.07-.24c1.68-1.49,2.74-3.1,3.19-4.83.44-1.72.85-3.66,1.22-5.83.24.56.59.83,1.04.83.45,0,.81-.03,1.11-.08l.87-.15-3.2-4.15,9.77-4.42c-.38-2.18-.18-3.75.63-4.71.8-.96,1.83-1.7,3.09-2.23,1.25-.52,2.58-1.05,3.98-1.6,1.4-.54,2.49-1.56,3.28-3.05l8.49-1.5-.54-3.05-1.05.41c-.15.03-.46-.07-.95-.28-.49-.21-.82-.38-.99-.5l.72-1.02,9.58-1.69.74-2.15c.09,2.23.41,4.04.96,5.44.55,1.4,1.15,2.71,1.82,3.94.66,1.23,1.29,2.43,1.87,3.6.58,1.17,1.02,2.62,1.33,4.37l.27,1.52-5.71,7.07-.4.3c-.73.13-1.15-.17-1.28-.9s-.77-.99-1.93-.78c-1.74.31-2.6.95-2.58,1.91.02.97.16,2.18.42,3.63-1.02.18-1.75.5-2.19.95-.45.45-.76,1-.95,1.63-.19.63-.41,1.31-.65,2.02-.25.72-.75,1.44-1.52,2.18l-2.5,1.11c-.12.17-.43.94-.94,2.3-.51,1.36-.86,2.36-1.04,2.99-.28.95-.77,1.56-1.47,1.83-.7.27-1.36.54-1.99.8-.63.26-1.14.54-1.54.83-.4.29-.52.88-.36,1.75s.49,1.71,1,2.52c.51.81.88,1.79,1.08,2.95.41,2.32.35,3.9-.17,4.74-.52.84-1.33,2.03-2.4,3.56l.12.65c.41,2.32.88,3.96,1.43,4.91.54.95,1.15,1.63,1.82,2.04.67.41,1.4.76,2.21,1.07.8.31,1.58.92,2.34,1.83.64,1.09,1.34,2.53,2.11,4.34.77,1.81,1.83,2.75,3.19,2.8,2.45.32,4.95.7,7.5,1.15,2.55.45,5.12.82,7.71,1.11,3.8.38,7.9.26,12.28-.37,4.38-.62,8.45-1.27,12.23-1.93,1.88-.33,3.38-.74,4.49-1.24,1.11-.49,1.97-1.13,2.58-1.91.61-.78,1.12-1.73,1.52-2.85.4-1.12.85-2.39,1.34-3.83,1.3,1.42,2.01,2.04,2.13,1.87.12-.17.76-.36,1.92-.56-.13-.72-.23-1.72-.3-2.98-.07-1.26-.04-2.53.11-3.83.14-1.29.54-2.45,1.18-3.46.64-1.01,1.62-1.63,2.93-1.86.21,1.16.61,1.8,1.23,1.91.62.12,1.29.11,2.02-.02-.33-1.88-.47-3.09-.41-3.63.05-.53-.35-1.54-1.21-3.04l.43-.08c1.6-.28,2.82-.12,3.67.47.85.6,1.54,1.3,2.05,2.11.51.81.98,1.55,1.4,2.22.42.68.99.95,1.72.82l.4-.29c0-1.65.03-3,.07-4.05.04-1.05-.07-2.31-.33-3.76-.15-.87-.49-1.52-1.02-1.95-.53-.43-1.04-.83-1.56-1.18s-1.03-.75-1.56-1.18c-.52-.43-.85-1.01-.98-1.73-.1-.58.09-1.59.59-3.02.49-1.43.64-2.73.44-3.89-.28-1.59-.86-2.77-1.74-3.51-.88-.74-2.15-2.01-3.81-3.82-.38.37-1.03.29-1.95-.22-.91-.51-1.92-1.15-3.03-1.93-1.11-.78-2.26-1.54-3.44-2.31-1.18-.76-2.31-1.2-3.37-1.31-.75-.01-2.13.04-4.12.17-2,.13-4.12.17-6.37.11-2.25-.05-4.27-.26-6.06-.62-1.78-.36-2.77-1.04-2.94-2.06l-1.38-7.84c-.05-.29-.41-.6-1.06-.94-.66-.33-1.16-.62-1.5-.86l-.36.51c-.12.17-.25.27-.4.29s-.2.11-.18.26-.06.54-.24,1.17c-.19.63-.18,1.08.01,1.34.03.15.39.53,1.1,1.15.71.63,1.09,1.08,1.14,1.37.03.15-.11.62-.42,1.42-.31.8-.57,1.45-.78,1.93l-.72,1.02c.07-.46-.03-1.01-.29-1.63-.26-.63-.77-.95-1.52-.97.08.43.04,1.08-.11,1.93-.15.85-.4,1.53-.76,2.04-.95-.28-1.87-1.28-2.77-2.99-.9-1.71-1.64-3.56-2.21-5.56-.58-1.99-1.06-3.89-1.45-5.69-.39-1.8-.61-2.84-.67-3.14,2.32-.41,3.68-.95,4.09-1.62.4-.67.99-2.2,1.77-4.58.63.19,1.01.65,1.14,1.37.18,1.02.16,1.96-.06,2.82-.22.86-.26,1.73-.1,2.6.1.58.3,1.07.6,1.47.29.4.9.66,1.82.8.91-.76,1.47-1.64,1.66-2.65.19-1.01.59-1.93,1.19-2.79.56.65.99,1.14,1.27,1.46.28.33.46.67.52,1.03s.09.73.08,1.11c-.01.38.05.93.18,1.65,1.16-.2,1.95-.38,2.37-.53.42-.15,1.65-.4,3.68-.76-.18-1.01-.48-2.08-.9-3.21-.42-1.12-1.43-1.54-3.03-1.26l-.04-.22c.43-.08.93-.24,1.48-.49.43-.08.83-.18,1.18-.32.35-.13.67-.23.96-.28l.87-.15.22-.04c.17.12.67.86,1.51,2.2.83,1.35,1.76,1.93,2.78,1.75.72-.13,1.12-.65,1.18-1.56.06-.91.2-1.61.42-2.09l.61-.33c1.16-.2,2.18.1,3.08.92.89.82,1.56,1.63,2,2.45l2.33-3.33c1.29.52,2.27,1.43,2.95,2.73.68,1.3,1.62,2,2.83,2.08,1.09.26,2.6.55,4.53.88,1.93.33,3.89.85,5.88,1.54,1.99.7,3.79,1.54,5.38,2.53,1.59.99,2.53,2.28,2.82,3.88l2.76,15.67.65-.12,5.1-6.73c-.83-.45-1.85-1.36-3.06-2.72-1.21-1.36-1.88-2.4-2.01-3.12l-.12-.65c.09-.31.22-.67.37-1.08.15-.4.28-.76.37-1.08l.4-.29c.44-.08.89.18,1.37.77.48.59.97,1.29,1.49,2.09.51.81.92,1.6,1.2,2.37.28.77.44,1.23.47,1.38s.11.2.26.18l.43-.08c.73-.13,1.1-.57,1.11-1.32.02-.75-.04-1.49-.17-2.21l2.83-.5c1.09,2.8,2.14,5.12,3.14,6.96,1,1.84,1.73,4.07,2.19,6.68.28,1.6.43,2.88.45,3.85.02.97-.09,1.85-.32,2.64-.24.79-.57,1.67-.99,2.64-.43.97-1.04,2.2-1.82,3.69.56.65,1.26.98,2.08.98.82,0,1.31.44,1.47,1.31.15.87-.19,1.46-1.04,1.75-.84.3-1.79.65-2.84,1.06-1.05.41-1.95,1.06-2.69,1.93-.74.88-.95,2.26-.62,4.15.1.58.35.91.74.99.39.08.84.11,1.36.1.52-.01.97.02,1.36.1.39.08.63.41.74.99.03.15-.02.31-.14.47-1.38.69-2.37,1.17-3,1.43-.63.26-1.2.44-1.7.52s-1.06.15-1.65.18c-.59.03-1.54.16-2.85.39.08.44.38,1.5.9,3.21.52,1.7.84,2.85.94,3.42.03.15-.1.51-.37,1.08-.27.57-.4.93-.37,1.07-.12.17-.18.67-.19,1.49,0,.82-.06,1.4-.15,1.71-.13-.72-.59-1.61-1.37-2.68-.79-1.06-1.57-1.67-2.34-1.83-.92-.13-1.45.07-1.58.61-.13.55-.14,1.11-.04,1.69.18,1.02.69,1.79,1.53,2.31.84.53,1.34,1.22,1.49,2.09.18,1.02.03,1.87-.45,2.55s-1.05,1.27-1.71,1.76c-.66.49-1.28,1.01-1.86,1.56-.58.55-.86,1.27-.85,2.17l-2.65-3.57,1.07,6.09c-.29.05-.57.18-.83.37-.53.4-.87.6-1.01.63l-1.52.27-1.04-5.88-1.52.27c.08.44-.01,1.2-.27,2.29-.26,1.09-.61,2.28-1.06,3.55-.45,1.28-.96,2.41-1.53,3.41-.57,1-1.22,1.56-1.95,1.69-1.02.18-1.77-.06-2.26-.72-.49-.66-.98-1.54-1.48-2.66l-.22.04c-1.31.23-2.21.61-2.71,1.15-.51.54-.92,1.14-1.25,1.79-.33.66-.66,1.35-.98,2.08-.32.73-.79,1.45-1.42,2.16l-.22.04c-.73.13-1.25-.3-1.57-1.29-.32-.99-.7-2.04-1.12-3.17-.42-1.12-.98-2.15-1.66-3.07-.69-.92-1.76-1.26-3.21-1.01.1.58.31,1.37.64,2.36.32.99.63,2.1.92,3.32.29,1.22.46,2.42.52,3.61.06,1.19-.13,2.27-.55,3.24-.58.1-.92-.14-1.02-.72-.05-.29-.04-.86.04-1.69.08-.84.16-1.41.26-1.73l-.04-.22-.08-.44c-.45-.82-1.02-1.95-1.72-3.4-.7-1.45-1.2-2.14-1.49-2.09l-.65.12c-.15.03-.84.93-2.1,2.73-1.25,1.79-2.24,3.2-2.96,4.22-.26,1.09-.55,1.97-.88,2.62-.59,1.75-1.03,2.65-1.32,2.7-.87.15-1.47-.08-1.81-.69-.33-.61-.67-1.27-1.02-1.95-.35-.69-.94-1.29-1.78-1.82-.84-.52-2.28-.61-4.31-.25ZM1612.36,222.91c-.29.05-.4.26-.34.62s.23.45.49.25c.29-.05.42-.19.38-.4s-.22-.37-.53-.47ZM1618.8,219.98l.87-.15c.76-1.63,1.43-3.32,2.02-5.07.59-1.75.73-3.49.42-5.24-.29.05-.73.51-1.33,1.36-.6.86-1.22,1.79-1.86,2.8-.65,1.01-1.49,2.36-2.54,4.04.31,1.74,1.11,2.5,2.42,2.27ZM1644.97,267.88l.87-.15-1.06-.93.19,1.09ZM1638.66,191.35l.65-.12-.69-3.92-.65.12.69,3.92ZM1642.57,190.65l1.74-.31c-.08-.44-.26-.85-.56-1.25-.3-.4-.66-.56-1.1-.48l-.43.08.35,1.96ZM1661.61,271.9l.72-1.02-1.02-.72-.47-.14c-.15.03-.21.08-.2.15.01.08-.06.12-.2.15l-.22.04,1.39,1.55ZM1670.53,266.51c-1.45.26-2.18.98-2.2,2.18-.01,1.2.08,2.38.29,3.54l.19,1.09c1.45-.26,2.14-1.2,2.08-2.84-.06-1.63-.19-2.96-.36-3.98ZM1661.88,188.15l.5-.99-.65.12.15.87ZM1662.92,190.21c.03.15.22.41.59.79.37.38.72.7,1.06.94l-.5-2.83-1.31.23.15.87ZM1665.91,195.74l1.52-.27c-.1-.58-.31-1.14-.63-1.68-.32-.54-.8-.9-1.43-1.1l.54,3.05ZM1678.8,268.87c.05.29.23.49.55.58.32.1.5.29.55.58l.87-.15c1.88-.33,3.27-1.36,4.17-3.09.89-1.73,1.19-3.46.88-5.2-1.6.28-3.27.99-5.01,2.12-1.75,1.13-2.43,2.78-2.04,4.96l.04.22ZM1696.87,269.5c-.44.08-.59.48-.46,1.2s.41,1.05.84.97c.58-.1.81-.51.68-1.24s-.48-1.04-1.06-.94ZM1711.2,209.52c-.44.08-.6.44-.48,1.09s.39.94.83.86c.58-.1.81-.48.7-1.13s-.46-.93-1.04-.83ZM1712.63,211.29c-.58.1-.81.48-.7,1.13s.46.93,1.04.83c.44-.08.6-.44.48-1.09s-.39-.94-.83-.86ZM1713.85,213.09c-.12.17-.19.63-.2,1.38-.02.75-.07,1.29-.17,1.6l.05,1.56c.72-.13,1.19-.69,1.38-1.7.19-1.01.26-1.73.18-2.16-.1-.58-.52-.81-1.24-.68ZM1714.32,220.86l.72-1.02-.87.15.15.87ZM1712.35,204.61l1.09-.19-.19-1.09-1.09.19.19,1.09ZM1720.39,243.81l3.05-.54c-.42-.67-.85-1.01-1.3-1.01-.45,0-.82.03-1.11.08-.15.03-.21.08-.2.15.01.08-.06.12-.2.15l-.43.08.19,1.09ZM1713.48,193.19c-.58.1-.82.45-.72,1.02s.44.82,1.02.72.82-.44.72-1.02-.45-.82-1.02-.72ZM1713.98,196.02c-.58.1-.81.48-.7,1.13s.46.93,1.04.83.81-.48.7-1.13-.46-.93-1.04-.83ZM1717.14,207.58l.65-.12-.15-.87-.65.12.15.87ZM1724.09,243.15c-.29.05-.39.33-.3.84s.28.74.57.68c.58-.1.83-.41.74-.92s-.43-.71-1-.61ZM1719.38,210.1c-.58.1-.81.48-.7,1.13s.46.93,1.04.83c.44-.08.6-.44.48-1.09s-.39-.94-.83-.86ZM1722.15,221.95c.03.15.12.28.3.4.19.27.38.46.55.58.34.24.58.35.73.32l-.08-.43-.12-.65c-.15.03-.32-.09-.51-.36-.2-.26-.44-.37-.73-.32l-.14.47ZM1729.11,209.28l1.09-.19-.15-.87-1.09.19.15.87Z"/>
    </g>
  </g>
</svg>
