<?xml version="1.0" encoding="UTF-8"?>
<svg id="_レイヤー_2" data-name="レイヤー 2" xmlns="http://www.w3.org/2000/svg" xmlns:xlink="http://www.w3.org/1999/xlink" width="1800" height="1786.26" viewBox="0 0 1800 1786.26">
  <defs>
    <style>
      .cls-1 {
        fill: #ff7be5;
      }

      .cls-2 {
        fill: #9a5bbb;
      }

      .cls-3 {
        fill: url(#_新規グラデーションスウォッチ_1);
      }

      .cls-4 {
        fill: url(#_名称未設定グラデーション_147-3);
      }

      .cls-5 {
        fill: url(#_名称未設定グラデーション_147-2);
      }

      .cls-6 {
        fill: url(#_名称未設定グラデーション_103-3);
      }

      .cls-7 {
        fill: url(#_名称未設定グラデーション_103-2);
      }

      .cls-8 {
        fill: #276dc2;
      }

      .cls-9 {
        fill: #8747aa;
      }

      .cls-10 {
        fill: #165caa;
      }

      .cls-11 {
        fill: url(#_名称未設定グラデーション_147);
      }

      .cls-12 {
        fill: url(#_名称未設定グラデーション_103);
      }

      .cls-13 {
        fill: url(#_名称未設定グラデーション_131);
      }

      .cls-14 {
        fill: #ffd43b;
      }

      .cls-15 {
        fill: #c27be5;
      }

      .cls-16 {
        fill: #e872dc;
      }

      .cls-17 {
        fill: #c55cbc;
      }

      .cls-18 {
        fill: #ffe873;
      }

      .cls-19 {
        fill: #ac6dd1;
      }
    </style>
    <linearGradient id="_名称未設定グラデーション_147" data-name="名称未設定グラデーション 147" x1="1438.39" y1="194" x2="1506.79" y2="6.06" gradientUnits="userSpaceOnUse">
      <stop offset="0" stop-color="#165caa"/>
      <stop offset="1" stop-color="#276dc2"/>
    </linearGradient>
    <linearGradient id="_名称未設定グラデーション_131" data-name="名称未設定グラデーション 131" x1="1394.6" y1="315.93" x2="1425.49" y2="231.07" gradientUnits="userSpaceOnUse">
      <stop offset="0" stop-color="#165caa"/>
      <stop offset="1" stop-color="#276dc2"/>
    </linearGradient>
    <linearGradient id="_名称未設定グラデーション_147-2" data-name="名称未設定グラデーション 147" x1="1419.63" y1="245.54" x2="1431.75" y2="212.23" xlink:href="#_名称未設定グラデーション_147"/>
    <linearGradient id="_名称未設定グラデーション_147-3" data-name="名称未設定グラデーション 147" x1="1429.12" y1="219.47" x2="1444.07" y2="178.4" xlink:href="#_名称未設定グラデーション_147"/>
    <linearGradient id="_名称未設定グラデーション_103" data-name="名称未設定グラデーション 103" x1="262.09" y1="394.47" x2="337.33" y2="187.74" gradientTransform="translate(-92.82 590.4) rotate(-50)" gradientUnits="userSpaceOnUse">
      <stop offset="0" stop-color="#306998"/>
      <stop offset="1" stop-color="#3c78a9"/>
    </linearGradient>
    <linearGradient id="_名称未設定グラデーション_103-2" data-name="名称未設定グラデーション 103" x1="213.93" y1="528.6" x2="247.9" y2="435.25" xlink:href="#_名称未設定グラデーション_103"/>
    <linearGradient id="_名称未設定グラデーション_103-3" data-name="名称未設定グラデーション 103" x1="241.45" y1="451.17" x2="254.79" y2="414.53" xlink:href="#_名称未設定グラデーション_103"/>
    <linearGradient id="_新規グラデーションスウォッチ_1" data-name="新規グラデーションスウォッチ 1" x1="251.89" y1="422.49" x2="268.34" y2="377.32" gradientTransform="translate(-92.82 590.4) rotate(-50)" gradientUnits="userSpaceOnUse">
      <stop offset="0" stop-color="#306998"/>
      <stop offset="1" stop-color="#3c78a9"/>
    </linearGradient>
  </defs>
  <g id="_レイヤー_1-2" data-name="レイヤー 1">
    <g>
      <path class="cls-1" d="M638.33,408.89c-26.56,11.11-75.55,27.56-138.55,25.58-65.44-2.05-114.79-23.01-140.68-36.23,5.8-27.26,13.97-57.44,25.58-89.52,20.79-57.45,46.61-104.39,70.34-140.68,11.61-14.51,57.44-68.28,136.41-81,112.24-18.07,191.23,62.91,198.23,70.34-7.75,32.22-21.05,73.21-44.76,117.23-34.25,63.59-76.14,107.33-106.57,134.28Z"/>
      <path class="cls-15" d="M967.56,426.52c-16.21-15.38-67.68-60.26-148.06-68.79-96.77-10.27-165.84,39.52-181.17,51.16,30.44-26.95,72.32-70.69,106.57-134.28,23.71-44.02,37.01-85.01,44.76-117.23,15.58,16.9,58.67,58.97,127.89,72.47,108.22,21.1,189.95-45.26,201.35-54.83-5.45,33.68-18.95,89.68-56.41,148.62-32.09,50.48-69.28,83.51-94.92,102.9Z"/>
      <path class="cls-15" d="M574.38,681.28c-37.07-20.71-122.22-61.28-232.56-51.95-51.8,4.38-94.12,18.49-124.36,31.7,23.93-14.44,86.13-56.39,120.06-137.93,21.38-51.37,22.89-97.68,21.59-124.88,25.95,13.06,73.04,32.56,135.04,35.55,65.69,3.18,116.9-13.69,144.19-24.9-16.5,15.47-70.8,70.21-79.83,157.64-5.28,51.1,7.09,92.2,15.89,114.75Z"/>
      <path class="cls-1" d="M893.28,605.27c-54.29,82.6-140.06,129.63-222.31,118.71-43.48-5.77-76.3-26.45-96.58-42.7-7.86-18.13-32.57-81.21-10.78-157.61,18.12-63.53,58.36-101.05,74.73-114.79,17.71-13.51,73.91-52.8,155.06-52.54,97.03.31,160.14,56.94,174.18,70.18-57.34,31.88-92.95,83.23-88.95,133.66.89,11.22,4.12,27.1,14.66,45.09Z"/>
      <path class="cls-15" d="M1192.6,592.46c-79.56-79.4-181.74-100.4-244.45-60.59-12.37,7.85-38.57,27.82-54.87,73.4-10.55-18-13.77-33.87-14.66-45.09-4-50.42,31.61-101.77,88.95-133.66,14.85,13.86,68.89,60.91,151.33,64.26,56.74,2.31,99.77-17.19,119.67-27.86-4.86,2.83-53.27,32.08-55.72,84.27-.92,19.56,4.95,35.45,9.75,45.27Z"/>
      <path class="cls-1" d="M1238.57,462.93c-19.9,10.67-62.93,30.16-119.67,27.86-82.45-3.35-136.49-50.4-151.33-64.26,25.64-19.39,62.84-52.41,94.92-102.9,37.46-58.94,50.96-114.93,56.41-148.62,112.98-69.91,223.95-78.76,272.24-29.32,9.7,9.93,21.08,26.53,26.16,54.86-18.09,60.06-54.14,145.19-129.48,219.79-16.43,16.27-33.03,30.36-49.25,42.58Z"/>
      <path class="cls-1" d="M1449.39,637.72c-23.03,8.07-67.03,19.99-121.9,12.97-68.92-8.82-115.6-42.49-134.88-58.22-4.8-9.82-10.67-25.71-9.75-45.27,2.44-52.19,50.86-81.44,55.72-84.27,8.9-8.14,62.88-55.87,143.39-49.56,85.15,6.67,132.06,68.46,138.76,77.61-46.28,13.26-79.58,48.17-84.29,88.39-3.1,26.47,7.02,47.96,12.97,58.36Z"/>
      <path class="cls-15" d="M1520.71,490.97c-10.98-13.89-48.05-57.13-112.44-71.11-91.15-19.79-160.7,35.63-169.7,43.06-.45.37-.66.55-.66.54,0-.01,1.34-1.17,1.38-1.2,1.22-1.05,52.72-47.87,82.97-85.61,53.4-66.62,92.82-170.14,95.06-176.11,1.68,35.39,14.45,55.46,22.65,65.45,40.31,49.18,135.06,56.05,230.22,6.78.54,10.95,4.82,136.44-83.9,193.84-22.02,14.24-45.01,21.22-65.55,24.35Z"/>
      <path class="cls-17" d="M1520.71,490.97c44.27,16.64,76.26,13.55,96.67,8.02,100.71-27.28,171.1-181.72,159.11-384.54,13.07,86.05,25.16,215.01,9.85,369.77-12.14,122.72-53.21,379.86-115.98,382.63-61.83,2.73-121.31-242.39-149.65-375.88Z"/>
      <path class="cls-16" d="M1754.67,532.8c1.47,63.83-3.45,139.85-22.98,223.09-5.93,25.29-12.71,49.13-20.01,71.49,9.79-19.46,23.34-48.29,36.62-84.27,56.59-153.3,53.67-288.02,50-406.47-1.75-56.64-7-132.68-21.8-222.19"/>
      <path class="cls-19" d="M1449.39,637.72c21.2,14.23,55.61,32.13,99.37,33.76,81.54,3.03,161.25-51.72,205.91-138.67-6.37,33.98-17.15,85.05-34.9,145.9-33.29,114.1-79.59,272.77-131.32,274.69-67.01,2.49-126.52-258.67-139.06-315.69Z"/>
      <path class="cls-15" d="M1670.36,735.86c-37.05-70.45-98.66-115.87-161.91-113.98-14.41.43-35.14,3.5-59.06,15.84-5.95-10.4-16.07-31.89-12.97-58.36,4.72-40.22,38.01-75.13,84.29-88.39,1.28,4.94,19.82,71.99,84.41,93.48,52.89,17.6,113.99-2.9,149.55-51.65-9.8,43.02-25.84,93.7-52.74,147.29-10.19,20.3-20.86,38.87-31.57,55.77Z"/>
      <path class="cls-2" d="M1670.12,733.04c2.16,25.15,2.49,64.24-9.84,109.67-11.5,42.37-29.65,74.18-43.38,94.42"/>
      <path class="cls-1" d="M475.44,993.13c-38.82-95.73-121.72-158.22-208.67-158.05-59.83.12-104.45,29.88-124.25,45.24-4.23-10.62-32.25-84.52,7.96-154.78,20.97-36.64,51.15-55.96,66.97-64.51,32.3-14.04,94.71-36.09,175.39-32.63,86.76,3.72,150.63,35.05,181.53,52.87,7.45,24.42,23.97,90.14,0,168.49-25.02,81.77-79.02,127.89-98.94,143.36Z"/>
      <path class="cls-15" d="M893.28,804.13c-11.36,21.9-104.32,194.24-284.52,208.26-27.66,2.15-75.2,1.96-133.32-19.26,19.92-15.47,73.93-61.59,98.94-143.36,23.97-78.35,7.45-144.07,0-168.49,19.57,14.59,60.33,40.33,115.69,42.71,124.81,5.37,199.9-113.31,203.2-118.72,11.85,23.49,31.82,71.82,23.15,130.58-2.45,16.61-7.91,38.89-23.15,68.27Z"/>
      <path class="cls-1" d="M1208.81,800.51c-110.48-86.78-175.5-89.17-214.57-74.96-53.82,19.57-94.54,83.77-100.96,78.59-3.4-2.75,10.25-19.8,15.27-35.98,21.84-70.5-2.56-135.09-15.27-162.88,16.31-45.58,42.51-65.55,54.87-73.4,62.71-39.81,164.89-18.81,244.45,60.59,9.28,22.57,19.59,54.5,23.7,93.83,5.02,48.01-1.2,87.89-7.49,114.22Z"/>
      <path class="cls-16" d="M1409.88,823.11c17.8,55.11,45.36,67.94,54.26,71.29,54.6,20.54,146.12-37.78,205.98-161.36-10.48,65.58-28.27,157.58-59.66,265.84-38.61,133.12-54.56,141.74-63.55,142.57-26.14,2.43-68.1-53.97-137.02-318.34Z"/>
      <path class="cls-1" d="M1644.09,843.18c-19.59-12.31-63.09-35.95-123.38-38.89-65.38-3.19-114.11,19.75-134.43,30.8,48.4-19.52,82.28-61.54,87.29-109.54,4.63-44.37-17.08-77.78-24.19-87.83,23.88-12.26,44.62-15.37,59.06-15.84,97.58-3.16,158.88,106.03,161.67,111.16-5.81,10.84-11.8,24.19-16.59,39.93-8.44,27.75-9.9,52.39-9.44,70.21Z"/>
      <path class="cls-15" d="M1386.28,835.08c-8.02,3.96-78.62,37.42-139.28,1.51-17.93-10.61-30.13-24.4-38.19-36.09,2.91-12.79,5.28-26.55,6.79-41.22,7.04-68.5-7.84-126.73-23-166.82,19.29,15.73,65.96,49.4,134.88,58.22,54.87,7.03,98.87-4.9,121.9-12.97,7.11,10.05,28.82,43.46,24.19,87.83-5.01,48-38.9,90.02-87.29,109.54Z"/>
      <path class="cls-1" d="M1642.23,841.12c-7.74,62.75-21.97,132.98-46.97,207.51-6.73,20.05-13.85,39.27-21.24,57.65"/>
      <path class="cls-19" d="M1342.71,1061.09c50.98,49.69,94.15,51.6,108.39,51.29,86.5-1.9,177.8-109.3,191.12-271.25,10.07,60.56,18.86,167.75-25.32,285.83-19.98,53.4-51.69,138.13-104.71,144.54-57.07,6.89-127.44-78.33-169.48-210.4Z"/>
      <path class="cls-15" d="M1616.9,1053.52c-67.45,78.04-159.57,103.92-219.32,71.58-11.71-6.34-37.1-22.98-54.87-64-5.99-19.55-19.22-71.98,0-134.25,17.29-56.01,51.59-90.01,67.16-103.74,20.99-8.46,52.87-18.23,92.41-19.05,67-1.38,117.18,23.72,139.93,37.06,2.57,26.81,3.52,59.34,0,96.01-4.5,46.88-14.93,86.28-25.32,116.39Z"/>
      <path class="cls-15" d="M1616.9,1050.27c.08,26.95-2.86,64.45-16.14,106.81-9.44,30.11-21.63,54.75-32.74,73.59"/>
      <path class="cls-1" d="M1342.71,1061.09c-3.67-6.97-57.81-106.26-150.28-107.67-14.24-.22-34.94,1.8-59.15,12.6,10.66-13.18,21.68-28.68,32.07-46.65,25.72-44.49,37.63-86.95,43.46-118.86,13.07,18.94,27.49,29.8,38.19,36.09,70.34,41.37,157.37-10.12,162.88-13.49-15.57,13.73-49.87,47.73-67.16,103.74-19.22,62.27-5.99,114.7,0,134.25Z"/>
      <path class="cls-15" d="M1133.28,966.01c-21.46,14.64-67.34,41.62-131.53,47.29-48.57,4.29-87.79-5.37-110.9-13.04-7.35-16.4-16.43-41.54-19.54-73.26-2.34-23.95-6.87-72.97,21.95-122.87,10.43-18.05,39.41-62.21,93.79-81.37,73.48-25.89,163.07,4.5,221.74,77.75-5.83,31.9-17.74,74.37-43.46,118.86-10.39,17.97-21.41,33.47-32.07,46.65Z"/>
      <path class="cls-1" d="M890.86,1000.26c-33.93-2.16-105.86-2.06-183.77,36.63-101,50.16-147.64,133.18-162.36,162.35-91.11-29.75-137.56-99.86-124.62-148.98,1.63-6.17,10.34-35.33,55.32-57.14,33.84,12.61,79.87,23.72,133.32,19.26,178.19-14.87,274.29-189.04,284.52-208.26-10.13,21.52-27.36,66.1-21.95,122.87,2.94,30.92,11.69,55.87,19.54,73.26Z"/>
      <path class="cls-15" d="M544.74,1199.25c-22.64,41.21-49.14,61.68-69.3,72.63-99.56,54.08-263.29-5.23-399.45-155.39,12.87-9.5,64.62-49.97,78.54-123.36,10.03-52.86-4.77-95.34-12.01-112.8,19.8-15.36,64.42-45.12,124.25-45.24,86.95-.18,169.85,62.31,208.67,158.05-44.99,21.8-53.7,50.96-55.32,57.14-12.95,49.12,33.51,119.23,124.62,148.98Z"/>
      <path class="cls-16" d="M75.99,1116.49c2.56,146.95,118.52,258.61,242.65,257.81,97.66-.63,190.44-70.79,226.09-175.06,15.43,8.08,36.9,22.27,52.69,46.53,33.74,51.86,18.14,113.82,1.52,175.98-7.6,28.4-38.61,136.14-143.48,261.75-55.82,66.86-83.73,100.28-121.74,102.61-68.31,4.18-121.92-79.94-189.25-188.53-75.81-122.26-195.41-315.15-119.22-432.61,15.43-23.8,35.34-39,50.76-48.48Z"/>
      <path class="cls-17" d="M390.32,1757.11c48.68-49.37,102.81-119.19,138.41-212.44,6.3-16.5,11.61-32.66,16.08-48.37,1.05,4.33,2.19,8.75,3.45,13.26,2.28,8.18,4.72,15.96,7.25,23.31-8.76,17.18-18.68,35.07-29.9,53.41-23.03,37.63-47.12,69.92-70.15,97.22"/>
      <path class="cls-19" d="M544.81,1497.82c56.53-92.93,119.58-189.69,189.87-288.93,52.31-73.85,104.59-143.36,156.18-208.63,67.74,284.51,18.83,484.94-20.56,592.74-24.35,66.64-66.65,182.39-132.64,186.7-67.28,4.4-142.83-108.09-192.85-281.88Z"/>
      <path class="cls-15" d="M900.33,1386.98c-32.5,109.17-123.37,180.45-215.71,177.73-76.11-2.24-127.84-54.03-141.84-69.02,66.2-105.75,83.18-212.34,36.78-268.89-7.92-9.65-18.98-19.43-34.83-27.55,14.43-28.98,54.12-99,137.89-148.98,89.72-53.53,176.39-52.08,208.23-50,17.02,40.55,39.75,108.77,41.31,195.92,1.5,83.56-17.07,150.12-31.84,190.79Z"/>
      <path class="cls-16" d="M900.33,1386.98c15.66-37.49,32.95-75.94,52.04-115.14,56.85-116.7,119.23-218.42,180.9-305.83,36.69,206.64,15.49,366.57-9.82,471.92-15.32,63.75-46.96,195.45-95.93,197.58-61.88,2.69-115.73-203.11-127.2-248.54Z"/>
      <path class="cls-1" d="M1121.86,1209.9c-26.59,4.73-69.88,16.08-114.44,46.26-66.02,44.72-95.79,104.33-107.09,130.81,19.44-55.45,44.85-154.32,24.22-272.71-7.75-44.49-20.43-82.73-33.69-114,23.16,7.49,59.99,16.13,105.19,13.02,66.65-4.59,114.72-32.21,137.23-47.27-9.73,11.46-57.07,69.64-48.28,150.48,4.91,45.14,25.15,77.48,36.86,93.41Z"/>
      <path class="cls-17" d="M1120.34,1209.37c5.36,9.63,10.83,21.05,15.58,34.23,8.33,23.1,11.73,44.08,13.05,60.51-.93,9.16-2.32,21.36-4.4,35.7-1.52,10.47-5.41,36.01-13.32,70.77-2.54,11.17-11.26,49.51-13.04,49.17-2.34-.45,15.85-66.46,14.1-147.76-.94-43.34-6.9-78.87-11.97-102.63Z"/>
      <path class="cls-19" d="M1120.34,1209.37c36.02-19.11,74.99-42.01,115.58-69.43,39.63-26.77,74.66-53.69,105.27-79.38,18.28,49.33,49.98,157.06,14.68,280.05-6.97,24.29-40.27,140.32-90.06,142.48-62.3,2.7-118.35-174.3-145.47-273.72Z"/>
      <path class="cls-15" d="M1291.79,1296.79c-6.46-12.54-28.3-51.05-75.85-73.38-41.55-19.51-79.46-15.74-94.09-13.51-11.71-15.93-31.95-48.27-36.86-93.41-8.79-80.84,38.55-139.01,48.28-150.48,24.21-10.8,44.92-12.81,59.15-12.6,92.48,1.41,146.61,100.71,150.28,107.67,7.22,20.6,16.3,55.53,12.1,98.53-7.12,72.88-47.71,120.77-63.02,137.17Z"/>
      <path class="cls-17" d="M13.14,1329.92c15.46,16.47,32.09,36.44,48.26,60.22,25.03,36.82,41.62,71.97,52.75,101,6.73,23.34,15.15,48.28,25.77,74.34,22.28,54.7,48.48,100.3,73.26,136.9-28.19-35.39-50.01-66.17-65.34-88.79-44.09-65.05-92.68-137.91-123.27-240.17-5.48-18.31-9.18-33.57-11.44-43.51Z"/>
      <path class="cls-16" d="M1291.79,1296.79c34.8-6.03,77.9-17.65,123.52-40.62,118.3-59.58,177.94-157.47,201.59-202.65-2.45,56.16-9.91,141.84-34.6,243.27-25.36,104.16-65.39,268.62-127.39,273.58-80.59,6.45-159.13-259.77-163.12-273.58Z"/>
      <path class="cls-1" d="M1550.86,1321.21c-71.18,48.43-153.19,59.18-211.03,24.19-13.23-8-31.85-22.43-48.03-48.61,12.29-13.31,25.15-30.28,35.92-51.41,39.5-77.5,22.66-155.86,15-184.29,21.93,35.76,48.09,50.68,61.78,56.91,63.2,28.78,148.99,3.77,212.41-64.48-21.5,48.13-42.9,108.93-55.69,180.94-5.47,30.83-8.69,59.9-10.36,86.76Z"/>
      <path class="cls-16" d="M1117.99,1207.14c6.94,29.44,12.74,64.76,14.33,104.86,2.83,71.44-8.75,131.28-20.86,173.97"/>
      <path class="cls-1" d="M542.79,1497.82c-20.81-15.72-146.98-107.93-299.99-71-58.31,14.07-101.42,42.29-128.64,64.32-102.51-104.88-140.3-231.39-95.64-314.65,9.23-17.22,25.85-39.78,57.49-60,136.16,150.15,299.89,209.46,399.45,155.39,20.16-10.95,46.66-31.42,69.3-72.63,28.83,14.94,44.21,33.19,52.69,46.53,40.26,63.41,19.12,164.97-54.63,252.04Z"/>
      <path class="cls-1" d="M1754.67,532.8c-35.56,48.75-96.65,69.25-149.55,51.65-64.59-21.49-83.13-88.54-84.41-93.48,20.54-3.12,43.54-10.1,65.55-24.35,88.73-57.4,84.44-182.89,83.9-193.84,12.03-6.97,24.98-16.02,37.71-27.81,48.82-45.25,63.57-102.48,68.62-130.52,9.43,71.95,14.31,161.23,4.37,262.6-5.65,57.62-15.18,109.79-26.2,155.75Z"/>
      <path class="cls-2" d="M912.86,1433.45c-2.38-8.27-4.72-16.7-7.01-25.26-1.92-7.15-3.75-14.22-5.52-21.22,1.64,17.87,2.91,44.32,0,76.17-3.39,37.1-10.86,63.82-9.47,64.14,1.42.33,10.15-27.5,16.36-58.77,2.86-14.42,4.59-26.54,5.64-35.06Z"/>
      <path class="cls-17" d="M1616.9,1053.52c-17.13,34.93-35.74,80.79-48.88,136.36-11.87,50.16-16.16,95.02-17.17,131.34.38,14.31.19,29.56-.8,45.64-2.34,37.68-8.56,71.05-15.95,99.26-.45,1.74,30.91-92.1,57.04-210.09,8.05-36.34,14.42-68.85,19.19-109.1,4.48-37.81,6.04-69.88,6.57-93.42Z"/>
      <path class="cls-2" d="M1306.45,1342.83c3.25,11.99,7.37,24.96,12.62,38.63,3.98,10.35,8.16,19.95,12.37,28.77-2.64,8.31-6.84,18.82-13.69,30.03-7.92,12.96-16.68,22.45-23.64,28.93,6.15-13.29,13.52-33.16,16.48-58.22,3.43-28.97-.44-52.91-4.15-68.13Z"/>
      <ellipse class="cls-2" cx="557.84" cy="274.5" rx="56.42" ry="88.77"/>
      <ellipse class="cls-2" cx="433.91" cy="532.8" rx="52.65" ry="63.69"/>
      <ellipse class="cls-2" cx="1023.07" cy="866.87" rx="55.5" ry="70.16"/>
      <ellipse class="cls-2" cx="652.97" cy="895.4" rx="52.84" ry="55.5"/>
      <ellipse class="cls-2" cx="586.89" cy="1063.31" rx="52.84" ry="27.75" transform="translate(-453.03 435.9) rotate(-30)"/>
      <ellipse class="cls-2" cx="260.3" cy="1085.07" rx="64.66" ry="91.43"/>
      <ellipse class="cls-9" cx="1025.26" cy="1273.11" rx="59.05" ry="82.79" transform="translate(-107.06 94.2) rotate(-5)"/>
      <ellipse class="cls-9" cx="333.49" cy="1449.23" rx="121.53" ry="68.3" transform="translate(-1131.21 1706.42) rotate(-87)"/>
      <ellipse class="cls-2" cx="744.53" cy="1326.49" rx="77.73" ry="101.12" transform="translate(-45.84 26.79) rotate(-2)"/>
      <ellipse class="cls-9" cx="1232.49" cy="1190.04" rx="56.58" ry="104.89" transform="translate(-40.78 43.74) rotate(-2)"/>
      <ellipse class="cls-9" cx="1437.03" cy="1355.75" rx="56.58" ry="107.97"/>
      <ellipse class="cls-2" cx="674.56" cy="508.96" rx="77.76" ry="52.84" transform="translate(56.2 1084.9) rotate(-80)"/>
      <ellipse class="cls-2" cx="1056.51" cy="499.97" rx="11.58" ry="76.8" transform="translate(380.68 1453.61) rotate(-80)"/>
      <ellipse class="cls-2" cx="1046.91" cy="621.81" rx="55.5" ry="64.15" transform="translate(-149.54 395.57) rotate(-20)"/>
      <ellipse class="cls-2" cx="359.1" cy="749.18" rx="74.85" ry="64.15" transform="translate(-124.64 73.74) rotate(-10)"/>
      <ellipse class="cls-2" cx="903.07" cy="291.95" rx="23.79" ry="76.8" transform="translate(533.52 1166.13) rotate(-85)"/>
      <ellipse class="cls-2" cx="1263.98" cy="899.48" rx="35.29" ry="27.75" transform="translate(-146.99 1544.37) rotate(-60)"/>
      <ellipse class="cls-2" cx="1518.57" cy="953.42" rx="67.92" ry="59.5" transform="translate(103.26 2054.3) rotate(-70)"/>
      <ellipse class="cls-2" cx="1208.81" cy="302.71" rx="98.54" ry="55.5" transform="translate(423.6 1270.34) rotate(-65)"/>
      <ellipse class="cls-2" cx="1568.02" cy="732.49" rx="48.79" ry="53.42" transform="translate(574.38 2149.5) rotate(-80)"/>
      <circle class="cls-2" cx="1328.43" cy="745.08" r="47.85" transform="translate(-58.82 116.27) rotate(-4.9)"/>
      <ellipse class="cls-2" cx="1325.7" cy="519.56" rx="68.85" ry="63.95" transform="translate(212.89 1407.85) rotate(-60)"/>
      <ellipse class="cls-2" cx="1693.94" cy="458.14" rx="78.8" ry="48.92" transform="translate(1089.91 2105.7) rotate(-85)"/>
      <ellipse class="cls-2" cx="1488.6" cy="368.29" rx="55.64" ry="74.85" transform="translate(633.39 1641.16) rotate(-70)"/>
      <ellipse class="cls-2" cx="1579.13" cy="605.27" rx="17.68" ry="76.8" transform="translate(470.26 1882.15) rotate(-70)"/>
      <path class="cls-2" d="M401.66,1429.49c-3.17-56.22-28.61-99.88-61.81-101.62-33.08-1.73-62.85,38.73-72,94.01,48.82-7.6,94.32-2.69,133.8,7.61Z"/>
      <path class="cls-2" d="M1070.6,1223.78c-12.47-21.63-31.92-34.95-52.56-33.15-32.49,2.84-55.59,42.07-51.61,87.62.3,3.47.77,6.86,1.36,10.19,11.48-11.15,24.6-22.1,39.63-32.27,21.99-14.89,43.66-25.2,63.18-32.39Z"/>
      <path class="cls-2" d="M1228.83,1085.21c-31.23,1.09-54.9,48.91-52.88,106.8.23,6.49.77,12.83,1.59,18.97,11.99,2.28,25.01,6.14,38.41,12.44,25.96,12.19,44.24,29.19,56.55,44.17,11.15-19.63,17.63-48.09,16.53-79.52-2.02-57.89-28.98-103.94-60.2-102.85Z"/>
      <path class="cls-2" d="M1493.55,1351.26c-1.24-57.55-26.07-103.48-56.52-103.48s-56.58,48.34-56.58,107.97c0,2.03.03,4.04.09,6.05,34.81,8.1,74.14,4.19,113.01-10.54Z"/>
      <g>
        <circle class="cls-11" cx="1472.59" cy="100.03" r="100"/>
        <path class="cls-10" d="M1477.44,613.81l13.65-272.49-187.24-68.15-164.7,217.52c39.11,33.23,92.17,69.08,160.48,93.51,65.95,23.59,127.66,29.93,177.81,29.62Z"/>
        <path class="cls-8" d="M1303.85,273.17c-2.83,6.95,41.46,34.33,87.16,51,45.92,16.75,97.76,24.35,100.08,17.15,2.48-7.69-51.68-32.21-89.58-45.99-37.76-13.72-94.63-29.59-97.66-22.16Z"/>
        <path class="cls-13" d="M1468.8,333.2l10.15-82.68-106.92-38.91-45.37,69.86c17.04,11.4,40.56,24.75,70.3,35.31,27.57,9.79,52.39,14.31,71.84,16.42Z"/>
        <path class="cls-5" d="M1518.93,265.08c-11.24,11.14-32.89,4.64-99.31-19.54-66.42-24.17-87.18-33.11-88.63-48.87-.67-7.32,3.03-13.87,6.79-18.65l187.94,68.4c-.2,6.08-1.56,13.47-6.79,18.65Z"/>
        <path class="cls-4" d="M1525.72,246.43l-29.65-49.1c-14.03-.75-34.04-3.37-56.52-11.8-20.85-7.81-36.71-17.95-47.5-26.06-18.09,6.19-36.18,12.37-54.27,18.56,25.31,13.92,55.83,28.52,91.33,41.44,35.5,12.92,68.27,21.36,96.61,26.96Z"/>
      </g>
      <g>
        <circle class="cls-12" cx="322.83" cy="547.92" r="110"/>
        <path class="cls-14" d="M759.2,907.11l-219.97-204.18-189.82,109.59,66.84,292.58c55.65-9.46,123.38-28.82,192.27-69.11,66.51-38.9,115.48-86.41,150.68-128.89Z"/>
        <path class="cls-18" d="M349.41,812.53c3.86,7.3,58.24-10.67,104.6-37.39,46.58-26.85,89.64-65.16,85.22-72.2-4.73-7.53-63.69,20.77-102.09,42.97-38.26,22.12-91.85,58.82-87.72,66.62Z"/>
        <path class="cls-7" d="M516.64,715.99l-62.49-67.01-108.39,62.58,26.79,87.62c21.66-6.3,49.54-16.68,79.46-34.27,27.74-16.31,49.1-34.03,64.63-48.92Z"/>
        <path class="cls-6" d="M494.68,625.57c1.44,17.35-19.35,30.99-86.68,69.87-67.33,38.88-89.54,50.05-103.85,40.13-6.65-4.61-9.54-12.36-10.92-18.91l190.53-110c4.98,4.47,10.25,10.84,10.92,18.91Z"/>
        <path class="cls-3" d="M483.76,606.67l-62.33-9.74c-10.55,11.3-26.91,26.3-49.91,39.29-21.33,12.04-41.08,18.24-55.55,21.6-7.58,19.62-15.16,39.23-22.74,58.85,29.62-11.48,63.51-26.88,99.5-47.66,35.99-20.78,66.27-42.43,91.02-62.34Z"/>
      </g>
    </g>
  </g>
</svg>
